<?xml version="1.0" standalone="no"?>
 <!DOCTYPE svg PUBLIC "-//W3C//DTD SVG 1.1//EN" 
 "http://www.w3.org/Graphics/SVG/1.1/DTD/svg11.dtd"> 
<svg xmlns="http://www.w3.org/2000/svg" version="1.1" 
    width="29.7002cm" height="21.0007cm" viewBox="0 0 116930 82680 ">
<title>SVG Picture created as hv-driver-push-pull-n-channel-F.Fab.svg date 2017/04/04 07:51:50 </title>
  <desc>Picture generated by PCBNEW </desc>
<g style="fill:#000000; fill-opacity:1;stroke:#000000; stroke-opacity:1;
stroke-linecap:round; stroke-linejoin:round; "
 transform="translate(0 0) scale(1 1)">
</g>
<g style="fill:#000000; fill-opacity:0.0; 
stroke:#000000; stroke-width:-0.000393701; stroke-opacity:1; 
stroke-linecap:round; stroke-linejoin:round;">
</g>
<g style="fill:#000000; fill-opacity:0.0; 
stroke:#000000; stroke-width:39.3701; stroke-opacity:1; 
stroke-linecap:round; stroke-linejoin:round;">
</g>
<g style="fill:#000000; fill-opacity:0.0; 
stroke:#000000; stroke-width:59.0551; stroke-opacity:1; 
stroke-linecap:round; stroke-linejoin:round;">
<rect x="69685.9" y="65357.2" width="42519.7" height="12598.4" rx="0" />
</g>
<g style="fill:#000000; fill-opacity:0.0; 
stroke:#000000; stroke-width:39.3701; stroke-opacity:1; 
stroke-linecap:round; stroke-linejoin:round;">
</g>
<g style="fill:#000000; fill-opacity:0.0; 
stroke:#000000; stroke-width:59.0551; stroke-opacity:1; 
stroke-linecap:round; stroke-linejoin:round;">
<rect x="3937.01" y="3937.01" width="109056" height="74806" rx="0" />
</g>
<g style="fill:#000000; fill-opacity:0.0; 
stroke:#000000; stroke-width:39.3701; stroke-opacity:1; 
stroke-linecap:round; stroke-linejoin:round;">
</g>
<g style="fill:#000000; fill-opacity:0.0; 
stroke:#000000; stroke-width:59.0551; stroke-opacity:1; 
stroke-linecap:round; stroke-linejoin:round;">
<rect x="4724.41" y="4724.41" width="107481" height="73231.2" rx="0" />
</g>
<g style="fill:#000000; fill-opacity:0.0; 
stroke:#000000; stroke-width:39.3701; stroke-opacity:1; 
stroke-linecap:round; stroke-linejoin:round;">
</g>
<g style="fill:#000000; fill-opacity:0.0; 
stroke:#000000; stroke-width:59.0551; stroke-opacity:1; 
stroke-linecap:round; stroke-linejoin:round;">
<path d="M23622 4724
L23622 3937
" />
</g>
<g style="fill:#000000; fill-opacity:0.0; 
stroke:#000000; stroke-width:39.3701; stroke-opacity:1; 
stroke-linecap:round; stroke-linejoin:round;">
</g>
<g style="fill:#000000; fill-opacity:0.0; 
stroke:#000000; stroke-width:59.0551; stroke-opacity:1; 
stroke-linecap:round; stroke-linejoin:round;">
<path d="M43307 4724
L43307 3937
" />
</g>
<g style="fill:#000000; fill-opacity:0.0; 
stroke:#000000; stroke-width:39.3701; stroke-opacity:1; 
stroke-linecap:round; stroke-linejoin:round;">
</g>
<g style="fill:#000000; fill-opacity:0.0; 
stroke:#000000; stroke-width:59.0551; stroke-opacity:1; 
stroke-linecap:round; stroke-linejoin:round;">
<path d="M62992 4724
L62992 3937
" />
</g>
<g style="fill:#000000; fill-opacity:0.0; 
stroke:#000000; stroke-width:39.3701; stroke-opacity:1; 
stroke-linecap:round; stroke-linejoin:round;">
</g>
<g style="fill:#000000; fill-opacity:0.0; 
stroke:#000000; stroke-width:59.0551; stroke-opacity:1; 
stroke-linecap:round; stroke-linejoin:round;">
<path d="M82677 4724
L82677 3937
" />
</g>
<g style="fill:#000000; fill-opacity:0.0; 
stroke:#000000; stroke-width:39.3701; stroke-opacity:1; 
stroke-linecap:round; stroke-linejoin:round;">
</g>
<g style="fill:#000000; fill-opacity:0.0; 
stroke:#000000; stroke-width:59.0551; stroke-opacity:1; 
stroke-linecap:round; stroke-linejoin:round;">
<path d="M102362 4724
L102362 3937
" />
</g>
<g style="fill:#000000; fill-opacity:0.0; 
stroke:#000000; stroke-width:39.3701; stroke-opacity:1; 
stroke-linecap:round; stroke-linejoin:round;">
</g>
<g style="fill:#000000; fill-opacity:0.0; 
stroke:#000000; stroke-width:59.0551; stroke-opacity:1; 
stroke-linecap:round; stroke-linejoin:round;">
<path d="M14169 4562
L13877 4562
" />
<path d="M14023 4562
L14023 4050
L13974 4123
L13925 4172
L13877 4196
" />
</g>
<g style="fill:#000000; fill-opacity:0.0; 
stroke:#000000; stroke-width:39.3701; stroke-opacity:1; 
stroke-linecap:round; stroke-linejoin:round;">
</g>
<g style="fill:#000000; fill-opacity:0.0; 
stroke:#000000; stroke-width:59.0551; stroke-opacity:1; 
stroke-linecap:round; stroke-linejoin:round;">
<path d="M33562 4099
L33586 4074
L33635 4050
L33757 4050
L33805 4074
L33830 4099
L33854 4147
L33854 4196
L33830 4269
L33537 4562
L33854 4562
" />
</g>
<g style="fill:#000000; fill-opacity:0.0; 
stroke:#000000; stroke-width:39.3701; stroke-opacity:1; 
stroke-linecap:round; stroke-linejoin:round;">
</g>
<g style="fill:#000000; fill-opacity:0.0; 
stroke:#000000; stroke-width:59.0551; stroke-opacity:1; 
stroke-linecap:round; stroke-linejoin:round;">
<path d="M53222 4050
L53539 4050
L53368 4245
L53442 4245
L53490 4269
L53515 4294
L53539 4342
L53539 4464
L53515 4513
L53490 4537
L53442 4562
L53295 4562
L53247 4537
L53222 4513
" />
</g>
<g style="fill:#000000; fill-opacity:0.0; 
stroke:#000000; stroke-width:39.3701; stroke-opacity:1; 
stroke-linecap:round; stroke-linejoin:round;">
</g>
<g style="fill:#000000; fill-opacity:0.0; 
stroke:#000000; stroke-width:59.0551; stroke-opacity:1; 
stroke-linecap:round; stroke-linejoin:round;">
<path d="M73175 4221
L73175 4562
" />
<path d="M73053 4026
L72932 4391
L73248 4391
" />
</g>
<g style="fill:#000000; fill-opacity:0.0; 
stroke:#000000; stroke-width:39.3701; stroke-opacity:1; 
stroke-linecap:round; stroke-linejoin:round;">
</g>
<g style="fill:#000000; fill-opacity:0.0; 
stroke:#000000; stroke-width:59.0551; stroke-opacity:1; 
stroke-linecap:round; stroke-linejoin:round;">
<path d="M92885 4050
L92641 4050
L92617 4294
L92641 4269
L92690 4245
L92812 4245
L92860 4269
L92885 4294
L92909 4342
L92909 4464
L92885 4513
L92860 4537
L92812 4562
L92690 4562
L92641 4537
L92617 4513
" />
</g>
<g style="fill:#000000; fill-opacity:0.0; 
stroke:#000000; stroke-width:39.3701; stroke-opacity:1; 
stroke-linecap:round; stroke-linejoin:round;">
</g>
<g style="fill:#000000; fill-opacity:0.0; 
stroke:#000000; stroke-width:59.0551; stroke-opacity:1; 
stroke-linecap:round; stroke-linejoin:round;">
<path d="M112545 4050
L112448 4050
L112399 4074
L112375 4099
L112326 4172
L112302 4269
L112302 4464
L112326 4513
L112350 4537
L112399 4562
L112497 4562
L112545 4537
L112570 4513
L112594 4464
L112594 4342
L112570 4294
L112545 4269
L112497 4245
L112399 4245
L112350 4269
L112326 4294
L112302 4342
" />
</g>
<g style="fill:#000000; fill-opacity:0.0; 
stroke:#000000; stroke-width:39.3701; stroke-opacity:1; 
stroke-linecap:round; stroke-linejoin:round;">
</g>
<g style="fill:#000000; fill-opacity:0.0; 
stroke:#000000; stroke-width:59.0551; stroke-opacity:1; 
stroke-linecap:round; stroke-linejoin:round;">
<path d="M23622 77955
L23622 78742
" />
</g>
<g style="fill:#000000; fill-opacity:0.0; 
stroke:#000000; stroke-width:39.3701; stroke-opacity:1; 
stroke-linecap:round; stroke-linejoin:round;">
</g>
<g style="fill:#000000; fill-opacity:0.0; 
stroke:#000000; stroke-width:59.0551; stroke-opacity:1; 
stroke-linecap:round; stroke-linejoin:round;">
<path d="M43307 77955
L43307 78742
" />
</g>
<g style="fill:#000000; fill-opacity:0.0; 
stroke:#000000; stroke-width:39.3701; stroke-opacity:1; 
stroke-linecap:round; stroke-linejoin:round;">
</g>
<g style="fill:#000000; fill-opacity:0.0; 
stroke:#000000; stroke-width:59.0551; stroke-opacity:1; 
stroke-linecap:round; stroke-linejoin:round;">
<path d="M62992 77955
L62992 78742
" />
</g>
<g style="fill:#000000; fill-opacity:0.0; 
stroke:#000000; stroke-width:39.3701; stroke-opacity:1; 
stroke-linecap:round; stroke-linejoin:round;">
</g>
<g style="fill:#000000; fill-opacity:0.0; 
stroke:#000000; stroke-width:59.0551; stroke-opacity:1; 
stroke-linecap:round; stroke-linejoin:round;">
<path d="M82677 77955
L82677 78742
" />
</g>
<g style="fill:#000000; fill-opacity:0.0; 
stroke:#000000; stroke-width:39.3701; stroke-opacity:1; 
stroke-linecap:round; stroke-linejoin:round;">
</g>
<g style="fill:#000000; fill-opacity:0.0; 
stroke:#000000; stroke-width:59.0551; stroke-opacity:1; 
stroke-linecap:round; stroke-linejoin:round;">
<path d="M102362 77955
L102362 78742
" />
</g>
<g style="fill:#000000; fill-opacity:0.0; 
stroke:#000000; stroke-width:39.3701; stroke-opacity:1; 
stroke-linecap:round; stroke-linejoin:round;">
</g>
<g style="fill:#000000; fill-opacity:0.0; 
stroke:#000000; stroke-width:59.0551; stroke-opacity:1; 
stroke-linecap:round; stroke-linejoin:round;">
<path d="M14169 78580
L13877 78580
" />
<path d="M14023 78580
L14023 78069
L13974 78142
L13925 78190
L13877 78215
" />
</g>
<g style="fill:#000000; fill-opacity:0.0; 
stroke:#000000; stroke-width:39.3701; stroke-opacity:1; 
stroke-linecap:round; stroke-linejoin:round;">
</g>
<g style="fill:#000000; fill-opacity:0.0; 
stroke:#000000; stroke-width:59.0551; stroke-opacity:1; 
stroke-linecap:round; stroke-linejoin:round;">
<path d="M33562 78117
L33586 78093
L33635 78069
L33757 78069
L33805 78093
L33830 78117
L33854 78166
L33854 78215
L33830 78288
L33537 78580
L33854 78580
" />
</g>
<g style="fill:#000000; fill-opacity:0.0; 
stroke:#000000; stroke-width:39.3701; stroke-opacity:1; 
stroke-linecap:round; stroke-linejoin:round;">
</g>
<g style="fill:#000000; fill-opacity:0.0; 
stroke:#000000; stroke-width:59.0551; stroke-opacity:1; 
stroke-linecap:round; stroke-linejoin:round;">
<path d="M53222 78069
L53539 78069
L53368 78263
L53442 78263
L53490 78288
L53515 78312
L53539 78361
L53539 78483
L53515 78532
L53490 78556
L53442 78580
L53295 78580
L53247 78556
L53222 78532
" />
</g>
<g style="fill:#000000; fill-opacity:0.0; 
stroke:#000000; stroke-width:39.3701; stroke-opacity:1; 
stroke-linecap:round; stroke-linejoin:round;">
</g>
<g style="fill:#000000; fill-opacity:0.0; 
stroke:#000000; stroke-width:59.0551; stroke-opacity:1; 
stroke-linecap:round; stroke-linejoin:round;">
<path d="M73175 78239
L73175 78580
" />
<path d="M73053 78044
L72932 78410
L73248 78410
" />
</g>
<g style="fill:#000000; fill-opacity:0.0; 
stroke:#000000; stroke-width:39.3701; stroke-opacity:1; 
stroke-linecap:round; stroke-linejoin:round;">
</g>
<g style="fill:#000000; fill-opacity:0.0; 
stroke:#000000; stroke-width:59.0551; stroke-opacity:1; 
stroke-linecap:round; stroke-linejoin:round;">
<path d="M92885 78069
L92641 78069
L92617 78312
L92641 78288
L92690 78263
L92812 78263
L92860 78288
L92885 78312
L92909 78361
L92909 78483
L92885 78532
L92860 78556
L92812 78580
L92690 78580
L92641 78556
L92617 78532
" />
</g>
<g style="fill:#000000; fill-opacity:0.0; 
stroke:#000000; stroke-width:39.3701; stroke-opacity:1; 
stroke-linecap:round; stroke-linejoin:round;">
</g>
<g style="fill:#000000; fill-opacity:0.0; 
stroke:#000000; stroke-width:59.0551; stroke-opacity:1; 
stroke-linecap:round; stroke-linejoin:round;">
<path d="M112545 78069
L112448 78069
L112399 78093
L112375 78117
L112326 78190
L112302 78288
L112302 78483
L112326 78532
L112350 78556
L112399 78580
L112497 78580
L112545 78556
L112570 78532
L112594 78483
L112594 78361
L112570 78312
L112545 78288
L112497 78263
L112399 78263
L112350 78288
L112326 78312
L112302 78361
" />
</g>
<g style="fill:#000000; fill-opacity:0.0; 
stroke:#000000; stroke-width:39.3701; stroke-opacity:1; 
stroke-linecap:round; stroke-linejoin:round;">
</g>
<g style="fill:#000000; fill-opacity:0.0; 
stroke:#000000; stroke-width:59.0551; stroke-opacity:1; 
stroke-linecap:round; stroke-linejoin:round;">
<path d="M3937 23622
L4724 23622
" />
</g>
<g style="fill:#000000; fill-opacity:0.0; 
stroke:#000000; stroke-width:39.3701; stroke-opacity:1; 
stroke-linecap:round; stroke-linejoin:round;">
</g>
<g style="fill:#000000; fill-opacity:0.0; 
stroke:#000000; stroke-width:59.0551; stroke-opacity:1; 
stroke-linecap:round; stroke-linejoin:round;">
<path d="M3937 43307
L4724 43307
" />
</g>
<g style="fill:#000000; fill-opacity:0.0; 
stroke:#000000; stroke-width:39.3701; stroke-opacity:1; 
stroke-linecap:round; stroke-linejoin:round;">
</g>
<g style="fill:#000000; fill-opacity:0.0; 
stroke:#000000; stroke-width:59.0551; stroke-opacity:1; 
stroke-linecap:round; stroke-linejoin:round;">
<path d="M3937 62992
L4724 62992
" />
</g>
<g style="fill:#000000; fill-opacity:0.0; 
stroke:#000000; stroke-width:39.3701; stroke-opacity:1; 
stroke-linecap:round; stroke-linejoin:round;">
</g>
<g style="fill:#000000; fill-opacity:0.0; 
stroke:#000000; stroke-width:59.0551; stroke-opacity:1; 
stroke-linecap:round; stroke-linejoin:round;">
<path d="M4208 13864
L4452 13864
" />
<path d="M4160 14011
L4330 13499
L4501 14011
" />
</g>
<g style="fill:#000000; fill-opacity:0.0; 
stroke:#000000; stroke-width:39.3701; stroke-opacity:1; 
stroke-linecap:round; stroke-linejoin:round;">
</g>
<g style="fill:#000000; fill-opacity:0.0; 
stroke:#000000; stroke-width:59.0551; stroke-opacity:1; 
stroke-linecap:round; stroke-linejoin:round;">
<path d="M4367 33428
L4440 33452
L4464 33476
L4489 33525
L4489 33598
L4464 33647
L4440 33671
L4391 33696
L4196 33696
L4196 33184
L4367 33184
L4416 33208
L4440 33233
L4464 33281
L4464 33330
L4440 33379
L4416 33403
L4367 33428
L4196 33428
" />
</g>
<g style="fill:#000000; fill-opacity:0.0; 
stroke:#000000; stroke-width:39.3701; stroke-opacity:1; 
stroke-linecap:round; stroke-linejoin:round;">
</g>
<g style="fill:#000000; fill-opacity:0.0; 
stroke:#000000; stroke-width:59.0551; stroke-opacity:1; 
stroke-linecap:round; stroke-linejoin:round;">
<path d="M4489 53332
L4464 53356
L4391 53381
L4342 53381
L4269 53356
L4221 53308
L4196 53259
L4172 53161
L4172 53088
L4196 52991
L4221 52942
L4269 52893
L4342 52869
L4391 52869
L4464 52893
L4489 52918
" />
</g>
<g style="fill:#000000; fill-opacity:0.0; 
stroke:#000000; stroke-width:39.3701; stroke-opacity:1; 
stroke-linecap:round; stroke-linejoin:round;">
</g>
<g style="fill:#000000; fill-opacity:0.0; 
stroke:#000000; stroke-width:59.0551; stroke-opacity:1; 
stroke-linecap:round; stroke-linejoin:round;">
<path d="M4196 73066
L4196 72554
L4318 72554
L4391 72578
L4440 72627
L4464 72676
L4489 72773
L4489 72846
L4464 72944
L4440 72993
L4391 73041
L4318 73066
L4196 73066
" />
</g>
<g style="fill:#000000; fill-opacity:0.0; 
stroke:#000000; stroke-width:39.3701; stroke-opacity:1; 
stroke-linecap:round; stroke-linejoin:round;">
</g>
<g style="fill:#000000; fill-opacity:0.0; 
stroke:#000000; stroke-width:59.0551; stroke-opacity:1; 
stroke-linecap:round; stroke-linejoin:round;">
<path d="M112992 23622
L112205 23622
" />
</g>
<g style="fill:#000000; fill-opacity:0.0; 
stroke:#000000; stroke-width:39.3701; stroke-opacity:1; 
stroke-linecap:round; stroke-linejoin:round;">
</g>
<g style="fill:#000000; fill-opacity:0.0; 
stroke:#000000; stroke-width:59.0551; stroke-opacity:1; 
stroke-linecap:round; stroke-linejoin:round;">
<path d="M112992 43307
L112205 43307
" />
</g>
<g style="fill:#000000; fill-opacity:0.0; 
stroke:#000000; stroke-width:39.3701; stroke-opacity:1; 
stroke-linecap:round; stroke-linejoin:round;">
</g>
<g style="fill:#000000; fill-opacity:0.0; 
stroke:#000000; stroke-width:59.0551; stroke-opacity:1; 
stroke-linecap:round; stroke-linejoin:round;">
<path d="M112992 62992
L112205 62992
" />
</g>
<g style="fill:#000000; fill-opacity:0.0; 
stroke:#000000; stroke-width:39.3701; stroke-opacity:1; 
stroke-linecap:round; stroke-linejoin:round;">
</g>
<g style="fill:#000000; fill-opacity:0.0; 
stroke:#000000; stroke-width:59.0551; stroke-opacity:1; 
stroke-linecap:round; stroke-linejoin:round;">
<path d="M112477 13864
L112721 13864
" />
<path d="M112428 14011
L112599 13499
L112769 14011
" />
</g>
<g style="fill:#000000; fill-opacity:0.0; 
stroke:#000000; stroke-width:39.3701; stroke-opacity:1; 
stroke-linecap:round; stroke-linejoin:round;">
</g>
<g style="fill:#000000; fill-opacity:0.0; 
stroke:#000000; stroke-width:59.0551; stroke-opacity:1; 
stroke-linecap:round; stroke-linejoin:round;">
<path d="M112635 33428
L112708 33452
L112733 33476
L112757 33525
L112757 33598
L112733 33647
L112708 33671
L112660 33696
L112465 33696
L112465 33184
L112635 33184
L112684 33208
L112708 33233
L112733 33281
L112733 33330
L112708 33379
L112684 33403
L112635 33428
L112465 33428
" />
</g>
<g style="fill:#000000; fill-opacity:0.0; 
stroke:#000000; stroke-width:39.3701; stroke-opacity:1; 
stroke-linecap:round; stroke-linejoin:round;">
</g>
<g style="fill:#000000; fill-opacity:0.0; 
stroke:#000000; stroke-width:59.0551; stroke-opacity:1; 
stroke-linecap:round; stroke-linejoin:round;">
<path d="M112757 53332
L112733 53356
L112660 53381
L112611 53381
L112538 53356
L112489 53308
L112465 53259
L112440 53161
L112440 53088
L112465 52991
L112489 52942
L112538 52893
L112611 52869
L112660 52869
L112733 52893
L112757 52918
" />
</g>
<g style="fill:#000000; fill-opacity:0.0; 
stroke:#000000; stroke-width:39.3701; stroke-opacity:1; 
stroke-linecap:round; stroke-linejoin:round;">
</g>
<g style="fill:#000000; fill-opacity:0.0; 
stroke:#000000; stroke-width:59.0551; stroke-opacity:1; 
stroke-linecap:round; stroke-linejoin:round;">
<path d="M112465 73066
L112465 72554
L112587 72554
L112660 72578
L112708 72627
L112733 72676
L112757 72773
L112757 72846
L112733 72944
L112708 72993
L112660 73041
L112587 73066
L112465 73066
" />
</g>
<g style="fill:#000000; fill-opacity:0.0; 
stroke:#000000; stroke-width:39.3701; stroke-opacity:1; 
stroke-linecap:round; stroke-linejoin:round;">
</g>
<g style="fill:#000000; fill-opacity:0.0; 
stroke:#000000; stroke-width:59.0551; stroke-opacity:1; 
stroke-linecap:round; stroke-linejoin:round;">
<path d="M78881 76293
L78881 75703
L79022 75703
L79106 75731
L79162 75787
L79190 75843
L79219 75956
L79219 76040
L79190 76153
L79162 76209
L79106 76265
L79022 76293
L78881 76293
" />
<path d="M79725 76293
L79725 75984
L79697 75928
L79640 75899
L79528 75899
L79472 75928
" />
<path d="M79725 76265
L79669 76293
L79528 76293
L79472 76265
L79444 76209
L79444 76153
L79472 76096
L79528 76068
L79669 76068
L79725 76040
" />
<path d="M79922 75899
L80147 75899
" />
<path d="M80006 75703
L80006 76209
L80034 76265
L80090 76293
L80147 76293
" />
<path d="M80568 76265
L80512 76293
L80400 76293
L80343 76265
L80315 76209
L80315 75984
L80343 75928
L80400 75899
L80512 75899
L80568 75928
L80597 75984
L80597 76040
L80315 76096
" />
<path d="M80850 76237
L80878 76265
L80850 76293
L80822 76265
L80850 76237
L80850 76293
" />
<path d="M80850 75928
L80878 75956
L80850 75984
L80822 75956
L80850 75928
L80850 75984
" />
</g>
<g style="fill:#000000; fill-opacity:0.0; 
stroke:#000000; stroke-width:39.3701; stroke-opacity:1; 
stroke-linecap:round; stroke-linejoin:round;">
</g>
<g style="fill:#000000; fill-opacity:0.0; 
stroke:#000000; stroke-width:59.0551; stroke-opacity:1; 
stroke-linecap:round; stroke-linejoin:round;">
<path d="M69685 76577
L112205 76577
" />
</g>
<g style="fill:#000000; fill-opacity:0.0; 
stroke:#000000; stroke-width:39.3701; stroke-opacity:1; 
stroke-linecap:round; stroke-linejoin:round;">
</g>
<g style="fill:#000000; fill-opacity:0.0; 
stroke:#000000; stroke-width:59.0551; stroke-opacity:1; 
stroke-linecap:round; stroke-linejoin:round;">
<path d="M70220 77395
L70220 76805
" />
<path d="M70557 77395
L70304 77058
" />
<path d="M70557 76805
L70220 77142
" />
<path d="M70810 77395
L70810 77002
" />
<path d="M70810 76805
L70782 76833
L70810 76861
L70838 76833
L70810 76805
L70810 76861
" />
<path d="M71429 77339
L71401 77367
L71316 77395
L71260 77395
L71176 77367
L71120 77311
L71091 77255
L71063 77142
L71063 77058
L71091 76946
L71120 76889
L71176 76833
L71260 76805
L71316 76805
L71401 76833
L71429 76861
" />
<path d="M71935 77395
L71935 77086
L71907 77030
L71851 77002
L71738 77002
L71682 77030
" />
<path d="M71935 77367
L71879 77395
L71738 77395
L71682 77367
L71654 77311
L71654 77255
L71682 77199
L71738 77171
L71879 77171
L71935 77142
" />
<path d="M72469 77395
L72469 76805
" />
<path d="M72469 77367
L72413 77395
L72301 77395
L72244 77367
L72216 77339
L72188 77283
L72188 77114
L72216 77058
L72244 77030
L72301 77002
L72413 77002
L72469 77030
" />
<path d="M73201 77086
L73397 77086
" />
<path d="M73482 77395
L73201 77395
L73201 76805
L73482 76805
" />
<path d="M73735 77339
L73763 77367
L73735 77395
L73707 77367
L73735 77339
L73735 77395
" />
<path d="M74016 77395
L74016 76805
L74157 76805
L74241 76833
L74297 76889
L74325 76946
L74354 77058
L74354 77142
L74325 77255
L74297 77311
L74241 77367
L74157 77395
L74016 77395
" />
<path d="M74607 77339
L74635 77367
L74607 77395
L74579 77367
L74607 77339
L74607 77395
" />
<path d="M74860 77227
L75141 77227
" />
<path d="M74804 77395
L75000 76805
L75197 77395
" />
<path d="M75394 77339
L75422 77367
L75394 77395
L75366 77367
L75394 77339
L75394 77395
" />
<path d="M76575 77395
L76575 76805
" />
<path d="M76631 77171
L76800 77395
" />
<path d="M76800 77002
L76575 77227
" />
<path d="M77053 77395
L77053 77002
" />
<path d="M77053 76805
L77025 76833
L77053 76861
L77081 76833
L77053 76805
L77053 76861
" />
<path d="M77588 77367
L77531 77395
L77419 77395
L77363 77367
L77334 77339
L77306 77283
L77306 77114
L77334 77058
L77363 77030
L77419 77002
L77531 77002
L77588 77030
" />
<path d="M78094 77395
L78094 77086
L78066 77030
L78009 77002
L77897 77002
L77841 77030
" />
<path d="M78094 77367
L78037 77395
L77897 77395
L77841 77367
L77813 77311
L77813 77255
L77841 77199
L77897 77171
L78037 77171
L78094 77142
" />
<path d="M78628 77395
L78628 76805
" />
<path d="M78628 77367
L78572 77395
L78459 77395
L78403 77367
L78375 77339
L78347 77283
L78347 77114
L78375 77058
L78403 77030
L78459 77002
L78572 77002
L78628 77030
" />
<path d="M79612 77002
L79612 77395
" />
<path d="M79472 76777
L79331 77199
L79697 77199
" />
<path d="M79922 77339
L79950 77367
L79922 77395
L79894 77367
L79922 77339
L79922 77395
" />
<path d="M80315 76805
L80372 76805
L80428 76833
L80456 76861
L80484 76917
L80512 77030
L80512 77171
L80484 77283
L80456 77339
L80428 77367
L80372 77395
L80315 77395
L80259 77367
L80231 77339
L80203 77283
L80175 77171
L80175 77030
L80203 76917
L80231 76861
L80259 76833
L80315 76805
" />
<path d="M80765 77339
L80793 77367
L80765 77395
L80737 77367
L80765 77339
L80765 77395
" />
<path d="M81356 77395
L81018 77395
" />
<path d="M81187 77395
L81187 76805
L81131 76889
L81075 76946
L81018 76974
" />
<path d="M81609 77171
L82059 77171
" />
<path d="M82312 77367
L82368 77395
L82481 77395
L82537 77367
L82565 77311
L82565 77283
L82537 77227
L82481 77199
L82396 77199
L82340 77171
L82312 77114
L82312 77086
L82340 77030
L82396 77002
L82481 77002
L82537 77030
" />
<path d="M82734 77002
L82959 77002
" />
<path d="M82818 76805
L82818 77311
L82846 77367
L82903 77395
L82959 77395
" />
<path d="M83409 77395
L83409 77086
L83381 77030
L83324 77002
L83212 77002
L83156 77030
" />
<path d="M83409 77367
L83352 77395
L83212 77395
L83156 77367
L83127 77311
L83127 77255
L83156 77199
L83212 77171
L83352 77171
L83409 77142
" />
<path d="M83690 77395
L83690 76805
" />
<path d="M83690 77030
L83746 77002
L83859 77002
L83915 77030
L83943 77058
L83971 77114
L83971 77283
L83943 77339
L83915 77367
L83859 77395
L83746 77395
L83690 77367
" />
<path d="M84309 77395
L84252 77367
L84224 77311
L84224 76805
" />
<path d="M84759 77367
L84702 77395
L84590 77395
L84534 77367
L84505 77311
L84505 77086
L84534 77030
L84590 77002
L84702 77002
L84759 77030
L84787 77086
L84787 77142
L84505 77199
" />
</g>
<g style="fill:#000000; fill-opacity:0.0; 
stroke:#000000; stroke-width:39.3701; stroke-opacity:1; 
stroke-linecap:round; stroke-linejoin:round;">
</g>
<g style="fill:#000000; fill-opacity:0.0; 
stroke:#000000; stroke-width:59.0551; stroke-opacity:1; 
stroke-linecap:round; stroke-linejoin:round;">
<path d="M69685 75396
L112205 75396
" />
</g>
<g style="fill:#000000; fill-opacity:0.0; 
stroke:#000000; stroke-width:39.3701; stroke-opacity:1; 
stroke-linecap:round; stroke-linejoin:round;">
</g>
<g style="fill:#000000; fill-opacity:0.0; 
stroke:#000000; stroke-width:118.11; stroke-opacity:1; 
stroke-linecap:round; stroke-linejoin:round;">
<path d="M104022 76293
L103825 76012
" />
<path d="M103684 76293
L103684 75703
L103909 75703
L103965 75731
L103994 75759
L104022 75815
L104022 75899
L103994 75956
L103965 75984
L103909 76012
L103684 76012
" />
<path d="M104500 76265
L104444 76293
L104331 76293
L104275 76265
L104247 76209
L104247 75984
L104275 75928
L104331 75899
L104444 75899
L104500 75928
L104528 75984
L104528 76040
L104247 76096
" />
<path d="M104725 75899
L104865 76293
L105006 75899
" />
<path d="M105231 76237
L105259 76265
L105231 76293
L105203 76265
L105231 76237
L105231 76293
" />
<path d="M105231 75928
L105259 75956
L105231 75984
L105203 75956
L105231 75928
L105231 75984
" />
</g>
<g style="fill:#000000; fill-opacity:0.0; 
stroke:#000000; stroke-width:39.3701; stroke-opacity:1; 
stroke-linecap:round; stroke-linejoin:round;">
</g>
<g style="fill:#000000; fill-opacity:0.0; 
stroke:#000000; stroke-width:59.0551; stroke-opacity:1; 
stroke-linecap:round; stroke-linejoin:round;">
<path d="M70192 76265
L70276 76293
L70417 76293
L70473 76265
L70501 76237
L70529 76181
L70529 76124
L70501 76068
L70473 76040
L70417 76012
L70304 75984
L70248 75956
L70220 75928
L70192 75871
L70192 75815
L70220 75759
L70248 75731
L70304 75703
L70445 75703
L70529 75731
" />
<path d="M70782 76293
L70782 75899
" />
<path d="M70782 75703
L70754 75731
L70782 75759
L70810 75731
L70782 75703
L70782 75759
" />
<path d="M71007 75899
L71316 75899
L71007 76293
L71316 76293
" />
<path d="M71766 76265
L71710 76293
L71598 76293
L71541 76265
L71513 76209
L71513 75984
L71541 75928
L71598 75899
L71710 75899
L71766 75928
L71795 75984
L71795 76040
L71513 76096
" />
<path d="M72048 76237
L72076 76265
L72048 76293
L72019 76265
L72048 76237
L72048 76293
" />
<path d="M72048 75928
L72076 75956
L72048 75984
L72019 75956
L72048 75928
L72048 75984
" />
<path d="M72751 76124
L73032 76124
" />
<path d="M72694 76293
L72891 75703
L73088 76293
" />
<path d="M73538 75899
L73538 76293
" />
<path d="M73397 75674
L73257 76096
L73622 76096
" />
</g>
<g style="fill:#000000; fill-opacity:0.0; 
stroke:#000000; stroke-width:39.3701; stroke-opacity:1; 
stroke-linecap:round; stroke-linejoin:round;">
</g>
<g style="fill:#000000; fill-opacity:0.0; 
stroke:#000000; stroke-width:59.0551; stroke-opacity:1; 
stroke-linecap:round; stroke-linejoin:round;">
<path d="M103684 77395
L103684 76805
" />
<path d="M104219 77395
L104219 76805
" />
<path d="M104219 77367
L104162 77395
L104050 77395
L103994 77367
L103965 77339
L103937 77283
L103937 77114
L103965 77058
L103994 77030
L104050 77002
L104162 77002
L104219 77030
" />
<path d="M104500 77339
L104528 77367
L104500 77395
L104472 77367
L104500 77339
L104500 77395
" />
<path d="M104500 77030
L104528 77058
L104500 77086
L104472 77058
L104500 77030
L104500 77086
" />
<path d="M105540 77395
L105203 77395
" />
<path d="M105372 77395
L105372 76805
L105315 76889
L105259 76946
L105203 76974
" />
<path d="M106215 76777
L105709 77536
" />
<path d="M106721 77395
L106384 77395
" />
<path d="M106553 77395
L106553 76805
L106496 76889
L106440 76946
L106384 76974
" />
</g>
<g style="fill:#000000; fill-opacity:0.0; 
stroke:#000000; stroke-width:39.3701; stroke-opacity:1; 
stroke-linecap:round; stroke-linejoin:round;">
</g>
<g style="fill:#000000; fill-opacity:0.0; 
stroke:#000000; stroke-width:59.0551; stroke-opacity:1; 
stroke-linecap:round; stroke-linejoin:round;">
<path d="M69685 73821
L112205 73821
" />
</g>
<g style="fill:#000000; fill-opacity:0.0; 
stroke:#000000; stroke-width:39.3701; stroke-opacity:1; 
stroke-linecap:round; stroke-linejoin:round;">
</g>
<g style="fill:#000000; fill-opacity:0.0; 
stroke:#000000; stroke-width:157.48; stroke-opacity:1; 
stroke-linecap:round; stroke-linejoin:round;">
<path d="M70257 74099
L70707 74099
" />
<path d="M70384 74886
L70482 74099
" />
<path d="M70871 74886
L70937 74361
" />
<path d="M70970 74099
L70927 74136
L70960 74174
L71002 74136
L70970 74099
L70960 74174
" />
<path d="M71199 74361
L71499 74361
" />
<path d="M71345 74099
L71260 74774
L71288 74849
L71359 74886
L71434 74886
" />
<path d="M71809 74886
L71738 74849
L71710 74774
L71795 74099
" />
<path d="M72413 74849
L72334 74886
L72184 74886
L72113 74849
L72085 74774
L72123 74474
L72169 74399
L72249 74361
L72399 74361
L72469 74399
L72498 74474
L72488 74549
L72104 74624
" />
<path d="M72793 74811
L72826 74849
L72783 74886
L72751 74849
L72793 74811
L72783 74886
" />
<path d="M72844 74399
L72877 74436
L72835 74474
L72802 74436
L72844 74399
L72835 74474
" />
</g>
<g style="fill:#000000; fill-opacity:0.0; 
stroke:#000000; stroke-width:39.3701; stroke-opacity:1; 
stroke-linecap:round; stroke-linejoin:round;">
</g>
<g style="fill:#000000; fill-opacity:0.0; 
stroke:#000000; stroke-width:59.0551; stroke-opacity:1; 
stroke-linecap:round; stroke-linejoin:round;">
<path d="M70417 73070
L70220 73070
" />
<path d="M70220 73380
L70220 72789
L70501 72789
" />
<path d="M70726 73380
L70726 72986
" />
<path d="M70726 72789
L70698 72817
L70726 72845
L70754 72817
L70726 72789
L70726 72845
" />
<path d="M71091 73380
L71035 73352
L71007 73295
L71007 72789
" />
<path d="M71541 73352
L71485 73380
L71373 73380
L71316 73352
L71288 73295
L71288 73070
L71316 73014
L71373 72986
L71485 72986
L71541 73014
L71570 73070
L71570 73127
L71288 73183
" />
<path d="M71823 73323
L71851 73352
L71823 73380
L71795 73352
L71823 73323
L71823 73380
" />
<path d="M71823 73014
L71851 73042
L71823 73070
L71795 73042
L71823 73014
L71823 73070
" />
<path d="M72554 73380
L72554 72789
" />
<path d="M72807 73380
L72807 73070
L72779 73014
L72723 72986
L72638 72986
L72582 73014
L72554 73042
" />
<path d="M73032 72986
L73172 73380
L73313 72986
" />
<path d="M73538 73155
L73988 73155
" />
<path d="M74522 73380
L74522 72789
" />
<path d="M74522 73352
L74466 73380
L74354 73380
L74297 73352
L74269 73323
L74241 73267
L74241 73099
L74269 73042
L74297 73014
L74354 72986
L74466 72986
L74522 73014
" />
<path d="M74804 73380
L74804 72986
" />
<path d="M74804 73099
L74832 73042
L74860 73014
L74916 72986
L74972 72986
" />
<path d="M75169 73380
L75169 72986
" />
<path d="M75169 72789
L75141 72817
L75169 72845
L75197 72817
L75169 72789
L75169 72845
" />
<path d="M75394 72986
L75535 73380
L75675 72986
" />
<path d="M76125 73352
L76069 73380
L75956 73380
L75900 73352
L75872 73295
L75872 73070
L75900 73014
L75956 72986
L76069 72986
L76125 73014
L76153 73070
L76153 73127
L75872 73183
" />
<path d="M76406 73380
L76406 72986
" />
<path d="M76406 73099
L76435 73042
L76463 73014
L76519 72986
L76575 72986
" />
<path d="M76772 73155
L77222 73155
" />
<path d="M77503 72986
L77503 73577
" />
<path d="M77503 73014
L77559 72986
L77672 72986
L77728 73014
L77756 73042
L77784 73099
L77784 73267
L77756 73323
L77728 73352
L77672 73380
L77559 73380
L77503 73352
" />
<path d="M78291 72986
L78291 73380
" />
<path d="M78037 72986
L78037 73295
L78066 73352
L78122 73380
L78206 73380
L78262 73352
L78291 73323
" />
<path d="M78544 73352
L78600 73380
L78712 73380
L78769 73352
L78797 73295
L78797 73267
L78769 73211
L78712 73183
L78628 73183
L78572 73155
L78544 73099
L78544 73070
L78572 73014
L78628 72986
L78712 72986
L78769 73014
" />
<path d="M79050 73380
L79050 72789
" />
<path d="M79303 73380
L79303 73070
L79275 73014
L79219 72986
L79134 72986
L79078 73014
L79050 73042
" />
<path d="M79584 73155
L80034 73155
" />
<path d="M80315 72986
L80315 73577
" />
<path d="M80315 73014
L80372 72986
L80484 72986
L80540 73014
L80568 73042
L80597 73099
L80597 73267
L80568 73323
L80540 73352
L80484 73380
L80372 73380
L80315 73352
" />
<path d="M81103 72986
L81103 73380
" />
<path d="M80850 72986
L80850 73295
L80878 73352
L80934 73380
L81018 73380
L81075 73352
L81103 73323
" />
<path d="M81468 73380
L81412 73352
L81384 73295
L81384 72789
" />
<path d="M81778 73380
L81721 73352
L81693 73295
L81693 72789
" />
<path d="M82003 73155
L82453 73155
" />
<path d="M82734 72986
L82734 73380
" />
<path d="M82734 73042
L82762 73014
L82818 72986
L82903 72986
L82959 73014
L82987 73070
L82987 73380
" />
<path d="M83268 73155
L83718 73155
" />
<path d="M84252 73352
L84196 73380
L84084 73380
L84027 73352
L83999 73323
L83971 73267
L83971 73099
L83999 73042
L84027 73014
L84084 72986
L84196 72986
L84252 73014
" />
<path d="M84505 73380
L84505 72789
" />
<path d="M84759 73380
L84759 73070
L84730 73014
L84674 72986
L84590 72986
L84534 73014
L84505 73042
" />
<path d="M85293 73380
L85293 73070
L85265 73014
L85208 72986
L85096 72986
L85040 73014
" />
<path d="M85293 73352
L85237 73380
L85096 73380
L85040 73352
L85012 73295
L85012 73239
L85040 73183
L85096 73155
L85237 73155
L85293 73127
" />
<path d="M85574 72986
L85574 73380
" />
<path d="M85574 73042
L85602 73014
L85658 72986
L85743 72986
L85799 73014
L85827 73070
L85827 73380
" />
<path d="M86108 72986
L86108 73380
" />
<path d="M86108 73042
L86136 73014
L86193 72986
L86277 72986
L86333 73014
L86361 73070
L86361 73380
" />
<path d="M86868 73352
L86811 73380
L86699 73380
L86643 73352
L86615 73295
L86615 73070
L86643 73014
L86699 72986
L86811 72986
L86868 73014
L86896 73070
L86896 73127
L86615 73183
" />
<path d="M87233 73380
L87177 73352
L87149 73295
L87149 72789
" />
<path d="M87458 73323
L87486 73352
L87458 73380
L87430 73352
L87458 73323
L87458 73380
" />
<path d="M87739 73380
L87739 72789
" />
<path d="M87796 73155
L87964 73380
" />
<path d="M87964 72986
L87739 73211
" />
<path d="M88217 73380
L88217 72986
" />
<path d="M88217 72789
L88189 72817
L88217 72845
L88246 72817
L88217 72789
L88217 72845
" />
<path d="M88752 73352
L88696 73380
L88583 73380
L88527 73352
L88499 73323
L88471 73267
L88471 73099
L88499 73042
L88527 73014
L88583 72986
L88696 72986
L88752 73014
" />
<path d="M89258 73380
L89258 73070
L89230 73014
L89174 72986
L89061 72986
L89005 73014
" />
<path d="M89258 73352
L89202 73380
L89061 73380
L89005 73352
L88977 73295
L88977 73239
L89005 73183
L89061 73155
L89202 73155
L89258 73127
" />
<path d="M89792 73380
L89792 72789
" />
<path d="M89792 73352
L89736 73380
L89624 73380
L89567 73352
L89539 73323
L89511 73267
L89511 73099
L89539 73042
L89567 73014
L89624 72986
L89736 72986
L89792 73014
" />
<path d="M89933 73436
L90383 73436
" />
<path d="M90523 72986
L90523 73577
" />
<path d="M90523 73014
L90580 72986
L90692 72986
L90748 73014
L90777 73042
L90805 73099
L90805 73267
L90777 73323
L90748 73352
L90692 73380
L90580 73380
L90523 73352
" />
<path d="M91311 73352
L91255 73380
L91142 73380
L91086 73352
L91058 73323
L91030 73267
L91030 73099
L91058 73042
L91086 73014
L91142 72986
L91255 72986
L91311 73014
" />
<path d="M91564 73380
L91564 72789
" />
<path d="M91564 73014
L91620 72986
L91733 72986
L91789 73014
L91817 73042
L91845 73099
L91845 73267
L91817 73323
L91789 73352
L91733 73380
L91620 73380
L91564 73352
" />
</g>
<g style="fill:#000000; fill-opacity:0.0; 
stroke:#000000; stroke-width:39.3701; stroke-opacity:1; 
stroke-linecap:round; stroke-linejoin:round;">
</g>
<g style="fill:#000000; fill-opacity:0.0; 
stroke:#000000; stroke-width:59.0551; stroke-opacity:1; 
stroke-linecap:round; stroke-linejoin:round;">
<path d="M69685 71459
L112205 71459
" />
</g>
<g style="fill:#000000; fill-opacity:0.0; 
stroke:#000000; stroke-width:39.3701; stroke-opacity:1; 
stroke-linecap:round; stroke-linejoin:round;">
</g>
<g style="fill:#000000; fill-opacity:0.0; 
stroke:#000000; stroke-width:59.0551; stroke-opacity:1; 
stroke-linecap:round; stroke-linejoin:round;">
<path d="M70192 72289
L70276 72317
L70417 72317
L70473 72289
L70501 72260
L70529 72204
L70529 72148
L70501 72092
L70473 72064
L70417 72036
L70304 72007
L70248 71979
L70220 71951
L70192 71895
L70192 71839
L70220 71782
L70248 71754
L70304 71726
L70445 71726
L70529 71754
" />
<path d="M70782 72317
L70782 71726
" />
<path d="M71035 72317
L71035 72007
L71007 71951
L70951 71923
L70867 71923
L70810 71951
L70782 71979
" />
<path d="M71541 72289
L71485 72317
L71373 72317
L71316 72289
L71288 72232
L71288 72007
L71316 71951
L71373 71923
L71485 71923
L71541 71951
L71570 72007
L71570 72064
L71288 72120
" />
<path d="M72048 72289
L71991 72317
L71879 72317
L71823 72289
L71795 72232
L71795 72007
L71823 71951
L71879 71923
L71991 71923
L72048 71951
L72076 72007
L72076 72064
L71795 72120
" />
<path d="M72244 71923
L72469 71923
" />
<path d="M72329 71726
L72329 72232
L72357 72289
L72413 72317
L72469 72317
" />
<path d="M72666 72260
L72694 72289
L72666 72317
L72638 72289
L72666 72260
L72666 72317
" />
<path d="M72666 71951
L72694 71979
L72666 72007
L72638 71979
L72666 71951
L72666 72007
" />
</g>
<g style="fill:#000000; fill-opacity:0.0; 
stroke:#000000; stroke-width:39.3701; stroke-opacity:1; 
stroke-linecap:round; stroke-linejoin:round;">
</g>
<g style="fill:#000000; fill-opacity:0.0; 
stroke:#000000; stroke-width:59.0551; stroke-opacity:1; 
stroke-linecap:round; stroke-linejoin:round;">
<path d="M77559 75396
L77559 76577
" />
</g>
<g style="fill:#000000; fill-opacity:0.0; 
stroke:#000000; stroke-width:39.3701; stroke-opacity:1; 
stroke-linecap:round; stroke-linejoin:round;">
</g>
<g style="fill:#000000; fill-opacity:0.0; 
stroke:#000000; stroke-width:59.0551; stroke-opacity:1; 
stroke-linecap:round; stroke-linejoin:round;">
<path d="M102756 75396
L102756 77955
" />
<path d="M49150 46750
L49150 38950
" />
<path d="M60250 46750
L60250 38950
" />
<path d="M49150 46750
L60250 46750
" />
<path d="M49150 38950
L60250 38950
" />
<path d="M55284 41996
L55284 41959
L55303 41921
L55321 41903
L55359 41884
L55434 41865
L55528 41865
L55603 41884
L55640 41903
L55659 41921
L55678 41959
L55678 41996
L55659 42034
L55640 42053
L55603 42071
L55528 42090
L55434 42090
L55359 42071
L55321 42053
L55303 42034
L55284 41996
" />
<path d="M55640 41696
L55659 41678
L55678 41696
L55659 41715
L55640 41696
L55678 41696
" />
<path d="M55678 41303
L55678 41528
" />
<path d="M55678 41415
L55284 41415
L55340 41453
L55378 41490
L55396 41528
" />
<path d="M55415 40965
L55678 40965
" />
<path d="M55415 41134
L55621 41134
L55659 41115
L55678 41078
L55678 41021
L55659 40984
L55640 40965
" />
<path d="M55471 40646
L55471 40778
" />
<path d="M55678 40778
L55284 40778
L55284 40590
" />
<path d="M52728 44256
L52334 44256
L52728 44031
L52334 44031
" />
<path d="M52690 43618
L52709 43637
L52728 43693
L52728 43731
L52709 43787
L52671 43824
L52634 43843
L52559 43862
L52503 43862
L52428 43843
L52390 43824
L52353 43787
L52334 43731
L52334 43693
L52353 43637
L52371 43618
" />
<path d="M52728 43449
L52334 43449
L52334 43299
L52353 43262
L52371 43243
L52409 43224
L52465 43224
L52503 43243
L52521 43262
L52540 43299
L52540 43449
" />
<path d="M52334 42868
L52334 43056
L52521 43074
L52503 43056
L52484 43018
L52484 42925
L52503 42887
L52521 42868
L52559 42850
L52653 42850
L52690 42868
L52709 42887
L52728 42925
L52728 43018
L52709 43056
L52690 43074
" />
<path d="M52334 42718
L52334 42475
L52484 42606
L52484 42550
L52503 42512
L52521 42493
L52559 42475
L52653 42475
L52690 42493
L52709 42512
L52728 42550
L52728 42662
L52709 42700
L52690 42718
" />
<path d="M52334 42231
L52334 42193
L52353 42156
L52371 42137
L52409 42118
L52484 42100
L52578 42100
L52653 42118
L52690 42137
L52709 42156
L52728 42193
L52728 42231
L52709 42268
L52690 42287
L52653 42306
L52578 42325
L52484 42325
L52409 42306
L52371 42287
L52353 42268
L52334 42231
" />
<path d="M52465 41762
L52728 41762
" />
<path d="M52315 41856
L52596 41950
L52596 41706
" />
<path d="M55728 43574
L55728 43799
" />
<path d="M55728 43687
L55334 43687
L55390 43724
L55428 43762
L55446 43799
" />
<path d="M55334 43331
L55334 43293
L55353 43256
L55371 43237
L55409 43218
L55484 43200
L55578 43200
L55653 43218
L55690 43237
L55709 43256
L55728 43293
L55728 43331
L55709 43368
L55690 43387
L55653 43406
L55578 43425
L55484 43425
L55409 43406
L55371 43387
L55353 43368
L55334 43331
" />
<path d="M49540 43484
L49559 43502
L49578 43559
L49578 43596
L49559 43652
L49521 43690
L49484 43709
L49409 43727
L49353 43727
L49278 43709
L49240 43690
L49203 43652
L49184 43596
L49184 43559
L49203 43502
L49221 43484
" />
<path d="M49184 43240
L49184 43165
L49203 43127
L49240 43090
L49315 43071
L49446 43071
L49521 43090
L49559 43127
L49578 43165
L49578 43240
L49559 43277
L49521 43315
L49446 43334
L49315 43334
L49240 43315
L49203 43277
L49184 43240
" />
<path d="M49578 42902
L49184 42902
L49578 42678
L49184 42678
" />
<path d="M49578 42490
L49184 42490
L49578 42265
L49184 42265
" />
<path d="M49615 42171
L49615 41871
" />
<path d="M49184 41703
L49184 41665
L49203 41628
L49221 41609
L49259 41590
L49334 41571
L49428 41571
L49503 41590
L49540 41609
L49559 41628
L49578 41665
L49578 41703
L49559 41740
L49540 41759
L49503 41778
L49428 41796
L49334 41796
L49259 41778
L49221 41759
L49203 41740
L49184 41703
" />
<path d="M49578 41196
L49578 41421
" />
<path d="M49578 41309
L49184 41309
L49240 41346
L49278 41384
L49296 41421
" />
<path d="M49184 41065
L49578 40803
" />
<path d="M49184 40803
L49578 41065
" />
<path d="M49184 40578
L49184 40540
L49203 40503
L49221 40484
L49259 40465
L49334 40447
L49428 40447
L49503 40465
L49540 40484
L49559 40503
L49578 40540
L49578 40578
L49559 40615
L49540 40634
L49503 40653
L49428 40672
L49334 40672
L49259 40653
L49221 40634
L49203 40615
L49184 40578
" />
<path d="M49315 40109
L49578 40109
" />
<path d="M49165 40203
L49446 40297
L49446 40053
" />
<path d="M59240 42734
L59259 42752
L59278 42809
L59278 42846
L59259 42902
L59221 42940
L59184 42959
L59109 42977
L59053 42977
L58978 42959
L58940 42940
L58903 42902
L58884 42846
L58884 42809
L58903 42752
L58921 42734
" />
<path d="M58884 42490
L58884 42415
L58903 42377
L58940 42340
L59015 42321
L59146 42321
L59221 42340
L59259 42377
L59278 42415
L59278 42490
L59259 42527
L59221 42565
L59146 42584
L59015 42584
L58940 42565
L58903 42527
L58884 42490
" />
<path d="M59278 42152
L58884 42152
L59278 41928
L58884 41928
" />
<path d="M59278 41740
L58884 41740
L59278 41515
L58884 41515
" />
<path d="M59315 41421
L59315 41121
" />
<path d="M58884 40953
L58884 40915
L58903 40878
L58921 40859
L58959 40840
L59034 40821
L59128 40821
L59203 40840
L59240 40859
L59259 40878
L59278 40915
L59278 40953
L59259 40990
L59240 41009
L59203 41028
L59128 41046
L59034 41046
L58959 41028
L58921 41009
L58903 40990
L58884 40953
" />
<path d="M59278 40446
L59278 40671
" />
<path d="M59278 40559
L58884 40559
L58940 40596
L58978 40634
L58996 40671
" />
<path d="M58884 40315
L59278 40053
" />
<path d="M58884 40053
L59278 40315
" />
<path d="M58884 39828
L58884 39790
L58903 39753
L58921 39734
L58959 39715
L59034 39697
L59128 39697
L59203 39715
L59240 39734
L59259 39753
L59278 39790
L59278 39828
L59259 39865
L59240 39884
L59203 39903
L59128 39922
L59034 39922
L58959 39903
L58921 39884
L58903 39865
L58884 39828
" />
<path d="M58884 39565
L58884 39322
L59034 39453
L59034 39397
L59053 39359
L59071 39340
L59109 39322
L59203 39322
L59240 39340
L59259 39359
L59278 39397
L59278 39509
L59259 39547
L59240 39565
" />
<path d="M59190 43578
L59209 43596
L59228 43653
L59228 43690
L59209 43746
L59171 43784
L59134 43803
L59059 43821
L59003 43821
L58928 43803
L58890 43784
L58853 43746
L58834 43690
L58834 43653
L58853 43596
L58871 43578
" />
<path d="M59471 45428
L59340 45240
" />
<path d="M59246 45428
L59246 45034
L59396 45034
L59434 45053
L59453 45071
L59471 45109
L59471 45165
L59453 45203
L59434 45221
L59396 45240
L59246 45240
" />
<path d="M57521 41165
L57521 41296
" />
<path d="M57728 41296
L57334 41296
L57334 41109
" />
<path d="M57334 40959
L57653 40959
L57690 40940
L57709 40921
L57728 40884
L57728 40809
L57709 40771
L57690 40753
L57653 40734
L57334 40734
" />
<path d="M57709 40565
L57728 40509
L57728 40415
L57709 40378
L57690 40359
L57653 40340
L57615 40340
L57578 40359
L57559 40378
L57540 40415
L57521 40490
L57503 40528
L57484 40546
L57446 40565
L57409 40565
L57371 40546
L57353 40528
L57334 40490
L57334 40396
L57353 40340
" />
<path d="M57521 40171
L57521 40040
" />
<path d="M57728 39984
L57728 40171
L57334 40171
L57334 39984
" />
<path d="M51953 41134
L51990 41134
L52028 41153
L52046 41171
L52065 41209
L52084 41284
L52084 41378
L52065 41453
L52046 41490
L52028 41509
L51990 41528
L51953 41528
L51915 41509
L51896 41490
L51878 41453
L51859 41378
L51859 41284
L51878 41209
L51896 41171
L51915 41153
L51953 41134
" />
<path d="M52253 41490
L52271 41509
L52253 41528
L52234 41509
L52253 41490
L52253 41528
" />
<path d="M52646 41528
L52421 41528
" />
<path d="M52534 41528
L52534 41134
L52496 41190
L52459 41228
L52421 41246
" />
<path d="M52984 41265
L52984 41528
" />
<path d="M52815 41265
L52815 41471
L52834 41509
L52871 41528
L52928 41528
L52965 41509
L52984 41490
" />
<path d="M53303 41321
L53171 41321
" />
<path d="M53171 41528
L53171 41134
L53359 41134
" />
<path d="M52896 40178
L52896 39784
L52990 39784
L53046 39803
L53084 39840
L53103 39878
L53121 39953
L53121 40009
L53103 40084
L53084 40121
L53046 40159
L52990 40178
L52896 40178
" />
<path d="M50746 45028
L50746 44634
L50840 44634
L50896 44653
L50934 44690
L50953 44728
L50971 44803
L50971 44859
L50953 44934
L50934 44971
L50896 45009
L50840 45028
L50746 45028
" />
<path d="M55865 46006
L55846 46043
L55809 46081
L55753 46137
L55734 46174
L55734 46212
" />
<path d="M55828 46193
L55809 46231
L55771 46268
L55696 46287
L55565 46287
L55490 46268
L55453 46231
L55434 46193
L55434 46118
L55453 46081
L55490 46043
L55565 46024
L55696 46024
L55771 46043
L55809 46081
L55828 46118
L55828 46193
" />
<path d="M55865 45949
L55865 45649
" />
<path d="M55828 45556
L55434 45556
L55828 45331
L55434 45331
" />
<path d="M55828 45143
L55434 45143
L55715 45012
L55434 44881
L55828 44881
" />
<path d="M55434 44618
L55434 44543
L55453 44506
L55490 44468
L55565 44450
L55696 44450
L55771 44468
L55809 44506
L55828 44543
L55828 44618
L55809 44656
L55771 44693
L55696 44712
L55565 44712
L55490 44693
L55453 44656
L55434 44618
" />
<path d="M55809 44300
L55828 44243
L55828 44150
L55809 44112
L55790 44093
L55753 44075
L55715 44075
L55678 44093
L55659 44112
L55640 44150
L55621 44225
L55603 44262
L55584 44281
L55546 44300
L55509 44300
L55471 44281
L55453 44262
L55434 44225
L55434 44131
L55453 44075
" />
<path d="M55865 44000
L55865 43700
" />
<path d="M55453 43400
L55434 43437
L55434 43493
L55453 43550
L55490 43587
L55528 43606
L55603 43625
L55659 43625
L55734 43606
L55771 43587
L55809 43550
L55828 43493
L55828 43456
L55809 43400
L55790 43381
L55659 43381
L55659 43456
" />
<path d="M55828 43212
L55434 43212
L55434 43118
L55453 43062
L55490 43025
L55528 43006
L55603 42987
L55659 42987
L55734 43006
L55771 43025
L55809 43062
L55828 43118
L55828 43212
" />
<path d="M55809 42837
L55828 42781
L55828 42687
L55809 42650
L55790 42631
L55753 42612
L55715 42612
L55678 42631
L55659 42650
L55640 42687
L55621 42762
L55603 42800
L55584 42818
L55546 42837
L55509 42837
L55471 42818
L55453 42800
L55434 42762
L55434 42668
L55453 42612
" />
<path d="M52793 45215
L52756 45196
L52718 45159
L52662 45103
L52625 45084
L52587 45084
" />
<path d="M52606 45178
L52568 45159
L52531 45121
L52512 45046
L52512 44915
L52531 44840
L52568 44803
L52606 44784
L52681 44784
L52718 44803
L52756 44840
L52775 44915
L52775 45046
L52756 45121
L52718 45159
L52681 45178
L52606 45178
" />
<path d="M52850 45215
L53150 45215
" />
<path d="M53243 45178
L53243 44784
L53468 45178
L53468 44784
" />
<path d="M53656 45178
L53656 44784
L53787 45065
L53918 44784
L53918 45178
" />
<path d="M54181 44784
L54256 44784
L54293 44803
L54331 44840
L54350 44915
L54350 45046
L54331 45121
L54293 45159
L54256 45178
L54181 45178
L54143 45159
L54106 45121
L54087 45046
L54087 44915
L54106 44840
L54143 44803
L54181 44784
" />
<path d="M54499 45159
L54556 45178
L54649 45178
L54687 45159
L54706 45140
L54724 45103
L54724 45065
L54706 45028
L54687 45009
L54649 44990
L54574 44971
L54537 44953
L54518 44934
L54499 44896
L54499 44859
L54518 44821
L54537 44803
L54574 44784
L54668 44784
L54724 44803
" />
<path d="M54799 45215
L55099 45215
" />
<path d="M55399 44803
L55362 44784
L55306 44784
L55249 44803
L55212 44840
L55193 44878
L55174 44953
L55174 45009
L55193 45084
L55212 45121
L55249 45159
L55306 45178
L55343 45178
L55399 45159
L55418 45140
L55418 45009
L55343 45009
" />
<path d="M55587 45178
L55587 44784
L55681 44784
L55737 44803
L55774 44840
L55793 44878
L55812 44953
L55812 45009
L55793 45084
L55774 45121
L55737 45159
L55681 45178
L55587 45178
" />
<path d="M55962 45159
L56018 45178
L56112 45178
L56149 45159
L56168 45140
L56187 45103
L56187 45065
L56168 45028
L56149 45009
L56112 44990
L56037 44971
L55999 44953
L55981 44934
L55962 44896
L55962 44859
L55981 44821
L55999 44803
L56037 44784
L56131 44784
L56187 44803
" />
</g> 
</svg>
