<?xml version="1.0" standalone="no"?>
 <!DOCTYPE svg PUBLIC "-//W3C//DTD SVG 1.1//EN" 
 "http://www.w3.org/Graphics/SVG/1.1/DTD/svg11.dtd"> 
<svg xmlns="http://www.w3.org/2000/svg" version="1.1" 
    width="29.7002cm" height="21.0007cm" viewBox="0 0 116930 82680 ">
<title>SVG Picture created as hv-driver-push-pull-n-channel.svg date 2017/04/04 07:51:30 </title>
  <desc>Picture generated by Eeschema-SVG </desc>
<g style="fill:#000000; fill-opacity:1;stroke:#000000; stroke-opacity:1;
stroke-linecap:round; stroke-linejoin:round; "
 transform="translate(0 0) scale(1 1)">
</g>
<g style="fill:#000000; fill-opacity:0.0; 
stroke:#000000; stroke-width:-10; stroke-opacity:1; 
stroke-linecap:round; stroke-linejoin:round;">
</g>
<g style="fill:#000000; fill-opacity:0.0; 
stroke:#000000; stroke-width:100; stroke-opacity:1; 
stroke-linecap:round; stroke-linejoin:round;">
</g>
<g style="fill:#000000; fill-opacity:0.0; 
stroke:#000000; stroke-width:60; stroke-opacity:1; 
stroke-linecap:round; stroke-linejoin:round;">
<rect x="69690" y="65360" width="42520" height="12600" rx="0" />
</g>
<g style="fill:#000000; fill-opacity:0.0; 
stroke:#000000; stroke-width:100; stroke-opacity:1; 
stroke-linecap:round; stroke-linejoin:round;">
</g>
<g style="fill:#000000; fill-opacity:0.0; 
stroke:#000000; stroke-width:60; stroke-opacity:1; 
stroke-linecap:round; stroke-linejoin:round;">
<rect x="3940" y="3940" width="109050" height="74800" rx="0" />
</g>
<g style="fill:#000000; fill-opacity:0.0; 
stroke:#000000; stroke-width:100; stroke-opacity:1; 
stroke-linecap:round; stroke-linejoin:round;">
</g>
<g style="fill:#000000; fill-opacity:0.0; 
stroke:#000000; stroke-width:60; stroke-opacity:1; 
stroke-linecap:round; stroke-linejoin:round;">
<rect x="4720" y="4720" width="107490" height="73240" rx="0" />
</g>
<g style="fill:#000000; fill-opacity:0.0; 
stroke:#000000; stroke-width:100; stroke-opacity:1; 
stroke-linecap:round; stroke-linejoin:round;">
</g>
<g style="fill:#000000; fill-opacity:0.0; 
stroke:#000000; stroke-width:60; stroke-opacity:1; 
stroke-linecap:round; stroke-linejoin:round;">
<path d="M23620 4720
L23620 3940
" />
</g>
<g style="fill:#000000; fill-opacity:0.0; 
stroke:#000000; stroke-width:100; stroke-opacity:1; 
stroke-linecap:round; stroke-linejoin:round;">
</g>
<g style="fill:#000000; fill-opacity:0.0; 
stroke:#000000; stroke-width:60; stroke-opacity:1; 
stroke-linecap:round; stroke-linejoin:round;">
<path d="M43310 4720
L43310 3940
" />
</g>
<g style="fill:#000000; fill-opacity:0.0; 
stroke:#000000; stroke-width:100; stroke-opacity:1; 
stroke-linecap:round; stroke-linejoin:round;">
</g>
<g style="fill:#000000; fill-opacity:0.0; 
stroke:#000000; stroke-width:60; stroke-opacity:1; 
stroke-linecap:round; stroke-linejoin:round;">
<path d="M62990 4720
L62990 3940
" />
</g>
<g style="fill:#000000; fill-opacity:0.0; 
stroke:#000000; stroke-width:100; stroke-opacity:1; 
stroke-linecap:round; stroke-linejoin:round;">
</g>
<g style="fill:#000000; fill-opacity:0.0; 
stroke:#000000; stroke-width:60; stroke-opacity:1; 
stroke-linecap:round; stroke-linejoin:round;">
<path d="M82680 4720
L82680 3940
" />
</g>
<g style="fill:#000000; fill-opacity:0.0; 
stroke:#000000; stroke-width:100; stroke-opacity:1; 
stroke-linecap:round; stroke-linejoin:round;">
</g>
<g style="fill:#000000; fill-opacity:0.0; 
stroke:#000000; stroke-width:60; stroke-opacity:1; 
stroke-linecap:round; stroke-linejoin:round;">
<path d="M102360 4720
L102360 3940
" />
</g>
<g style="fill:#000000; fill-opacity:0.0; 
stroke:#000000; stroke-width:100; stroke-opacity:1; 
stroke-linecap:round; stroke-linejoin:round;">
</g>
<g style="fill:#000000; fill-opacity:0.0; 
stroke:#000000; stroke-width:60; stroke-opacity:1; 
stroke-linecap:round; stroke-linejoin:round;">
<path d="M14170 4560
L13880 4560
" />
<path d="M14020 4560
L14020 4050
L13970 4120
L13930 4170
L13880 4190
" />
</g>
<g style="fill:#000000; fill-opacity:0.0; 
stroke:#000000; stroke-width:100; stroke-opacity:1; 
stroke-linecap:round; stroke-linejoin:round;">
</g>
<g style="fill:#000000; fill-opacity:0.0; 
stroke:#000000; stroke-width:60; stroke-opacity:1; 
stroke-linecap:round; stroke-linejoin:round;">
<path d="M33560 4090
L33580 4070
L33630 4050
L33750 4050
L33800 4070
L33820 4090
L33850 4140
L33850 4190
L33820 4260
L33530 4560
L33850 4560
" />
</g>
<g style="fill:#000000; fill-opacity:0.0; 
stroke:#000000; stroke-width:100; stroke-opacity:1; 
stroke-linecap:round; stroke-linejoin:round;">
</g>
<g style="fill:#000000; fill-opacity:0.0; 
stroke:#000000; stroke-width:60; stroke-opacity:1; 
stroke-linecap:round; stroke-linejoin:round;">
<path d="M53220 4050
L53540 4050
L53370 4240
L53440 4240
L53490 4260
L53510 4290
L53540 4340
L53540 4460
L53510 4510
L53490 4530
L53440 4560
L53300 4560
L53250 4530
L53220 4510
" />
</g>
<g style="fill:#000000; fill-opacity:0.0; 
stroke:#000000; stroke-width:100; stroke-opacity:1; 
stroke-linecap:round; stroke-linejoin:round;">
</g>
<g style="fill:#000000; fill-opacity:0.0; 
stroke:#000000; stroke-width:60; stroke-opacity:1; 
stroke-linecap:round; stroke-linejoin:round;">
<path d="M73170 4220
L73170 4560
" />
<path d="M73050 4020
L72930 4390
L73240 4390
" />
</g>
<g style="fill:#000000; fill-opacity:0.0; 
stroke:#000000; stroke-width:100; stroke-opacity:1; 
stroke-linecap:round; stroke-linejoin:round;">
</g>
<g style="fill:#000000; fill-opacity:0.0; 
stroke:#000000; stroke-width:60; stroke-opacity:1; 
stroke-linecap:round; stroke-linejoin:round;">
<path d="M92880 4050
L92640 4050
L92620 4290
L92640 4260
L92690 4240
L92810 4240
L92860 4260
L92880 4290
L92910 4340
L92910 4460
L92880 4510
L92860 4530
L92810 4560
L92690 4560
L92640 4530
L92620 4510
" />
</g>
<g style="fill:#000000; fill-opacity:0.0; 
stroke:#000000; stroke-width:100; stroke-opacity:1; 
stroke-linecap:round; stroke-linejoin:round;">
</g>
<g style="fill:#000000; fill-opacity:0.0; 
stroke:#000000; stroke-width:60; stroke-opacity:1; 
stroke-linecap:round; stroke-linejoin:round;">
<path d="M112540 4050
L112440 4050
L112390 4070
L112370 4090
L112320 4170
L112300 4260
L112300 4460
L112320 4510
L112350 4530
L112390 4560
L112490 4560
L112540 4530
L112560 4510
L112590 4460
L112590 4340
L112560 4290
L112540 4260
L112490 4240
L112390 4240
L112350 4260
L112320 4290
L112300 4340
" />
</g>
<g style="fill:#000000; fill-opacity:0.0; 
stroke:#000000; stroke-width:100; stroke-opacity:1; 
stroke-linecap:round; stroke-linejoin:round;">
</g>
<g style="fill:#000000; fill-opacity:0.0; 
stroke:#000000; stroke-width:60; stroke-opacity:1; 
stroke-linecap:round; stroke-linejoin:round;">
<path d="M23620 77960
L23620 78740
" />
</g>
<g style="fill:#000000; fill-opacity:0.0; 
stroke:#000000; stroke-width:100; stroke-opacity:1; 
stroke-linecap:round; stroke-linejoin:round;">
</g>
<g style="fill:#000000; fill-opacity:0.0; 
stroke:#000000; stroke-width:60; stroke-opacity:1; 
stroke-linecap:round; stroke-linejoin:round;">
<path d="M43310 77960
L43310 78740
" />
</g>
<g style="fill:#000000; fill-opacity:0.0; 
stroke:#000000; stroke-width:100; stroke-opacity:1; 
stroke-linecap:round; stroke-linejoin:round;">
</g>
<g style="fill:#000000; fill-opacity:0.0; 
stroke:#000000; stroke-width:60; stroke-opacity:1; 
stroke-linecap:round; stroke-linejoin:round;">
<path d="M62990 77960
L62990 78740
" />
</g>
<g style="fill:#000000; fill-opacity:0.0; 
stroke:#000000; stroke-width:100; stroke-opacity:1; 
stroke-linecap:round; stroke-linejoin:round;">
</g>
<g style="fill:#000000; fill-opacity:0.0; 
stroke:#000000; stroke-width:60; stroke-opacity:1; 
stroke-linecap:round; stroke-linejoin:round;">
<path d="M82680 77960
L82680 78740
" />
</g>
<g style="fill:#000000; fill-opacity:0.0; 
stroke:#000000; stroke-width:100; stroke-opacity:1; 
stroke-linecap:round; stroke-linejoin:round;">
</g>
<g style="fill:#000000; fill-opacity:0.0; 
stroke:#000000; stroke-width:60; stroke-opacity:1; 
stroke-linecap:round; stroke-linejoin:round;">
<path d="M102360 77960
L102360 78740
" />
</g>
<g style="fill:#000000; fill-opacity:0.0; 
stroke:#000000; stroke-width:100; stroke-opacity:1; 
stroke-linecap:round; stroke-linejoin:round;">
</g>
<g style="fill:#000000; fill-opacity:0.0; 
stroke:#000000; stroke-width:60; stroke-opacity:1; 
stroke-linecap:round; stroke-linejoin:round;">
<path d="M14170 78580
L13880 78580
" />
<path d="M14020 78580
L14020 78070
L13970 78140
L13930 78190
L13880 78210
" />
</g>
<g style="fill:#000000; fill-opacity:0.0; 
stroke:#000000; stroke-width:100; stroke-opacity:1; 
stroke-linecap:round; stroke-linejoin:round;">
</g>
<g style="fill:#000000; fill-opacity:0.0; 
stroke:#000000; stroke-width:60; stroke-opacity:1; 
stroke-linecap:round; stroke-linejoin:round;">
<path d="M33560 78110
L33580 78090
L33630 78070
L33750 78070
L33800 78090
L33820 78110
L33850 78160
L33850 78210
L33820 78280
L33530 78580
L33850 78580
" />
</g>
<g style="fill:#000000; fill-opacity:0.0; 
stroke:#000000; stroke-width:100; stroke-opacity:1; 
stroke-linecap:round; stroke-linejoin:round;">
</g>
<g style="fill:#000000; fill-opacity:0.0; 
stroke:#000000; stroke-width:60; stroke-opacity:1; 
stroke-linecap:round; stroke-linejoin:round;">
<path d="M53220 78070
L53540 78070
L53370 78260
L53440 78260
L53490 78280
L53510 78310
L53540 78360
L53540 78480
L53510 78530
L53490 78550
L53440 78580
L53300 78580
L53250 78550
L53220 78530
" />
</g>
<g style="fill:#000000; fill-opacity:0.0; 
stroke:#000000; stroke-width:100; stroke-opacity:1; 
stroke-linecap:round; stroke-linejoin:round;">
</g>
<g style="fill:#000000; fill-opacity:0.0; 
stroke:#000000; stroke-width:60; stroke-opacity:1; 
stroke-linecap:round; stroke-linejoin:round;">
<path d="M73170 78240
L73170 78580
" />
<path d="M73050 78040
L72930 78410
L73240 78410
" />
</g>
<g style="fill:#000000; fill-opacity:0.0; 
stroke:#000000; stroke-width:100; stroke-opacity:1; 
stroke-linecap:round; stroke-linejoin:round;">
</g>
<g style="fill:#000000; fill-opacity:0.0; 
stroke:#000000; stroke-width:60; stroke-opacity:1; 
stroke-linecap:round; stroke-linejoin:round;">
<path d="M92880 78070
L92640 78070
L92620 78310
L92640 78280
L92690 78260
L92810 78260
L92860 78280
L92880 78310
L92910 78360
L92910 78480
L92880 78530
L92860 78550
L92810 78580
L92690 78580
L92640 78550
L92620 78530
" />
</g>
<g style="fill:#000000; fill-opacity:0.0; 
stroke:#000000; stroke-width:100; stroke-opacity:1; 
stroke-linecap:round; stroke-linejoin:round;">
</g>
<g style="fill:#000000; fill-opacity:0.0; 
stroke:#000000; stroke-width:60; stroke-opacity:1; 
stroke-linecap:round; stroke-linejoin:round;">
<path d="M112540 78070
L112440 78070
L112390 78090
L112370 78110
L112320 78190
L112300 78280
L112300 78480
L112320 78530
L112350 78550
L112390 78580
L112490 78580
L112540 78550
L112560 78530
L112590 78480
L112590 78360
L112560 78310
L112540 78280
L112490 78260
L112390 78260
L112350 78280
L112320 78310
L112300 78360
" />
</g>
<g style="fill:#000000; fill-opacity:0.0; 
stroke:#000000; stroke-width:100; stroke-opacity:1; 
stroke-linecap:round; stroke-linejoin:round;">
</g>
<g style="fill:#000000; fill-opacity:0.0; 
stroke:#000000; stroke-width:60; stroke-opacity:1; 
stroke-linecap:round; stroke-linejoin:round;">
<path d="M3940 23620
L4720 23620
" />
</g>
<g style="fill:#000000; fill-opacity:0.0; 
stroke:#000000; stroke-width:100; stroke-opacity:1; 
stroke-linecap:round; stroke-linejoin:round;">
</g>
<g style="fill:#000000; fill-opacity:0.0; 
stroke:#000000; stroke-width:60; stroke-opacity:1; 
stroke-linecap:round; stroke-linejoin:round;">
<path d="M3940 43310
L4720 43310
" />
</g>
<g style="fill:#000000; fill-opacity:0.0; 
stroke:#000000; stroke-width:100; stroke-opacity:1; 
stroke-linecap:round; stroke-linejoin:round;">
</g>
<g style="fill:#000000; fill-opacity:0.0; 
stroke:#000000; stroke-width:60; stroke-opacity:1; 
stroke-linecap:round; stroke-linejoin:round;">
<path d="M3940 62990
L4720 62990
" />
</g>
<g style="fill:#000000; fill-opacity:0.0; 
stroke:#000000; stroke-width:100; stroke-opacity:1; 
stroke-linecap:round; stroke-linejoin:round;">
</g>
<g style="fill:#000000; fill-opacity:0.0; 
stroke:#000000; stroke-width:60; stroke-opacity:1; 
stroke-linecap:round; stroke-linejoin:round;">
<path d="M4210 13860
L4450 13860
" />
<path d="M4160 14010
L4330 13500
L4500 14010
" />
</g>
<g style="fill:#000000; fill-opacity:0.0; 
stroke:#000000; stroke-width:100; stroke-opacity:1; 
stroke-linecap:round; stroke-linejoin:round;">
</g>
<g style="fill:#000000; fill-opacity:0.0; 
stroke:#000000; stroke-width:60; stroke-opacity:1; 
stroke-linecap:round; stroke-linejoin:round;">
<path d="M4370 33420
L4440 33440
L4470 33470
L4490 33520
L4490 33590
L4470 33640
L4440 33660
L4400 33690
L4200 33690
L4200 33180
L4370 33180
L4420 33200
L4440 33220
L4470 33270
L4470 33320
L4440 33370
L4420 33390
L4370 33420
L4200 33420
" />
</g>
<g style="fill:#000000; fill-opacity:0.0; 
stroke:#000000; stroke-width:100; stroke-opacity:1; 
stroke-linecap:round; stroke-linejoin:round;">
</g>
<g style="fill:#000000; fill-opacity:0.0; 
stroke:#000000; stroke-width:60; stroke-opacity:1; 
stroke-linecap:round; stroke-linejoin:round;">
<path d="M4490 53330
L4470 53350
L4400 53380
L4350 53380
L4270 53350
L4230 53300
L4200 53250
L4180 53160
L4180 53080
L4200 52990
L4230 52940
L4270 52890
L4350 52870
L4400 52870
L4470 52890
L4490 52910
" />
</g>
<g style="fill:#000000; fill-opacity:0.0; 
stroke:#000000; stroke-width:100; stroke-opacity:1; 
stroke-linecap:round; stroke-linejoin:round;">
</g>
<g style="fill:#000000; fill-opacity:0.0; 
stroke:#000000; stroke-width:60; stroke-opacity:1; 
stroke-linecap:round; stroke-linejoin:round;">
<path d="M4200 73060
L4200 72550
L4320 72550
L4400 72570
L4440 72620
L4470 72670
L4490 72760
L4490 72840
L4470 72930
L4440 72980
L4400 73030
L4320 73060
L4200 73060
" />
</g>
<g style="fill:#000000; fill-opacity:0.0; 
stroke:#000000; stroke-width:100; stroke-opacity:1; 
stroke-linecap:round; stroke-linejoin:round;">
</g>
<g style="fill:#000000; fill-opacity:0.0; 
stroke:#000000; stroke-width:60; stroke-opacity:1; 
stroke-linecap:round; stroke-linejoin:round;">
<path d="M112990 23620
L112210 23620
" />
</g>
<g style="fill:#000000; fill-opacity:0.0; 
stroke:#000000; stroke-width:100; stroke-opacity:1; 
stroke-linecap:round; stroke-linejoin:round;">
</g>
<g style="fill:#000000; fill-opacity:0.0; 
stroke:#000000; stroke-width:60; stroke-opacity:1; 
stroke-linecap:round; stroke-linejoin:round;">
<path d="M112990 43310
L112210 43310
" />
</g>
<g style="fill:#000000; fill-opacity:0.0; 
stroke:#000000; stroke-width:100; stroke-opacity:1; 
stroke-linecap:round; stroke-linejoin:round;">
</g>
<g style="fill:#000000; fill-opacity:0.0; 
stroke:#000000; stroke-width:60; stroke-opacity:1; 
stroke-linecap:round; stroke-linejoin:round;">
<path d="M112990 62990
L112210 62990
" />
</g>
<g style="fill:#000000; fill-opacity:0.0; 
stroke:#000000; stroke-width:100; stroke-opacity:1; 
stroke-linecap:round; stroke-linejoin:round;">
</g>
<g style="fill:#000000; fill-opacity:0.0; 
stroke:#000000; stroke-width:60; stroke-opacity:1; 
stroke-linecap:round; stroke-linejoin:round;">
<path d="M112480 13860
L112720 13860
" />
<path d="M112430 14010
L112600 13500
L112770 14010
" />
</g>
<g style="fill:#000000; fill-opacity:0.0; 
stroke:#000000; stroke-width:100; stroke-opacity:1; 
stroke-linecap:round; stroke-linejoin:round;">
</g>
<g style="fill:#000000; fill-opacity:0.0; 
stroke:#000000; stroke-width:60; stroke-opacity:1; 
stroke-linecap:round; stroke-linejoin:round;">
<path d="M112640 33420
L112710 33440
L112740 33470
L112760 33520
L112760 33590
L112740 33640
L112710 33660
L112670 33690
L112470 33690
L112470 33180
L112640 33180
L112690 33200
L112710 33220
L112740 33270
L112740 33320
L112710 33370
L112690 33390
L112640 33420
L112470 33420
" />
</g>
<g style="fill:#000000; fill-opacity:0.0; 
stroke:#000000; stroke-width:100; stroke-opacity:1; 
stroke-linecap:round; stroke-linejoin:round;">
</g>
<g style="fill:#000000; fill-opacity:0.0; 
stroke:#000000; stroke-width:60; stroke-opacity:1; 
stroke-linecap:round; stroke-linejoin:round;">
<path d="M112760 53330
L112740 53350
L112670 53380
L112620 53380
L112540 53350
L112500 53300
L112470 53250
L112450 53160
L112450 53080
L112470 52990
L112500 52940
L112540 52890
L112620 52870
L112670 52870
L112740 52890
L112760 52910
" />
</g>
<g style="fill:#000000; fill-opacity:0.0; 
stroke:#000000; stroke-width:100; stroke-opacity:1; 
stroke-linecap:round; stroke-linejoin:round;">
</g>
<g style="fill:#000000; fill-opacity:0.0; 
stroke:#000000; stroke-width:60; stroke-opacity:1; 
stroke-linecap:round; stroke-linejoin:round;">
<path d="M112470 73060
L112470 72550
L112590 72550
L112670 72570
L112710 72620
L112740 72670
L112760 72760
L112760 72840
L112740 72930
L112710 72980
L112670 73030
L112590 73060
L112470 73060
" />
</g>
<g style="fill:#000000; fill-opacity:0.0; 
stroke:#000000; stroke-width:100; stroke-opacity:1; 
stroke-linecap:round; stroke-linejoin:round;">
</g>
<g style="fill:#000000; fill-opacity:0.0; 
stroke:#000000; stroke-width:60; stroke-opacity:1; 
stroke-linecap:round; stroke-linejoin:round;">
<path d="M78880 76290
L78880 75700
L79020 75700
L79110 75730
L79160 75790
L79190 75840
L79220 75950
L79220 76040
L79190 76150
L79160 76210
L79110 76260
L79020 76290
L78880 76290
" />
<path d="M79720 76290
L79720 75980
L79700 75930
L79640 75900
L79530 75900
L79470 75930
" />
<path d="M79720 76260
L79670 76290
L79530 76290
L79470 76260
L79440 76210
L79440 76150
L79470 76100
L79530 76070
L79670 76070
L79720 76040
" />
<path d="M79920 75900
L80140 75900
" />
<path d="M80000 75700
L80000 76210
L80030 76260
L80080 76290
L80140 76290
" />
<path d="M80570 76260
L80510 76290
L80400 76290
L80340 76260
L80310 76210
L80310 75980
L80340 75930
L80400 75900
L80510 75900
L80570 75930
L80590 75980
L80590 76040
L80310 76100
" />
<path d="M80850 76240
L80880 76260
L80850 76290
L80820 76260
L80850 76240
L80850 76290
" />
<path d="M80850 75930
L80880 75950
L80850 75980
L80820 75950
L80850 75930
L80850 75980
" />
</g>
<g style="fill:#000000; fill-opacity:0.0; 
stroke:#000000; stroke-width:100; stroke-opacity:1; 
stroke-linecap:round; stroke-linejoin:round;">
</g>
<g style="fill:#000000; fill-opacity:0.0; 
stroke:#000000; stroke-width:60; stroke-opacity:1; 
stroke-linecap:round; stroke-linejoin:round;">
<path d="M69690 76580
L112210 76580
" />
</g>
<g style="fill:#000000; fill-opacity:0.0; 
stroke:#000000; stroke-width:100; stroke-opacity:1; 
stroke-linecap:round; stroke-linejoin:round;">
</g>
<g style="fill:#000000; fill-opacity:0.0; 
stroke:#000000; stroke-width:60; stroke-opacity:1; 
stroke-linecap:round; stroke-linejoin:round;">
<path d="M70220 77390
L70220 76800
" />
<path d="M70560 77390
L70300 77050
" />
<path d="M70560 76800
L70220 77140
" />
<path d="M70810 77390
L70810 77000
" />
<path d="M70810 76800
L70780 76830
L70810 76860
L70840 76830
L70810 76800
L70810 76860
" />
<path d="M71430 77340
L71400 77360
L71320 77390
L71260 77390
L71170 77360
L71120 77310
L71090 77250
L71060 77140
L71060 77050
L71090 76940
L71120 76890
L71170 76830
L71260 76800
L71320 76800
L71400 76830
L71430 76860
" />
<path d="M71930 77390
L71930 77080
L71910 77030
L71850 77000
L71740 77000
L71680 77030
" />
<path d="M71930 77360
L71880 77390
L71740 77390
L71680 77360
L71650 77310
L71650 77250
L71680 77200
L71740 77170
L71880 77170
L71930 77140
" />
<path d="M72460 77390
L72460 76800
" />
<path d="M72460 77360
L72410 77390
L72290 77390
L72240 77360
L72210 77340
L72180 77280
L72180 77110
L72210 77050
L72240 77030
L72290 77000
L72410 77000
L72460 77030
" />
<path d="M73190 77080
L73390 77080
" />
<path d="M73470 77390
L73190 77390
L73190 76800
L73470 76800
" />
<path d="M73720 77340
L73750 77360
L73720 77390
L73690 77360
L73720 77340
L73720 77390
" />
<path d="M74000 77390
L74000 76800
L74140 76800
L74230 76830
L74280 76890
L74310 76940
L74340 77050
L74340 77140
L74310 77250
L74280 77310
L74230 77360
L74140 77390
L74000 77390
" />
<path d="M74590 77340
L74620 77360
L74590 77390
L74560 77360
L74590 77340
L74590 77390
" />
<path d="M74840 77220
L75120 77220
" />
<path d="M74790 77390
L74980 76800
L75180 77390
" />
<path d="M75380 77340
L75410 77360
L75380 77390
L75350 77360
L75380 77340
L75380 77390
" />
<path d="M76560 77390
L76560 76800
" />
<path d="M76620 77170
L76790 77390
" />
<path d="M76790 77000
L76560 77220
" />
<path d="M77040 77390
L77040 77000
" />
<path d="M77040 76800
L77010 76830
L77040 76860
L77070 76830
L77040 76800
L77040 76860
" />
<path d="M77570 77360
L77520 77390
L77400 77390
L77350 77360
L77320 77340
L77290 77280
L77290 77110
L77320 77050
L77350 77030
L77400 77000
L77520 77000
L77570 77030
" />
<path d="M78080 77390
L78080 77080
L78060 77030
L78000 77000
L77890 77000
L77830 77030
" />
<path d="M78080 77360
L78030 77390
L77890 77390
L77830 77360
L77800 77310
L77800 77250
L77830 77200
L77890 77170
L78030 77170
L78080 77140
" />
<path d="M78610 77390
L78610 76800
" />
<path d="M78610 77360
L78560 77390
L78440 77390
L78390 77360
L78360 77340
L78330 77280
L78330 77110
L78360 77050
L78390 77030
L78440 77000
L78560 77000
L78610 77030
" />
<path d="M79590 77000
L79590 77390
" />
<path d="M79450 76770
L79310 77200
L79680 77200
" />
<path d="M79900 77340
L79930 77360
L79900 77390
L79870 77360
L79900 77340
L79900 77390
" />
<path d="M80290 76800
L80350 76800
L80410 76830
L80430 76860
L80460 76910
L80490 77030
L80490 77170
L80460 77280
L80430 77340
L80410 77360
L80350 77390
L80290 77390
L80240 77360
L80210 77340
L80180 77280
L80150 77170
L80150 77030
L80180 76910
L80210 76860
L80240 76830
L80290 76800
" />
<path d="M80740 77340
L80770 77360
L80740 77390
L80710 77360
L80740 77340
L80740 77390
" />
<path d="M81330 77390
L80990 77390
" />
<path d="M81160 77390
L81160 76800
L81100 76890
L81050 76940
L80990 76970
" />
<path d="M81580 77170
L82030 77170
" />
<path d="M82280 77360
L82340 77390
L82450 77390
L82510 77360
L82540 77310
L82540 77280
L82510 77220
L82450 77200
L82370 77200
L82310 77170
L82280 77110
L82280 77080
L82310 77030
L82370 77000
L82450 77000
L82510 77030
" />
<path d="M82710 77000
L82930 77000
" />
<path d="M82790 76800
L82790 77310
L82820 77360
L82870 77390
L82930 77390
" />
<path d="M83380 77390
L83380 77080
L83360 77030
L83300 77000
L83190 77000
L83130 77030
" />
<path d="M83380 77360
L83330 77390
L83190 77390
L83130 77360
L83100 77310
L83100 77250
L83130 77200
L83190 77170
L83330 77170
L83380 77140
" />
<path d="M83660 77390
L83660 76800
" />
<path d="M83660 77030
L83720 77000
L83830 77000
L83890 77030
L83910 77050
L83940 77110
L83940 77280
L83910 77340
L83890 77360
L83830 77390
L83720 77390
L83660 77360
" />
<path d="M84270 77390
L84220 77360
L84190 77310
L84190 76800
" />
<path d="M84730 77360
L84670 77390
L84560 77390
L84500 77360
L84470 77310
L84470 77080
L84500 77030
L84560 77000
L84670 77000
L84730 77030
L84750 77080
L84750 77140
L84470 77200
" />
</g>
<g style="fill:#000000; fill-opacity:0.0; 
stroke:#000000; stroke-width:100; stroke-opacity:1; 
stroke-linecap:round; stroke-linejoin:round;">
</g>
<g style="fill:#000000; fill-opacity:0.0; 
stroke:#000000; stroke-width:60; stroke-opacity:1; 
stroke-linecap:round; stroke-linejoin:round;">
<path d="M69690 75400
L112210 75400
" />
</g>
<g style="fill:#000000; fill-opacity:0.0; 
stroke:#000000; stroke-width:100; stroke-opacity:1; 
stroke-linecap:round; stroke-linejoin:round;">
</g>
<g style="fill:#000000; fill-opacity:0.0; 
stroke:#000000; stroke-width:120; stroke-opacity:1; 
stroke-linecap:round; stroke-linejoin:round;">
<path d="M104020 76290
L103820 76010
" />
<path d="M103680 76290
L103680 75700
L103910 75700
L103960 75730
L103990 75760
L104020 75810
L104020 75900
L103990 75950
L103960 75980
L103910 76010
L103680 76010
" />
<path d="M104500 76260
L104440 76290
L104330 76290
L104270 76260
L104240 76210
L104240 75980
L104270 75930
L104330 75900
L104440 75900
L104500 75930
L104520 75980
L104520 76040
L104240 76100
" />
<path d="M104720 75900
L104860 76290
L105010 75900
" />
<path d="M105230 76240
L105260 76260
L105230 76290
L105200 76260
L105230 76240
L105230 76290
" />
<path d="M105230 75930
L105260 75950
L105230 75980
L105200 75950
L105230 75930
L105230 75980
" />
</g>
<g style="fill:#000000; fill-opacity:0.0; 
stroke:#000000; stroke-width:100; stroke-opacity:1; 
stroke-linecap:round; stroke-linejoin:round;">
</g>
<g style="fill:#000000; fill-opacity:0.0; 
stroke:#000000; stroke-width:60; stroke-opacity:1; 
stroke-linecap:round; stroke-linejoin:round;">
<path d="M70190 76260
L70280 76290
L70420 76290
L70470 76260
L70500 76240
L70530 76180
L70530 76120
L70500 76070
L70470 76040
L70420 76010
L70300 75980
L70250 75950
L70220 75930
L70190 75870
L70190 75810
L70220 75760
L70250 75730
L70300 75700
L70450 75700
L70530 75730
" />
<path d="M70780 76290
L70780 75900
" />
<path d="M70780 75700
L70750 75730
L70780 75760
L70810 75730
L70780 75700
L70780 75760
" />
<path d="M71000 75900
L71310 75900
L71000 76290
L71310 76290
" />
<path d="M71770 76260
L71710 76290
L71600 76290
L71540 76260
L71510 76210
L71510 75980
L71540 75930
L71600 75900
L71710 75900
L71770 75930
L71790 75980
L71790 76040
L71510 76100
" />
<path d="M72050 76240
L72080 76260
L72050 76290
L72020 76260
L72050 76240
L72050 76290
" />
<path d="M72050 75930
L72080 75950
L72050 75980
L72020 75950
L72050 75930
L72050 75980
" />
<path d="M72750 76120
L73030 76120
" />
<path d="M72700 76290
L72890 75700
L73090 76290
" />
<path d="M73540 75900
L73540 76290
" />
<path d="M73400 75670
L73260 76100
L73630 76100
" />
</g>
<g style="fill:#000000; fill-opacity:0.0; 
stroke:#000000; stroke-width:100; stroke-opacity:1; 
stroke-linecap:round; stroke-linejoin:round;">
</g>
<g style="fill:#000000; fill-opacity:0.0; 
stroke:#000000; stroke-width:60; stroke-opacity:1; 
stroke-linecap:round; stroke-linejoin:round;">
<path d="M103680 77390
L103680 76800
" />
<path d="M104210 77390
L104210 76800
" />
<path d="M104210 77360
L104160 77390
L104040 77390
L103990 77360
L103960 77340
L103930 77280
L103930 77110
L103960 77050
L103990 77030
L104040 77000
L104160 77000
L104210 77030
" />
<path d="M104490 77340
L104520 77360
L104490 77390
L104460 77360
L104490 77340
L104490 77390
" />
<path d="M104490 77030
L104520 77050
L104490 77080
L104460 77050
L104490 77030
L104490 77080
" />
<path d="M105530 77390
L105190 77390
" />
<path d="M105360 77390
L105360 76800
L105300 76890
L105250 76940
L105190 76970
" />
<path d="M106200 76770
L105700 77530
" />
<path d="M106710 77390
L106370 77390
" />
<path d="M106540 77390
L106540 76800
L106480 76890
L106430 76940
L106370 76970
" />
</g>
<g style="fill:#000000; fill-opacity:0.0; 
stroke:#000000; stroke-width:100; stroke-opacity:1; 
stroke-linecap:round; stroke-linejoin:round;">
</g>
<g style="fill:#000000; fill-opacity:0.0; 
stroke:#000000; stroke-width:60; stroke-opacity:1; 
stroke-linecap:round; stroke-linejoin:round;">
<path d="M69690 73820
L112210 73820
" />
</g>
<g style="fill:#000000; fill-opacity:0.0; 
stroke:#000000; stroke-width:100; stroke-opacity:1; 
stroke-linecap:round; stroke-linejoin:round;">
</g>
<g style="fill:#000000; fill-opacity:0.0; 
stroke:#000000; stroke-width:160; stroke-opacity:1; 
stroke-linecap:round; stroke-linejoin:round;">
<path d="M70260 74090
L70710 74090
" />
<path d="M70390 74880
L70480 74090
" />
<path d="M70880 74880
L70940 74360
" />
<path d="M70970 74090
L70930 74130
L70960 74170
L71010 74130
L70970 74090
L70960 74170
" />
<path d="M71210 74360
L71510 74360
" />
<path d="M71350 74090
L71270 74770
L71300 74840
L71370 74880
L71450 74880
" />
<path d="M71820 74880
L71750 74840
L71720 74770
L71800 74090
" />
<path d="M72420 74840
L72340 74880
L72190 74880
L72120 74840
L72090 74770
L72130 74470
L72180 74390
L72250 74360
L72400 74360
L72480 74390
L72510 74470
L72500 74540
L72110 74620
" />
<path d="M72800 74810
L72840 74840
L72800 74880
L72760 74840
L72800 74810
L72800 74880
" />
<path d="M72860 74390
L72890 74430
L72850 74470
L72810 74430
L72860 74390
L72850 74470
" />
</g>
<g style="fill:#000000; fill-opacity:0.0; 
stroke:#000000; stroke-width:100; stroke-opacity:1; 
stroke-linecap:round; stroke-linejoin:round;">
</g>
<g style="fill:#000000; fill-opacity:0.0; 
stroke:#000000; stroke-width:60; stroke-opacity:1; 
stroke-linecap:round; stroke-linejoin:round;">
<path d="M70420 73060
L70220 73060
" />
<path d="M70220 73370
L70220 72780
L70500 72780
" />
<path d="M70730 73370
L70730 72980
" />
<path d="M70730 72780
L70700 72810
L70730 72840
L70760 72810
L70730 72780
L70730 72840
" />
<path d="M71090 73370
L71040 73340
L71010 73290
L71010 72780
" />
<path d="M71550 73340
L71490 73370
L71380 73370
L71320 73340
L71290 73290
L71290 73060
L71320 73010
L71380 72980
L71490 72980
L71550 73010
L71570 73060
L71570 73120
L71290 73180
" />
<path d="M71830 73320
L71860 73340
L71830 73370
L71800 73340
L71830 73320
L71830 73370
" />
<path d="M71830 73010
L71860 73030
L71830 73060
L71800 73030
L71830 73010
L71830 73060
" />
<path d="M72560 73370
L72560 72780
" />
<path d="M72810 73370
L72810 73060
L72790 73010
L72730 72980
L72640 72980
L72590 73010
L72560 73030
" />
<path d="M73030 72980
L73170 73370
L73320 72980
" />
<path d="M73540 73150
L73990 73150
" />
<path d="M74520 73370
L74520 72780
" />
<path d="M74520 73340
L74470 73370
L74350 73370
L74300 73340
L74270 73320
L74240 73260
L74240 73090
L74270 73030
L74300 73010
L74350 72980
L74470 72980
L74520 73010
" />
<path d="M74800 73370
L74800 72980
" />
<path d="M74800 73090
L74830 73030
L74860 73010
L74910 72980
L74970 72980
" />
<path d="M75170 73370
L75170 72980
" />
<path d="M75170 72780
L75140 72810
L75170 72840
L75200 72810
L75170 72780
L75170 72840
" />
<path d="M75390 72980
L75530 73370
L75680 72980
" />
<path d="M76130 73340
L76070 73370
L75960 73370
L75900 73340
L75870 73290
L75870 73060
L75900 73010
L75960 72980
L76070 72980
L76130 73010
L76150 73060
L76150 73120
L75870 73180
" />
<path d="M76410 73370
L76410 72980
" />
<path d="M76410 73090
L76440 73030
L76470 73010
L76520 72980
L76580 72980
" />
<path d="M76780 73150
L77230 73150
" />
<path d="M77510 72980
L77510 73570
" />
<path d="M77510 73010
L77570 72980
L77680 72980
L77740 73010
L77760 73030
L77790 73090
L77790 73260
L77760 73320
L77740 73340
L77680 73370
L77570 73370
L77510 73340
" />
<path d="M78290 72980
L78290 73370
" />
<path d="M78040 72980
L78040 73290
L78070 73340
L78120 73370
L78210 73370
L78270 73340
L78290 73320
" />
<path d="M78540 73340
L78600 73370
L78710 73370
L78770 73340
L78800 73290
L78800 73260
L78770 73200
L78710 73180
L78630 73180
L78570 73150
L78540 73090
L78540 73060
L78570 73010
L78630 72980
L78710 72980
L78770 73010
" />
<path d="M79050 73370
L79050 72780
" />
<path d="M79300 73370
L79300 73060
L79280 73010
L79220 72980
L79130 72980
L79080 73010
L79050 73030
" />
<path d="M79580 73150
L80030 73150
" />
<path d="M80310 72980
L80310 73570
" />
<path d="M80310 73010
L80370 72980
L80480 72980
L80540 73010
L80560 73030
L80590 73090
L80590 73260
L80560 73320
L80540 73340
L80480 73370
L80370 73370
L80310 73340
" />
<path d="M81090 72980
L81090 73370
" />
<path d="M80840 72980
L80840 73290
L80870 73340
L80920 73370
L81010 73370
L81070 73340
L81090 73320
" />
<path d="M81450 73370
L81400 73340
L81370 73290
L81370 72780
" />
<path d="M81760 73370
L81710 73340
L81680 73290
L81680 72780
" />
<path d="M81990 73150
L82440 73150
" />
<path d="M82720 72980
L82720 73370
" />
<path d="M82720 73030
L82750 73010
L82800 72980
L82890 72980
L82950 73010
L82970 73060
L82970 73370
" />
<path d="M83250 73150
L83700 73150
" />
<path d="M84230 73340
L84180 73370
L84060 73370
L84010 73340
L83980 73320
L83950 73260
L83950 73090
L83980 73030
L84010 73010
L84060 72980
L84180 72980
L84230 73010
" />
<path d="M84490 73370
L84490 72780
" />
<path d="M84740 73370
L84740 73060
L84720 73010
L84660 72980
L84570 72980
L84520 73010
L84490 73030
" />
<path d="M85270 73370
L85270 73060
L85250 73010
L85190 72980
L85080 72980
L85020 73010
" />
<path d="M85270 73340
L85220 73370
L85080 73370
L85020 73340
L84990 73290
L84990 73230
L85020 73180
L85080 73150
L85220 73150
L85270 73120
" />
<path d="M85550 72980
L85550 73370
" />
<path d="M85550 73030
L85580 73010
L85630 72980
L85720 72980
L85780 73010
L85800 73060
L85800 73370
" />
<path d="M86080 72980
L86080 73370
" />
<path d="M86080 73030
L86110 73010
L86160 72980
L86250 72980
L86310 73010
L86330 73060
L86330 73370
" />
<path d="M86840 73340
L86780 73370
L86670 73370
L86610 73340
L86580 73290
L86580 73060
L86610 73010
L86670 72980
L86780 72980
L86840 73010
L86860 73060
L86860 73120
L86580 73180
" />
<path d="M87200 73370
L87150 73340
L87120 73290
L87120 72780
" />
<path d="M87430 73320
L87460 73340
L87430 73370
L87400 73340
L87430 73320
L87430 73370
" />
<path d="M87680 73340
L87740 73370
L87850 73370
L87910 73340
L87940 73290
L87940 73260
L87910 73200
L87850 73180
L87770 73180
L87710 73150
L87680 73090
L87680 73060
L87710 73010
L87770 72980
L87850 72980
L87910 73010
" />
<path d="M88440 73340
L88390 73370
L88270 73370
L88220 73340
L88190 73320
L88160 73260
L88160 73090
L88190 73030
L88220 73010
L88270 72980
L88390 72980
L88440 73010
" />
<path d="M88700 73370
L88700 72780
" />
<path d="M88950 73370
L88950 73060
L88930 73010
L88870 72980
L88780 72980
L88730 73010
L88700 73030
" />
</g>
<g style="fill:#000000; fill-opacity:0.0; 
stroke:#000000; stroke-width:100; stroke-opacity:1; 
stroke-linecap:round; stroke-linejoin:round;">
</g>
<g style="fill:#000000; fill-opacity:0.0; 
stroke:#000000; stroke-width:60; stroke-opacity:1; 
stroke-linecap:round; stroke-linejoin:round;">
<path d="M69690 71460
L112210 71460
" />
</g>
<g style="fill:#000000; fill-opacity:0.0; 
stroke:#000000; stroke-width:100; stroke-opacity:1; 
stroke-linecap:round; stroke-linejoin:round;">
</g>
<g style="fill:#000000; fill-opacity:0.0; 
stroke:#000000; stroke-width:60; stroke-opacity:1; 
stroke-linecap:round; stroke-linejoin:round;">
<path d="M70190 72280
L70280 72310
L70420 72310
L70470 72280
L70500 72260
L70530 72200
L70530 72140
L70500 72090
L70470 72060
L70420 72030
L70300 72000
L70250 71970
L70220 71950
L70190 71890
L70190 71830
L70220 71780
L70250 71750
L70300 71720
L70450 71720
L70530 71750
" />
<path d="M70780 72310
L70780 71720
" />
<path d="M71030 72310
L71030 72000
L71010 71950
L70950 71920
L70860 71920
L70810 71950
L70780 71970
" />
<path d="M71540 72280
L71480 72310
L71370 72310
L71310 72280
L71280 72230
L71280 72000
L71310 71950
L71370 71920
L71480 71920
L71540 71950
L71560 72000
L71560 72060
L71280 72120
" />
<path d="M72050 72280
L71990 72310
L71880 72310
L71820 72280
L71790 72230
L71790 72000
L71820 71950
L71880 71920
L71990 71920
L72050 71950
L72070 72000
L72070 72060
L71790 72120
" />
<path d="M72250 71920
L72470 71920
" />
<path d="M72330 71720
L72330 72230
L72360 72280
L72410 72310
L72470 72310
" />
<path d="M72670 72260
L72700 72280
L72670 72310
L72640 72280
L72670 72260
L72670 72310
" />
<path d="M72670 71950
L72700 71970
L72670 72000
L72640 71970
L72670 71950
L72670 72000
" />
<path d="M73820 71690
L73320 72450
" />
</g>
<g style="fill:#000000; fill-opacity:0.0; 
stroke:#000000; stroke-width:100; stroke-opacity:1; 
stroke-linecap:round; stroke-linejoin:round;">
</g>
<g style="fill:#000000; fill-opacity:0.0; 
stroke:#000000; stroke-width:60; stroke-opacity:1; 
stroke-linecap:round; stroke-linejoin:round;">
<path d="M77560 75400
L77560 76580
" />
</g>
<g style="fill:#000000; fill-opacity:0.0; 
stroke:#000000; stroke-width:100; stroke-opacity:1; 
stroke-linecap:round; stroke-linejoin:round;">
</g>
<g style="fill:#000000; fill-opacity:0.0; 
stroke:#000000; stroke-width:60; stroke-opacity:1; 
stroke-linecap:round; stroke-linejoin:round;">
<path d="M102760 75400
L102760 77960
" />
<path d="M39270 20700
L39210 20670
L39120 20670
L39040 20700
L38980 20760
L38950 20810
L38920 20930
L38920 21010
L38950 21130
L38980 21190
L39040 21240
L39120 21270
L39180 21270
L39270 21240
L39300 21210
L39300 21010
L39180 21010
" />
<path d="M39550 21270
L39550 20670
L39900 21270
L39900 20670
" />
<path d="M40180 21270
L40180 20670
L40330 20670
L40410 20700
L40470 20760
L40500 20810
L40530 20930
L40530 21010
L40500 21130
L40470 21190
L40410 21240
L40330 21270
L40180 21270
" />
</g>
<g style="fill:#000000; fill-opacity:0.0; 
stroke:#000000; stroke-width:100; stroke-opacity:1; 
stroke-linecap:round; stroke-linejoin:round;">
<polyline fill="none;"
points="41000,21000
40700,20460
38580,20460
38580,21000
38580,21540
40700,21540
41000,21000
" /> 
</g>
<g style="fill:#000000; fill-opacity:0.0; 
stroke:#000000; stroke-width:0; stroke-opacity:1; 
stroke-linecap:round; stroke-linejoin:round;">
</g>
<g style="fill:#000000; fill-opacity:0.0; 
stroke:#000000; stroke-width:60; stroke-opacity:1; 
stroke-linecap:round; stroke-linejoin:round;">
<rect x="22500" y="14000" width="7000" height="5000" rx="0" />
<path d="M22500 15000
L20500 15000
" />
<path d="M23020 15230
L23020 14730
" />
<path d="M23260 15230
L23260 14730
L23540 15230
L23540 14730
" />
<path d="M23660 15270
L24040 15270
" />
<path d="M24400 15230
L24160 15230
L24160 14730
" />
<path d="M24650 14730
L24750 14730
L24800 14750
L24840 14800
L24870 14890
L24870 15060
L24840 15150
L24800 15200
L24750 15230
L24650 15230
L24610 15200
L24560 15150
L24540 15060
L24540 14890
L24560 14800
L24610 14750
L24650 14730
" />
<path d="M21640 14880
L21360 14880
" />
<path d="M21500 14880
L21500 14380
L21450 14450
L21400 14500
L21360 14520
" />
<path d="M22500 16000
L20500 16000
" />
<path d="M23020 16230
L23020 15730
" />
<path d="M23260 16230
L23260 15730
L23540 16230
L23540 15730
" />
<path d="M23660 16270
L24040 16270
" />
<path d="M24160 16230
L24160 15730
" />
<path d="M24160 15960
L24440 15960
" />
<path d="M24440 16230
L24440 15730
" />
<path d="M24680 16230
L24680 15730
" />
<path d="M21360 15420
L21380 15400
L21430 15380
L21550 15380
L21590 15400
L21620 15420
L21640 15470
L21640 15520
L21620 15590
L21330 15880
L21640 15880
" />
<path d="M22500 17000
L20500 17000
" />
<path d="M22950 16730
L23110 17230
L23280 16730
" />
<path d="M23730 17180
L23710 17200
L23640 17230
L23590 17230
L23520 17200
L23470 17150
L23450 17110
L23430 17010
L23430 16940
L23450 16850
L23470 16800
L23520 16750
L23590 16730
L23640 16730
L23710 16750
L23730 16770
" />
<path d="M24230 17180
L24210 17200
L24140 17230
L24090 17230
L24020 17200
L23970 17150
L23950 17110
L23930 17010
L23930 16940
L23950 16850
L23970 16800
L24020 16750
L24090 16730
L24140 16730
L24210 16750
L24230 16770
" />
<path d="M21330 16380
L21640 16380
L21470 16570
L21550 16570
L21590 16590
L21620 16610
L21640 16660
L21640 16780
L21620 16830
L21590 16850
L21550 16880
L21400 16880
L21360 16850
L21330 16830
" />
<path d="M22500 18000
L20500 18000
" />
<path d="M23280 17750
L23230 17730
L23160 17730
L23090 17750
L23040 17800
L23020 17850
L23000 17940
L23000 18010
L23020 18110
L23040 18150
L23090 18200
L23160 18230
L23210 18230
L23280 18200
L23300 18180
L23300 18010
L23210 18010
" />
<path d="M23520 18230
L23520 17730
L23800 18230
L23800 17730
" />
<path d="M24040 18230
L24040 17730
L24160 17730
L24230 17750
L24280 17800
L24300 17850
L24320 17940
L24320 18010
L24300 18110
L24280 18150
L24230 18200
L24160 18230
L24040 18230
" />
<path d="M21590 17540
L21590 17880
" />
<path d="M21470 17350
L21360 17710
L21660 17710
" />
<path d="M29500 18000
L31500 18000
" />
<path d="M26490 18230
L26490 17730
L26610 17730
L26680 17750
L26730 17800
L26750 17850
L26770 17940
L26770 18010
L26750 18110
L26730 18150
L26680 18200
L26610 18230
L26490 18230
" />
<path d="M27270 18230
L27110 17990
" />
<path d="M26990 18230
L26990 17730
L27180 17730
L27230 17750
L27250 17770
L27270 17820
L27270 17890
L27250 17940
L27230 17960
L27180 17990
L26990 17990
" />
<path d="M27420 17730
L27580 18230
L27750 17730
" />
<path d="M27800 18270
L28180 18270
" />
<path d="M28540 18230
L28300 18230
L28300 17730
" />
<path d="M28790 17730
L28890 17730
L28940 17750
L28980 17800
L29010 17890
L29010 18060
L28980 18150
L28940 18200
L28890 18230
L28790 18230
L28750 18200
L28700 18150
L28680 18060
L28680 17890
L28700 17800
L28750 17750
L28790 17730
" />
<path d="M30620 17380
L30380 17380
L30360 17610
L30380 17590
L30430 17570
L30550 17570
L30590 17590
L30620 17610
L30640 17660
L30640 17780
L30620 17830
L30590 17850
L30550 17880
L30430 17880
L30380 17850
L30360 17830
" />
<path d="M29500 17000
L31500 17000
" />
<path d="M26700 16960
L26770 16990
L26790 17010
L26810 17060
L26810 17130
L26790 17180
L26770 17200
L26720 17230
L26530 17230
L26530 16730
L26700 16730
L26740 16750
L26770 16770
L26790 16820
L26790 16870
L26770 16920
L26740 16940
L26700 16960
L26530 16960
" />
<path d="M27310 17230
L27150 16990
" />
<path d="M27030 17230
L27030 16730
L27220 16730
L27270 16750
L27290 16770
L27310 16820
L27310 16890
L27290 16940
L27270 16960
L27220 16990
L27030 16990
" />
<path d="M27530 17230
L27530 16730
" />
<path d="M27770 17230
L27770 16730
L27890 16730
L27960 16750
L28010 16800
L28030 16850
L28050 16940
L28050 17010
L28030 17110
L28010 17150
L27960 17200
L27890 17230
L27770 17230
" />
<path d="M28530 16750
L28480 16730
L28410 16730
L28340 16750
L28290 16800
L28270 16850
L28250 16940
L28250 17010
L28270 17110
L28290 17150
L28340 17200
L28410 17230
L28460 17230
L28530 17200
L28550 17180
L28550 17010
L28460 17010
" />
<path d="M28770 16960
L28940 16960
" />
<path d="M29010 17230
L28770 17230
L28770 16730
L29010 16730
" />
<path d="M30590 16380
L30500 16380
L30450 16400
L30430 16420
L30380 16500
L30360 16590
L30360 16780
L30380 16830
L30400 16850
L30450 16880
L30550 16880
L30590 16850
L30620 16830
L30640 16780
L30640 16660
L30620 16610
L30590 16590
L30550 16570
L30450 16570
L30400 16590
L30380 16610
L30360 16660
" />
<path d="M29500 16000
L31500 16000
" />
<path d="M26650 16230
L26650 15730
L26770 15730
L26840 15750
L26890 15800
L26910 15850
L26930 15940
L26930 16010
L26910 16110
L26890 16150
L26840 16200
L26770 16230
L26650 16230
" />
<path d="M27430 16230
L27270 15990
" />
<path d="M27150 16230
L27150 15730
L27340 15730
L27390 15750
L27410 15770
L27430 15820
L27430 15890
L27410 15940
L27390 15960
L27340 15990
L27150 15990
" />
<path d="M27580 15730
L27740 16230
L27910 15730
" />
<path d="M27960 16270
L28340 16270
" />
<path d="M28460 16230
L28460 15730
" />
<path d="M28460 15960
L28740 15960
" />
<path d="M28740 16230
L28740 15730
" />
<path d="M28980 16230
L28980 15730
" />
<path d="M30330 15380
L30660 15380
L30450 15880
" />
<path d="M29500 15000
L31500 15000
" />
<path d="M26800 14730
L26960 15230
L27130 14730
" />
<path d="M27470 14960
L27540 14990
L27560 15010
L27580 15060
L27580 15130
L27560 15180
L27540 15200
L27490 15230
L27300 15230
L27300 14730
L27470 14730
L27510 14750
L27540 14770
L27560 14820
L27560 14870
L27540 14920
L27510 14940
L27470 14960
L27300 14960
" />
<path d="M27890 14730
L27990 14730
L28040 14750
L28080 14800
L28110 14890
L28110 15060
L28080 15150
L28040 15200
L27990 15230
L27890 15230
L27850 15200
L27800 15150
L27780 15060
L27780 14890
L27800 14800
L27850 14750
L27890 14730
" />
<path d="M28410 14730
L28510 14730
L28560 14750
L28600 14800
L28630 14890
L28630 15060
L28600 15150
L28560 15200
L28510 15230
L28410 15230
L28370 15200
L28320 15150
L28300 15060
L28300 14890
L28320 14800
L28370 14750
L28410 14730
" />
<path d="M28770 14730
L29050 14730
" />
<path d="M28910 15230
L28910 14730
" />
<path d="M30450 14590
L30400 14570
L30380 14540
L30360 14500
L30360 14470
L30380 14420
L30400 14400
L30450 14380
L30550 14380
L30590 14400
L30620 14420
L30640 14470
L30640 14500
L30620 14540
L30590 14570
L30550 14590
L30450 14590
L30400 14610
L30380 14640
L30360 14690
L30360 14780
L30380 14830
L30400 14850
L30450 14880
L30550 14880
L30590 14850
L30620 14830
L30640 14780
L30640 14690
L30620 14640
L30590 14610
L30550 14590
" />
<path d="M25540 13140
L25540 13630
L25570 13680
L25600 13710
L25660 13740
L25770 13740
L25830 13710
L25860 13680
L25890 13630
L25890 13140
" />
<path d="M26490 13740
L26140 13740
" />
<path d="M26320 13740
L26320 13140
L26260 13230
L26200 13280
L26140 13310
" />
<path d="M24090 19740
L24090 19140
L24440 19740
L24440 19140
" />
<path d="M25070 19680
L25040 19710
L24950 19740
L24890 19740
L24810 19710
L24750 19660
L24720 19600
L24690 19480
L24690 19400
L24720 19280
L24750 19230
L24810 19170
L24890 19140
L24950 19140
L25040 19170
L25070 19200
" />
<path d="M25320 19740
L25320 19140
L25550 19140
L25610 19170
L25640 19200
L25670 19260
L25670 19340
L25640 19400
L25610 19430
L25550 19460
L25320 19460
" />
<path d="M26210 19140
L25920 19140
L25890 19430
L25920 19400
L25980 19370
L26120 19370
L26180 19400
L26210 19430
L26240 19480
L26240 19630
L26210 19680
L26180 19710
L26120 19740
L25980 19740
L25920 19710
L25890 19680
" />
<path d="M26440 19140
L26810 19140
L26610 19370
L26690 19370
L26750 19400
L26780 19430
L26810 19480
L26810 19630
L26780 19680
L26750 19710
L26690 19740
L26520 19740
L26460 19710
L26440 19680
" />
<path d="M27180 19140
L27230 19140
L27290 19170
L27320 19200
L27350 19260
L27380 19370
L27380 19510
L27350 19630
L27320 19680
L27290 19710
L27230 19740
L27180 19740
L27120 19710
L27090 19680
L27060 19630
L27030 19510
L27030 19370
L27060 19260
L27090 19200
L27120 19170
L27180 19140
" />
<path d="M27890 19340
L27890 19740
" />
<path d="M27750 19110
L27600 19540
L27980 19540
" />
</g>
<g style="fill:#000000; fill-opacity:0.0; 
stroke:#000000; stroke-width:0; stroke-opacity:1; 
stroke-linecap:round; stroke-linejoin:round;">
</g>
<g style="fill:#000000; fill-opacity:0.0; 
stroke:#000000; stroke-width:130; stroke-opacity:1; 
stroke-linecap:round; stroke-linejoin:round;">
<polyline fill="none;"
points="34600,12300
33400,12300
" /> 
</g>
<g style="fill:#000000; fill-opacity:0.0; 
stroke:#000000; stroke-width:120; stroke-opacity:1; 
stroke-linecap:round; stroke-linejoin:round;">
<polyline fill="none;"
points="34600,12700
33400,12700
" /> 
</g>
<g style="fill:#000000; fill-opacity:0.0; 
stroke:#000000; stroke-width:60; stroke-opacity:1; 
stroke-linecap:round; stroke-linejoin:round;">
<path d="M34000 12750
L34000 13500
" />
<path d="M34000 12300
L34000 11500
" />
<path d="M34710 13580
L34730 13600
L34760 13670
L34760 13720
L34730 13790
L34680 13840
L34640 13860
L34540 13880
L34470 13880
L34380 13860
L34330 13840
L34280 13790
L34260 13720
L34260 13670
L34280 13600
L34300 13580
" />
<path d="M34300 13380
L34280 13360
L34260 13310
L34260 13190
L34280 13150
L34300 13120
L34350 13100
L34400 13100
L34470 13120
L34760 13410
L34760 13100
" />
<path d="M35260 14370
L35260 14320
L35280 14270
L35300 14250
L35350 14220
L35450 14200
L35570 14200
L35660 14220
L35710 14250
L35730 14270
L35760 14320
L35760 14370
L35730 14410
L35710 14440
L35660 14460
L35570 14480
L35450 14480
L35350 14460
L35300 14440
L35280 14410
L35260 14370
" />
<path d="M35710 13980
L35730 13960
L35760 13980
L35730 14000
L35710 13980
L35760 13980
" />
<path d="M35760 13480
L35760 13760
" />
<path d="M35760 13620
L35260 13620
L35330 13670
L35380 13720
L35400 13760
" />
<path d="M35420 13050
L35760 13050
" />
<path d="M35420 13260
L35680 13260
L35730 13240
L35760 13190
L35760 13120
L35730 13070
L35710 13050
" />
<path d="M35490 12640
L35490 12810
" />
<path d="M35760 12810
L35260 12810
L35260 12570
" />
</g>
<g style="fill:#000000; fill-opacity:0.0; 
stroke:#000000; stroke-width:0; stroke-opacity:1; 
stroke-linecap:round; stroke-linejoin:round;">
</g>
<g style="fill:#000000; fill-opacity:0.0; 
stroke:#000000; stroke-width:60; stroke-opacity:1; 
stroke-linecap:round; stroke-linejoin:round;">
<polyline fill="none;"
points="26500,10000
26500,9000
" /> 
</g>
<g style="fill:#000000; fill-opacity:1.0; 
stroke:#000000; stroke-width:60; stroke-opacity:1; 
stroke-linecap:round; stroke-linejoin:round;">
<polyline style="fill-rule:evenodd;"
points="25500,10000
26500,9500
25500,9000
" /> 
</g>
<g style="fill:#000000; fill-opacity:0.0; 
stroke:#000000; stroke-width:60; stroke-opacity:1; 
stroke-linecap:round; stroke-linejoin:round;">
<path d="M26500 9500
L27500 9500
" />
<path d="M25500 9500
L24500 9500
" />
<path d="M25630 10760
L25630 10260
L25750 10260
L25820 10280
L25870 10330
L25890 10380
L25910 10470
L25910 10540
L25890 10640
L25870 10680
L25820 10730
L25750 10760
L25630 10760
" />
<path d="M26390 10760
L26110 10760
" />
<path d="M26250 10760
L26250 10260
L26200 10330
L26150 10380
L26110 10400
" />
<path d="M25870 8760
L25870 8260
L25990 8260
L26060 8280
L26110 8330
L26130 8380
L26150 8470
L26150 8540
L26130 8640
L26110 8680
L26060 8730
L25990 8760
L25870 8760
" />
</g>
<g style="fill:#000000; fill-opacity:0.0; 
stroke:#000000; stroke-width:0; stroke-opacity:1; 
stroke-linecap:round; stroke-linejoin:round;">
</g>
<g style="fill:#000000; fill-opacity:0.0; 
stroke:#000000; stroke-width:130; stroke-opacity:1; 
stroke-linecap:round; stroke-linejoin:round;">
<polyline fill="none;"
points="23600,10300
22400,10300
" /> 
</g>
<g style="fill:#000000; fill-opacity:0.0; 
stroke:#000000; stroke-width:120; stroke-opacity:1; 
stroke-linecap:round; stroke-linejoin:round;">
<polyline fill="none;"
points="23600,10700
22400,10700
" /> 
</g>
<g style="fill:#000000; fill-opacity:0.0; 
stroke:#000000; stroke-width:60; stroke-opacity:1; 
stroke-linecap:round; stroke-linejoin:round;">
<path d="M23000 10750
L23000 11500
" />
<path d="M23000 10300
L23000 9500
" />
<path d="M20920 10210
L20900 10230
L20830 10260
L20780 10260
L20710 10230
L20660 10180
L20640 10140
L20620 10040
L20620 9970
L20640 9880
L20660 9830
L20710 9780
L20780 9760
L20830 9760
L20900 9780
L20920 9800
" />
<path d="M21400 10260
L21120 10260
" />
<path d="M21260 10260
L21260 9760
L21210 9830
L21160 9880
L21120 9900
" />
<path d="M21130 8760
L21180 8760
L21230 8780
L21250 8800
L21280 8850
L21300 8950
L21300 9070
L21280 9160
L21250 9210
L21230 9230
L21180 9260
L21130 9260
L21090 9230
L21060 9210
L21040 9160
L21020 9070
L21020 8950
L21040 8850
L21060 8800
L21090 8780
L21130 8760
" />
<path d="M21520 9210
L21540 9230
L21520 9260
L21500 9230
L21520 9210
L21520 9260
" />
<path d="M22020 9260
L21740 9260
" />
<path d="M21880 9260
L21880 8760
L21830 8830
L21780 8880
L21740 8900
" />
<path d="M22450 8920
L22450 9260
" />
<path d="M22240 8920
L22240 9180
L22260 9230
L22310 9260
L22380 9260
L22430 9230
L22450 9210
" />
<path d="M22860 8990
L22690 8990
" />
<path d="M22690 9260
L22690 8760
L22930 8760
" />
<path d="M21270 11200
L21210 11170
L21120 11170
L21040 11200
L20980 11260
L20950 11310
L20920 11430
L20920 11510
L20950 11630
L20980 11690
L21040 11740
L21120 11770
L21180 11770
L21270 11740
L21300 11710
L21300 11510
L21180 11510
" />
<path d="M21550 11770
L21550 11170
L21900 11770
L21900 11170
" />
<path d="M22180 11770
L22180 11170
L22330 11170
L22410 11200
L22470 11260
L22500 11310
L22530 11430
L22530 11510
L22500 11630
L22470 11690
L22410 11740
L22330 11770
L22180 11770
" />
</g>
<g style="fill:#000000; fill-opacity:0.0; 
stroke:#000000; stroke-width:100; stroke-opacity:1; 
stroke-linecap:round; stroke-linejoin:round;">
<polyline fill="none;"
points="23000,11500
22700,10960
20580,10960
20580,11500
20580,12040
22700,12040
23000,11500
" /> 
</g>
<g style="fill:#000000; fill-opacity:0.0; 
stroke:#000000; stroke-width:60; stroke-opacity:1; 
stroke-linecap:round; stroke-linejoin:round;">
<path d="M18770 17700
L18710 17670
L18620 17670
L18540 17700
L18480 17760
L18450 17810
L18420 17930
L18420 18010
L18450 18130
L18480 18190
L18540 18240
L18620 18270
L18680 18270
L18770 18240
L18800 18210
L18800 18010
L18680 18010
" />
<path d="M19050 18270
L19050 17670
L19400 18270
L19400 17670
" />
<path d="M19680 18270
L19680 17670
L19830 17670
L19910 17700
L19970 17760
L20000 17810
L20030 17930
L20030 18010
L20000 18130
L19970 18190
L19910 18240
L19830 18270
L19680 18270
" />
</g>
<g style="fill:#000000; fill-opacity:0.0; 
stroke:#000000; stroke-width:100; stroke-opacity:1; 
stroke-linecap:round; stroke-linejoin:round;">
<polyline fill="none;"
points="20500,18000
20200,17460
18080,17460
18080,18000
18080,18540
20200,18540
20500,18000
" /> 
</g>
<g style="fill:#000000; fill-opacity:0.0; 
stroke:#000000; stroke-width:60; stroke-opacity:1; 
stroke-linecap:round; stroke-linejoin:round;">
<path d="M16490 9170
L16690 9770
L16890 9170
" />
<path d="M17430 9710
L17400 9740
L17310 9770
L17250 9770
L17170 9740
L17110 9690
L17080 9630
L17050 9510
L17050 9430
L17080 9310
L17110 9260
L17170 9200
L17250 9170
L17310 9170
L17400 9200
L17430 9230
" />
<path d="M18030 9710
L18000 9740
L17910 9770
L17850 9770
L17770 9740
L17710 9690
L17680 9630
L17650 9510
L17650 9430
L17680 9310
L17710 9260
L17770 9200
L17850 9170
L17910 9170
L18000 9200
L18030 9230
" />
</g>
<g style="fill:#000000; fill-opacity:0.0; 
stroke:#000000; stroke-width:100; stroke-opacity:1; 
stroke-linecap:round; stroke-linejoin:round;">
<polyline fill="none;"
points="18500,9500
18200,8960
16200,8960
16200,9500
16200,10040
18200,10040
18500,9500
" /> 
</g>
<g style="fill:#000000; fill-opacity:0.0; 
stroke:#000000; stroke-width:60; stroke-opacity:1; 
stroke-linecap:round; stroke-linejoin:round;">
<path d="M15780 15270
L15780 14670
" />
<path d="M16070 15270
L16070 14670
L16420 15270
L16420 14670
" />
<path d="M16560 15330
L17020 15330
" />
<path d="M17450 15270
L17160 15270
L17160 14670
" />
<path d="M17770 14670
L17880 14670
L17940 14700
L18000 14760
L18020 14870
L18020 15070
L18000 15190
L17940 15240
L17880 15270
L17770 15270
L17710 15240
L17650 15190
L17620 15070
L17620 14870
L17650 14760
L17710 14700
L17770 14670
" />
</g>
<g style="fill:#000000; fill-opacity:0.0; 
stroke:#000000; stroke-width:100; stroke-opacity:1; 
stroke-linecap:round; stroke-linejoin:round;">
<polyline fill="none;"
points="18500,15000
18200,14460
15410,14460
15410,15000
15410,15540
18200,15540
18500,15000
" /> 
</g>
<g style="fill:#000000; fill-opacity:0.0; 
stroke:#000000; stroke-width:60; stroke-opacity:1; 
stroke-linecap:round; stroke-linejoin:round;">
<path d="M15980 16270
L15980 15670
" />
<path d="M16270 16270
L16270 15670
L16620 16270
L16620 15670
" />
<path d="M16760 16330
L17220 16330
" />
<path d="M17360 16270
L17360 15670
" />
<path d="M17360 15960
L17710 15960
" />
<path d="M17710 16270
L17710 15670
" />
<path d="M17990 16270
L17990 15670
" />
</g>
<g style="fill:#000000; fill-opacity:0.0; 
stroke:#000000; stroke-width:100; stroke-opacity:1; 
stroke-linecap:round; stroke-linejoin:round;">
<polyline fill="none;"
points="18500,16000
18200,15460
15610,15460
15610,16000
15610,16540
18200,16540
18500,16000
" /> 
</g>
<g style="fill:#000000; fill-opacity:0.0; 
stroke:#000000; stroke-width:60; stroke-opacity:1; 
stroke-linecap:round; stroke-linejoin:round;">
<path d="M42770 12500
L42170 12500
" />
<path d="M42460 12500
L42460 12150
" />
<path d="M42770 12150
L42170 12150
" />
<path d="M42170 11950
L42770 11750
L42170 11550
" />
</g>
<g style="fill:#000000; fill-opacity:0.0; 
stroke:#000000; stroke-width:100; stroke-opacity:1; 
stroke-linecap:round; stroke-linejoin:round;">
<polyline fill="none;"
points="42500,13000
43040,12700
43040,11270
42500,11270
41960,11270
41960,12700
42500,13000
" /> 
</g>
<g style="fill:#000000; fill-opacity:0.0; 
stroke:#000000; stroke-width:60; stroke-opacity:1; 
stroke-linecap:round; stroke-linejoin:round;">
<path d="M7490 9170
L7690 9770
L7890 9170
" />
<path d="M8430 9710
L8400 9740
L8310 9770
L8250 9770
L8170 9740
L8110 9690
L8080 9630
L8050 9510
L8050 9430
L8080 9310
L8110 9260
L8170 9200
L8250 9170
L8310 9170
L8400 9200
L8430 9230
" />
<path d="M9030 9710
L9000 9740
L8910 9770
L8850 9770
L8770 9740
L8710 9690
L8680 9630
L8650 9510
L8650 9430
L8680 9310
L8710 9260
L8770 9200
L8850 9170
L8910 9170
L9000 9200
L9030 9230
" />
</g>
<g style="fill:#000000; fill-opacity:0.0; 
stroke:#000000; stroke-width:100; stroke-opacity:1; 
stroke-linecap:round; stroke-linejoin:round;">
<polyline fill="none;"
points="9500,9500
9200,8960
7200,8960
7200,9500
7200,10040
9200,10040
9500,9500
" /> 
</g>
<g style="fill:#000000; fill-opacity:0.0; 
stroke:#000000; stroke-width:60; stroke-opacity:1; 
stroke-linecap:round; stroke-linejoin:round;">
<path d="M6780 11770
L6780 11170
" />
<path d="M7070 11770
L7070 11170
L7420 11770
L7420 11170
" />
<path d="M7560 11830
L8020 11830
" />
<path d="M8450 11770
L8160 11770
L8160 11170
" />
<path d="M8770 11170
L8880 11170
L8940 11200
L9000 11260
L9020 11370
L9020 11570
L9000 11690
L8940 11740
L8880 11770
L8770 11770
L8710 11740
L8650 11690
L8620 11570
L8620 11370
L8650 11260
L8710 11200
L8770 11170
" />
</g>
<g style="fill:#000000; fill-opacity:0.0; 
stroke:#000000; stroke-width:100; stroke-opacity:1; 
stroke-linecap:round; stroke-linejoin:round;">
<polyline fill="none;"
points="9500,11500
9200,10960
6410,10960
6410,11500
6410,12040
9200,12040
9500,11500
" /> 
</g>
<g style="fill:#000000; fill-opacity:0.0; 
stroke:#000000; stroke-width:60; stroke-opacity:1; 
stroke-linecap:round; stroke-linejoin:round;">
<path d="M6980 12770
L6980 12170
" />
<path d="M7270 12770
L7270 12170
L7620 12770
L7620 12170
" />
<path d="M7760 12830
L8220 12830
" />
<path d="M8360 12770
L8360 12170
" />
<path d="M8360 12460
L8710 12460
" />
<path d="M8710 12770
L8710 12170
" />
<path d="M8990 12770
L8990 12170
" />
</g>
<g style="fill:#000000; fill-opacity:0.0; 
stroke:#000000; stroke-width:100; stroke-opacity:1; 
stroke-linecap:round; stroke-linejoin:round;">
<polyline fill="none;"
points="9500,12500
9200,11960
6610,11960
6610,12500
6610,13040
9200,13040
9500,12500
" /> 
</g>
<g style="fill:#000000; fill-opacity:0.0; 
stroke:#000000; stroke-width:60; stroke-opacity:1; 
stroke-linecap:round; stroke-linejoin:round;">
<path d="M7770 10200
L7710 10170
L7620 10170
L7540 10200
L7480 10260
L7450 10310
L7420 10430
L7420 10510
L7450 10630
L7480 10690
L7540 10740
L7620 10770
L7680 10770
L7770 10740
L7800 10710
L7800 10510
L7680 10510
" />
<path d="M8050 10770
L8050 10170
L8400 10770
L8400 10170
" />
<path d="M8680 10770
L8680 10170
L8830 10170
L8910 10200
L8970 10260
L9000 10310
L9030 10430
L9030 10510
L9000 10630
L8970 10690
L8910 10740
L8830 10770
L8680 10770
" />
</g>
<g style="fill:#000000; fill-opacity:0.0; 
stroke:#000000; stroke-width:100; stroke-opacity:1; 
stroke-linecap:round; stroke-linejoin:round;">
<polyline fill="none;"
points="9500,10500
9200,9960
7080,9960
7080,10500
7080,11040
9200,11040
9500,10500
" /> 
</g>
<g style="fill:#000000; fill-opacity:0.0; 
stroke:#000000; stroke-width:0; stroke-opacity:1; 
stroke-linecap:round; stroke-linejoin:round;">
</g>
<g style="fill:#000000; fill-opacity:0.0; 
stroke:#000000; stroke-width:60; stroke-opacity:1; 
stroke-linecap:round; stroke-linejoin:round;">
<polyline fill="none;"
points="26500,22000
26500,21000
" /> 
</g>
<g style="fill:#000000; fill-opacity:1.0; 
stroke:#000000; stroke-width:60; stroke-opacity:1; 
stroke-linecap:round; stroke-linejoin:round;">
<polyline style="fill-rule:evenodd;"
points="25500,22000
26500,21500
25500,21000
" /> 
</g>
<g style="fill:#000000; fill-opacity:0.0; 
stroke:#000000; stroke-width:60; stroke-opacity:1; 
stroke-linecap:round; stroke-linejoin:round;">
<path d="M26500 21500
L27500 21500
" />
<path d="M25500 21500
L24500 21500
" />
<path d="M25630 22760
L25630 22260
L25750 22260
L25820 22280
L25870 22330
L25890 22380
L25910 22470
L25910 22540
L25890 22640
L25870 22680
L25820 22730
L25750 22760
L25630 22760
" />
<path d="M26110 22300
L26130 22280
L26180 22260
L26300 22260
L26340 22280
L26370 22300
L26390 22350
L26390 22400
L26370 22470
L26080 22760
L26390 22760
" />
<path d="M25870 20760
L25870 20260
L25990 20260
L26060 20280
L26110 20330
L26130 20380
L26150 20470
L26150 20540
L26130 20640
L26110 20680
L26060 20730
L25990 20760
L25870 20760
" />
</g>
<g style="fill:#000000; fill-opacity:0.0; 
stroke:#000000; stroke-width:0; stroke-opacity:1; 
stroke-linecap:round; stroke-linejoin:round;">
</g>
<g style="fill:#000000; fill-opacity:0.0; 
stroke:#000000; stroke-width:100; stroke-opacity:1; 
stroke-linecap:round; stroke-linejoin:round;">
<rect x="35500" y="16600" width="2000" height="800" rx="0" />
</g>
<g style="fill:#000000; fill-opacity:0.0; 
stroke:#000000; stroke-width:60; stroke-opacity:1; 
stroke-linecap:round; stroke-linejoin:round;">
<path d="M37500 17000
L38000 17000
" />
<path d="M35500 17000
L35000 17000
" />
<path d="M36410 18000
L36250 17760
" />
<path d="M36130 18000
L36130 17500
L36320 17500
L36370 17520
L36390 17540
L36410 17590
L36410 17660
L36390 17710
L36370 17730
L36320 17760
L36130 17760
" />
<path d="M36890 18000
L36610 18000
" />
<path d="M36750 18000
L36750 17500
L36700 17570
L36650 17620
L36610 17640
" />
<path d="M36400 17200
L36120 17200
" />
<path d="M36260 17200
L36260 16700
L36210 16770
L36160 16820
L36120 16840
" />
<path d="M36710 16700
L36760 16700
L36810 16720
L36830 16740
L36860 16790
L36880 16890
L36880 17010
L36860 17100
L36830 17150
L36810 17170
L36760 17200
L36710 17200
L36670 17170
L36640 17150
L36620 17100
L36600 17010
L36600 16890
L36620 16790
L36640 16740
L36670 16720
L36710 16700
" />
<path d="M31500 18000
L31500 19000
" />
<path d="M27500 9500
L34000 9500
" />
<path d="M18500 9500
L24500 9500
" />
<path d="M20500 17000
L19500 17000
" />
<path d="M19500 17000
L19500 9500
" />
</g>
<g style="fill:#000000; fill-opacity:0.0; 
stroke:#000000; stroke-width:0; stroke-opacity:1; 
stroke-linecap:round; stroke-linejoin:round;">
</g>
<g style="fill:#000000; fill-opacity:1.0; 
stroke:#000000; stroke-width:100; stroke-opacity:1; 
stroke-linecap:round; stroke-linejoin:round;">
<circle cx="19500" cy="9500" r="200" /> 
</g>
<g style="fill:#000000; fill-opacity:1.0; 
stroke:#000000; stroke-width:60; stroke-opacity:1; 
stroke-linecap:round; stroke-linejoin:round;">
</g>
<g style="fill:#000000; fill-opacity:0.0; 
stroke:#000000; stroke-width:60; stroke-opacity:1; 
stroke-linecap:round; stroke-linejoin:round;">
<path d="M18500 16000
L20500 16000
" />
<path d="M18500 15000
L20500 15000
" />
</g>
<g style="fill:#000000; fill-opacity:0.0; 
stroke:#000000; stroke-width:0; stroke-opacity:1; 
stroke-linecap:round; stroke-linejoin:round;">
</g>
<g style="fill:#000000; fill-opacity:1.0; 
stroke:#000000; stroke-width:100; stroke-opacity:1; 
stroke-linecap:round; stroke-linejoin:round;">
<circle cx="23000" cy="9500" r="200" /> 
</g>
<g style="fill:#000000; fill-opacity:1.0; 
stroke:#000000; stroke-width:0; stroke-opacity:1; 
stroke-linecap:round; stroke-linejoin:round;">
</g>
<g style="fill:#000000; fill-opacity:1.0; 
stroke:#000000; stroke-width:100; stroke-opacity:1; 
stroke-linecap:round; stroke-linejoin:round;">
<circle cx="41000" cy="17000" r="200" /> 
</g>
<g style="fill:#000000; fill-opacity:1.0; 
stroke:#000000; stroke-width:60; stroke-opacity:1; 
stroke-linecap:round; stroke-linejoin:round;">
</g>
<g style="fill:#000000; fill-opacity:0.0; 
stroke:#000000; stroke-width:60; stroke-opacity:1; 
stroke-linecap:round; stroke-linejoin:round;">
<path d="M41000 21000
L54000 21000
" />
<path d="M24500 21500
L20500 21500
" />
<path d="M20500 21500
L20500 18000
" />
<path d="M34000 21500
L27500 21500
" />
<path d="M34000 13500
L34000 21500
" />
</g>
<g style="fill:#000000; fill-opacity:0.0; 
stroke:#000000; stroke-width:0; stroke-opacity:1; 
stroke-linecap:round; stroke-linejoin:round;">
</g>
<g style="fill:#000000; fill-opacity:1.0; 
stroke:#000000; stroke-width:100; stroke-opacity:1; 
stroke-linecap:round; stroke-linejoin:round;">
<circle cx="34000" cy="17000" r="200" /> 
</g>
<g style="fill:#000000; fill-opacity:1.0; 
stroke:#000000; stroke-width:60; stroke-opacity:1; 
stroke-linecap:round; stroke-linejoin:round;">
</g>
<g style="fill:#000000; fill-opacity:0.0; 
stroke:#000000; stroke-width:60; stroke-opacity:1; 
stroke-linecap:round; stroke-linejoin:round;">
<path d="M34000 9500
L34000 11500
" />
<path d="M31500 15000
L32500 15000
" />
<path d="M32500 15000
L32500 9500
" />
</g>
<g style="fill:#000000; fill-opacity:0.0; 
stroke:#000000; stroke-width:0; stroke-opacity:1; 
stroke-linecap:round; stroke-linejoin:round;">
</g>
<g style="fill:#000000; fill-opacity:1.0; 
stroke:#000000; stroke-width:100; stroke-opacity:1; 
stroke-linecap:round; stroke-linejoin:round;">
<circle cx="32500" cy="9500" r="200" /> 
</g>
<g style="fill:#000000; fill-opacity:1.0; 
stroke:#000000; stroke-width:0; stroke-opacity:1; 
stroke-linecap:round; stroke-linejoin:round;">
</g>
<g style="fill:#000000; fill-opacity:0.0; 
stroke:#000000; stroke-width:60; stroke-opacity:1; 
stroke-linecap:round; stroke-linejoin:round;">
<rect x="11000" y="12450" width="600" height="100" rx="0" />
<rect x="11000" y="11450" width="600" height="100" rx="0" />
<rect x="11000" y="10450" width="600" height="100" rx="0" />
<rect x="11000" y="9450" width="600" height="100" rx="0" />
<rect x="11000" y="9000" width="1000" height="4000" rx="0" />
<path d="M11000 9500
L9500 9500
" />
<path d="M10390 9380
L10110 9380
" />
<path d="M10250 9380
L10250 8880
L10200 8950
L10150 9000
L10110 9020
" />
<path d="M11000 10500
L9500 10500
" />
<path d="M10110 9920
L10130 9900
L10180 9880
L10300 9880
L10340 9900
L10370 9920
L10390 9970
L10390 10020
L10370 10090
L10080 10380
L10390 10380
" />
<path d="M11000 11500
L9500 11500
" />
<path d="M10080 10880
L10390 10880
L10220 11070
L10300 11070
L10340 11090
L10370 11110
L10390 11160
L10390 11280
L10370 11330
L10340 11350
L10300 11380
L10150 11380
L10110 11350
L10080 11330
" />
<path d="M11000 12500
L9500 12500
" />
<path d="M10340 12040
L10340 12380
" />
<path d="M10220 11850
L10110 12210
L10410 12210
" />
<path d="M11130 8700
L11130 8200
L11320 8200
L11370 8220
L11390 8240
L11410 8290
L11410 8360
L11390 8410
L11370 8430
L11320 8460
L11130 8460
" />
<path d="M11890 8700
L11610 8700
" />
<path d="M11750 8700
L11750 8200
L11700 8270
L11650 8320
L11610 8340
" />
<path d="M12650 13020
L12670 13040
L12700 13110
L12700 13160
L12670 13230
L12620 13280
L12580 13300
L12480 13320
L12410 13320
L12320 13300
L12270 13280
L12220 13230
L12200 13160
L12200 13110
L12220 13040
L12240 13020
" />
<path d="M12200 12710
L12200 12610
L12220 12560
L12270 12520
L12360 12490
L12530 12490
L12620 12520
L12670 12560
L12700 12610
L12700 12710
L12670 12750
L12620 12800
L12530 12820
L12360 12820
L12270 12800
L12220 12750
L12200 12710
" />
<path d="M12700 12280
L12200 12280
L12700 12000
L12200 12000
" />
<path d="M12700 11760
L12200 11760
L12700 11480
L12200 11480
" />
<path d="M12740 11360
L12740 10980
" />
<path d="M12200 10770
L12200 10720
L12220 10670
L12240 10650
L12290 10620
L12390 10600
L12510 10600
L12600 10620
L12650 10650
L12670 10670
L12700 10720
L12700 10770
L12670 10810
L12650 10840
L12600 10860
L12510 10880
L12390 10880
L12290 10860
L12240 10840
L12220 10810
L12200 10770
" />
<path d="M12700 10120
L12700 10400
" />
<path d="M12700 10260
L12200 10260
L12270 10310
L12320 10360
L12340 10400
" />
<path d="M12200 9950
L12700 9620
" />
<path d="M12200 9620
L12700 9950
" />
<path d="M12200 9330
L12200 9280
L12220 9230
L12240 9210
L12290 9180
L12390 9160
L12510 9160
L12600 9180
L12650 9210
L12670 9230
L12700 9280
L12700 9330
L12670 9370
L12650 9400
L12600 9420
L12510 9440
L12390 9440
L12290 9420
L12240 9400
L12220 9370
L12200 9330
" />
<path d="M12360 8730
L12700 8730
" />
<path d="M12170 8850
L12530 8960
L12530 8660
" />
</g>
<g style="fill:#000000; fill-opacity:0.0; 
stroke:#000000; stroke-width:0; stroke-opacity:1; 
stroke-linecap:round; stroke-linejoin:round;">
</g>
<g style="fill:#000000; fill-opacity:0.0; 
stroke:#000000; stroke-width:60; stroke-opacity:1; 
stroke-linecap:round; stroke-linejoin:round;">
<rect x="55500" y="20950" width="600" height="100" rx="0" />
<rect x="55500" y="19950" width="600" height="100" rx="0" />
<rect x="55500" y="18950" width="600" height="100" rx="0" />
<rect x="55500" y="18500" width="1000" height="3000" rx="0" />
<path d="M55500 19000
L54000 19000
" />
<path d="M54890 18880
L54610 18880
" />
<path d="M54750 18880
L54750 18380
L54700 18450
L54650 18500
L54610 18520
" />
<path d="M55500 20000
L54000 20000
" />
<path d="M54610 19420
L54630 19400
L54680 19380
L54800 19380
L54840 19400
L54870 19420
L54890 19470
L54890 19520
L54870 19590
L54580 19880
L54890 19880
" />
<path d="M55500 21000
L54000 21000
" />
<path d="M54580 20380
L54890 20380
L54720 20570
L54800 20570
L54840 20590
L54870 20610
L54890 20660
L54890 20780
L54870 20830
L54840 20850
L54800 20880
L54650 20880
L54610 20850
L54580 20830
" />
<path d="M55630 18200
L55630 17700
L55820 17700
L55870 17720
L55890 17740
L55910 17790
L55910 17860
L55890 17910
L55870 17930
L55820 17960
L55630 17960
" />
<path d="M56110 17740
L56130 17720
L56180 17700
L56300 17700
L56340 17720
L56370 17740
L56390 17790
L56390 17840
L56370 17910
L56080 18200
L56390 18200
" />
<path d="M57150 22020
L57170 22040
L57200 22110
L57200 22160
L57170 22230
L57120 22280
L57080 22300
L56980 22320
L56910 22320
L56820 22300
L56770 22280
L56720 22230
L56700 22160
L56700 22110
L56720 22040
L56740 22020
" />
<path d="M56700 21710
L56700 21610
L56720 21560
L56770 21520
L56860 21490
L57030 21490
L57120 21520
L57170 21560
L57200 21610
L57200 21710
L57170 21750
L57120 21800
L57030 21820
L56860 21820
L56770 21800
L56720 21750
L56700 21710
" />
<path d="M57200 21280
L56700 21280
L57200 21000
L56700 21000
" />
<path d="M57200 20760
L56700 20760
L57200 20480
L56700 20480
" />
<path d="M57240 20360
L57240 19980
" />
<path d="M56700 19770
L56700 19720
L56720 19670
L56740 19650
L56790 19620
L56890 19600
L57010 19600
L57100 19620
L57150 19650
L57170 19670
L57200 19720
L57200 19770
L57170 19810
L57150 19840
L57100 19860
L57010 19880
L56890 19880
L56790 19860
L56740 19840
L56720 19810
L56700 19770
" />
<path d="M57200 19120
L57200 19400
" />
<path d="M57200 19260
L56700 19260
L56770 19310
L56820 19360
L56840 19400
" />
<path d="M56700 18950
L57200 18620
" />
<path d="M56700 18620
L57200 18950
" />
<path d="M56700 18330
L56700 18280
L56720 18230
L56740 18210
L56790 18180
L56890 18160
L57010 18160
L57100 18180
L57150 18210
L57170 18230
L57200 18280
L57200 18330
L57170 18370
L57150 18400
L57100 18420
L57010 18440
L56890 18440
L56790 18420
L56740 18400
L56720 18370
L56700 18330
" />
<path d="M56700 17990
L56700 17680
L56890 17850
L56890 17770
L56910 17730
L56930 17700
L56980 17680
L57100 17680
L57150 17700
L57170 17730
L57200 17770
L57200 17920
L57170 17960
L57150 17990
" />
<path d="M41000 13000
L50000 13000
" />
<path d="M50000 13000
L50000 19000
" />
<path d="M48670 16380
L48670 16270
L48700 16210
L48760 16150
L48870 16130
L49070 16130
L49190 16150
L49240 16210
L49270 16270
L49270 16380
L49240 16440
L49190 16500
L49070 16530
L48870 16530
L48760 16500
L48700 16440
L48670 16380
" />
<path d="M48670 15870
L49160 15870
L49210 15840
L49240 15810
L49270 15750
L49270 15640
L49240 15580
L49210 15550
L49160 15520
L48670 15520
" />
<path d="M48670 15320
L48670 14980
" />
<path d="M49270 15150
L48670 15150
" />
</g>
<g style="fill:#000000; fill-opacity:0.0; 
stroke:#000000; stroke-width:100; stroke-opacity:1; 
stroke-linecap:round; stroke-linejoin:round;">
<polyline fill="none;"
points="49000,17000
49540,16700
49540,14690
49000,14690
48460,14690
48460,16700
49000,17000
" /> 
</g>
<g style="fill:#000000; fill-opacity:0.0; 
stroke:#000000; stroke-width:60; stroke-opacity:1; 
stroke-linecap:round; stroke-linejoin:round;">
<path d="M35000 17000
L31500 17000
" />
<path d="M31500 16000
L33000 16000
" />
<path d="M33000 16000
L33000 15000
" />
</g>
<g style="fill:#000000; fill-opacity:0.0; 
stroke:#000000; stroke-width:0; stroke-opacity:1; 
stroke-linecap:round; stroke-linejoin:round;">
</g>
<g style="fill:#000000; fill-opacity:0.0; 
stroke:#000000; stroke-width:200; stroke-opacity:1; 
stroke-linecap:round; stroke-linejoin:round;">
<polyline fill="none;"
points="44800,17800
44800,16200
" /> 
<polyline fill="none;"
points="44200,17800
44200,16200
" /> 
</g>
<g style="fill:#000000; fill-opacity:0.0; 
stroke:#000000; stroke-width:60; stroke-opacity:1; 
stroke-linecap:round; stroke-linejoin:round;">
<path d="M44100 17000
L43000 17000
" />
<path d="M44900 17000
L46000 17000
" />
<path d="M43650 16350
L43670 16370
L43700 16440
L43700 16490
L43670 16560
L43620 16610
L43580 16630
L43480 16650
L43410 16650
L43320 16630
L43270 16610
L43220 16560
L43200 16490
L43200 16440
L43220 16370
L43240 16350
" />
<path d="M43200 16180
L43200 15870
L43390 16040
L43390 15960
L43410 15920
L43430 15890
L43480 15870
L43600 15870
L43650 15890
L43670 15920
L43700 15960
L43700 16110
L43670 16150
L43650 16180
" />
<path d="M45650 16350
L45670 16370
L45700 16440
L45700 16490
L45670 16560
L45620 16610
L45580 16630
L45480 16650
L45410 16650
L45320 16630
L45270 16610
L45220 16560
L45200 16490
L45200 16440
L45220 16370
L45240 16350
" />
<path d="M43000 17000
L38000 17000
" />
</g>
<g style="fill:#000000; fill-opacity:0.0; 
stroke:#000000; stroke-width:0; stroke-opacity:1; 
stroke-linecap:round; stroke-linejoin:round;">
</g>
<g style="fill:#000000; fill-opacity:0.0; 
stroke:#000000; stroke-width:100; stroke-opacity:1; 
stroke-linecap:round; stroke-linejoin:round;">
<rect x="47100" y="17500" width="800" height="2000" rx="0" />
</g>
<g style="fill:#000000; fill-opacity:0.0; 
stroke:#000000; stroke-width:60; stroke-opacity:1; 
stroke-linecap:round; stroke-linejoin:round;">
<path d="M47500 17500
L47500 17000
" />
<path d="M47500 19500
L47500 20000
" />
<path d="M48500 18590
L48260 18750
" />
<path d="M48500 18870
L48000 18870
L48000 18680
L48020 18630
L48040 18610
L48090 18590
L48160 18590
L48210 18610
L48230 18630
L48260 18680
L48260 18870
" />
<path d="M48160 18160
L48500 18160
" />
<path d="M47970 18280
L48330 18390
L48330 18090
" />
<path d="M47700 18350
L47460 18510
" />
<path d="M47700 18630
L47200 18630
L47200 18440
L47220 18390
L47240 18370
L47290 18350
L47360 18350
L47410 18370
L47430 18390
L47460 18440
L47460 18630
" />
<path d="M46000 17000
L49000 17000
" />
<path d="M47500 20000
L47500 21000
" />
</g>
<g style="fill:#000000; fill-opacity:0.0; 
stroke:#000000; stroke-width:0; stroke-opacity:1; 
stroke-linecap:round; stroke-linejoin:round;">
</g>
<g style="fill:#000000; fill-opacity:1.0; 
stroke:#000000; stroke-width:100; stroke-opacity:1; 
stroke-linecap:round; stroke-linejoin:round;">
<circle cx="47500" cy="21000" r="200" /> 
</g>
<g style="fill:#000000; fill-opacity:1.0; 
stroke:#000000; stroke-width:60; stroke-opacity:1; 
stroke-linecap:round; stroke-linejoin:round;">
</g>
<g style="fill:#000000; fill-opacity:0.0; 
stroke:#000000; stroke-width:60; stroke-opacity:1; 
stroke-linecap:round; stroke-linejoin:round;">
<path d="M49000 17000
L49000 20000
" />
</g>
<g style="fill:#000000; fill-opacity:0.0; 
stroke:#000000; stroke-width:0; stroke-opacity:1; 
stroke-linecap:round; stroke-linejoin:round;">
</g>
<g style="fill:#000000; fill-opacity:1.0; 
stroke:#000000; stroke-width:100; stroke-opacity:1; 
stroke-linecap:round; stroke-linejoin:round;">
<circle cx="47500" cy="17000" r="200" /> 
</g>
<g style="fill:#000000; fill-opacity:1.0; 
stroke:#000000; stroke-width:0; stroke-opacity:1; 
stroke-linecap:round; stroke-linejoin:round;">
</g>
<g style="fill:#000000; fill-opacity:0.0; 
stroke:#000000; stroke-width:60; stroke-opacity:1; 
stroke-linecap:round; stroke-linejoin:round;">
<path d="M51500 19998.7 A750 750 0.0 0 0 50000 19998.7 " />
<path d="M51500 20001.3 A750 750 0.0 0 0 53000 20001.3 " />
<path d="M50000 20000
L49000 20000
" />
<path d="M49610 19880
L49390 19880
" />
<path d="M49500 19880
L49500 19480
L49460 19540
L49420 19580
L49390 19600
" />
<path d="M53000 20000
L54000 20000
" />
<path d="M53390 19520
L53410 19500
L53440 19480
L53540 19480
L53580 19500
L53600 19520
L53610 19560
L53610 19600
L53600 19650
L53370 19880
L53610 19880
" />
<path d="M52340 19430
L52170 19430
" />
<path d="M52170 19700
L52170 19200
L52410 19200
" />
<path d="M52860 19700
L52580 19700
" />
<path d="M52720 19700
L52720 19200
L52670 19270
L52620 19320
L52580 19340
" />
<path d="M49850 20430
L49680 20430
" />
<path d="M49680 20700
L49680 20200
L49920 20200
" />
<path d="M50110 20200
L50110 20600
L50130 20650
L50160 20670
L50200 20700
L50300 20700
L50350 20670
L50370 20650
L50390 20600
L50390 20200
" />
<path d="M50610 20670
L50680 20700
L50800 20700
L50840 20670
L50870 20650
L50890 20600
L50890 20550
L50870 20510
L50840 20480
L50800 20460
L50700 20430
L50650 20410
L50630 20390
L50610 20340
L50610 20290
L50630 20240
L50650 20220
L50700 20200
L50820 20200
L50890 20220
" />
<path d="M51110 20430
L51280 20430
" />
<path d="M51350 20700
L51110 20700
L51110 20200
L51350 20200
" />
<path d="M50000 19000
L54000 19000
" />
</g>
<g style="fill:#000000; fill-opacity:0.0; 
stroke:#000000; stroke-width:0; stroke-opacity:1; 
stroke-linecap:round; stroke-linejoin:round;">
</g>
<g style="fill:#000000; fill-opacity:0.0; 
stroke:#000000; stroke-width:100; stroke-opacity:1; 
stroke-linecap:round; stroke-linejoin:round;">
<circle cx="40500" cy="15000" r="1110" /> 
</g>
<g style="fill:#000000; fill-opacity:0.0; 
stroke:#000000; stroke-width:60; stroke-opacity:1; 
stroke-linecap:round; stroke-linejoin:round;">
<polyline fill="none;"
points="40300,15700
41000,15700
" /> 
</g>
<g style="fill:#000000; fill-opacity:0.0; 
stroke:#000000; stroke-width:100; stroke-opacity:1; 
stroke-linecap:round; stroke-linejoin:round;">
<polyline fill="none;"
points="40300,15500
40300,15900
" /> 
</g>
<g style="fill:#000000; fill-opacity:0.0; 
stroke:#000000; stroke-width:60; stroke-opacity:1; 
stroke-linecap:round; stroke-linejoin:round;">
<polyline fill="none;"
points="40300,15000
41000,15000
" /> 
</g>
<g style="fill:#000000; fill-opacity:0.0; 
stroke:#000000; stroke-width:100; stroke-opacity:1; 
stroke-linecap:round; stroke-linejoin:round;">
<polyline fill="none;"
points="40300,14800
40300,15200
" /> 
</g>
<g style="fill:#000000; fill-opacity:0.0; 
stroke:#000000; stroke-width:60; stroke-opacity:1; 
stroke-linecap:round; stroke-linejoin:round;">
<polyline fill="none;"
points="40300,14300
41000,14300
" /> 
</g>
<g style="fill:#000000; fill-opacity:0.0; 
stroke:#000000; stroke-width:100; stroke-opacity:1; 
stroke-linecap:round; stroke-linejoin:round;">
<polyline fill="none;"
points="40300,14100
40300,14500
" /> 
</g>
<g style="fill:#000000; fill-opacity:0.0; 
stroke:#000000; stroke-width:60; stroke-opacity:1; 
stroke-linecap:round; stroke-linejoin:round;">
<polyline fill="none;"
points="41000,15700
41000,16000
" /> 
<polyline fill="none;"
points="41000,15700
41000,15000
" /> 
<polyline fill="none;"
points="41000,14000
41000,14300
" /> 
</g>
<g style="fill:#000000; fill-opacity:0.0; 
stroke:#000000; stroke-width:100; stroke-opacity:1; 
stroke-linecap:round; stroke-linejoin:round;">
<polyline fill="none;"
points="40100,14250
40100,15750
40100,15750
" /> 
</g>
<g style="fill:#000000; fill-opacity:1.0; 
stroke:#000000; stroke-width:60; stroke-opacity:1; 
stroke-linecap:round; stroke-linejoin:round;">
<polyline style="fill-rule:evenodd;"
points="40400,15000
40800,14850
40800,15150
40400,15000
" /> 
</g>
<g style="fill:#000000; fill-opacity:0.0; 
stroke:#000000; stroke-width:60; stroke-opacity:1; 
stroke-linecap:round; stroke-linejoin:round;">
<path d="M40100 15000
L38000 15000
" />
<path d="M39190 15580
L38910 15580
" />
<path d="M39050 15580
L39050 15080
L39000 15150
L38950 15200
L38910 15220
" />
<path d="M41000 14000
L41000 13000
" />
<path d="M41120 13640
L41100 13620
L41080 13570
L41080 13450
L41100 13410
L41120 13380
L41170 13360
L41220 13360
L41290 13380
L41580 13670
L41580 13360
" />
<path d="M41000 16000
L41000 17000
" />
<path d="M41080 16670
L41080 16360
L41270 16530
L41270 16450
L41290 16410
L41310 16380
L41360 16360
L41480 16360
L41530 16380
L41550 16410
L41580 16450
L41580 16600
L41550 16640
L41530 16670
" />
<path d="M42450 14740
L42400 14720
L42360 14670
L42290 14600
L42240 14580
L42190 14580
" />
<path d="M42210 14700
L42170 14670
L42120 14620
L42100 14530
L42100 14360
L42120 14270
L42170 14220
L42210 14200
L42310 14200
L42360 14220
L42400 14270
L42430 14360
L42430 14530
L42400 14620
L42360 14670
L42310 14700
L42210 14700
" />
<path d="M42900 14700
L42620 14700
" />
<path d="M42760 14700
L42760 14200
L42710 14270
L42660 14320
L42620 14340
" />
<path d="M42100 15740
L42050 15720
L42010 15670
L41940 15600
L41890 15580
L41840 15580
" />
<path d="M41860 15700
L41820 15670
L41770 15620
L41750 15530
L41750 15360
L41770 15270
L41820 15220
L41860 15200
L41960 15200
L42010 15220
L42050 15270
L42080 15360
L42080 15530
L42050 15620
L42010 15670
L41960 15700
L41860 15700
" />
<path d="M42170 15740
L42550 15740
" />
<path d="M42670 15700
L42670 15200
L42950 15700
L42950 15200
" />
<path d="M43190 15700
L43190 15200
L43360 15550
L43520 15200
L43520 15700
" />
<path d="M43850 15200
L43950 15200
L44000 15220
L44040 15270
L44070 15360
L44070 15530
L44040 15620
L44000 15670
L43950 15700
L43850 15700
L43810 15670
L43760 15620
L43740 15530
L43740 15360
L43760 15270
L43810 15220
L43850 15200
" />
<path d="M44260 15670
L44330 15700
L44450 15700
L44490 15670
L44520 15650
L44540 15600
L44540 15550
L44520 15510
L44490 15480
L44450 15460
L44350 15430
L44300 15410
L44280 15390
L44260 15340
L44260 15290
L44280 15240
L44300 15220
L44350 15200
L44470 15200
L44540 15220
" />
<path d="M44640 15740
L45020 15740
" />
<path d="M45400 15220
L45350 15200
L45280 15200
L45210 15220
L45160 15270
L45140 15320
L45120 15410
L45120 15480
L45140 15580
L45160 15620
L45210 15670
L45280 15700
L45330 15700
L45400 15670
L45420 15650
L45420 15480
L45330 15480
" />
<path d="M45640 15700
L45640 15200
L45760 15200
L45830 15220
L45880 15270
L45900 15320
L45920 15410
L45920 15480
L45900 15580
L45880 15620
L45830 15670
L45760 15700
L45640 15700
" />
<path d="M46120 15670
L46190 15700
L46310 15700
L46350 15670
L46380 15650
L46400 15600
L46400 15550
L46380 15510
L46350 15480
L46310 15460
L46210 15430
L46160 15410
L46140 15390
L46120 15340
L46120 15290
L46140 15240
L46160 15220
L46210 15200
L46330 15200
L46400 15220
" />
</g>
<g style="fill:#000000; fill-opacity:0.0; 
stroke:#000000; stroke-width:0; stroke-opacity:1; 
stroke-linecap:round; stroke-linejoin:round;">
</g>
<g style="fill:#000000; fill-opacity:0.0; 
stroke:#000000; stroke-width:100; stroke-opacity:1; 
stroke-linecap:round; stroke-linejoin:round;">
<circle cx="40500" cy="19000" r="1110" /> 
</g>
<g style="fill:#000000; fill-opacity:0.0; 
stroke:#000000; stroke-width:60; stroke-opacity:1; 
stroke-linecap:round; stroke-linejoin:round;">
<polyline fill="none;"
points="40300,19700
41000,19700
" /> 
</g>
<g style="fill:#000000; fill-opacity:0.0; 
stroke:#000000; stroke-width:100; stroke-opacity:1; 
stroke-linecap:round; stroke-linejoin:round;">
<polyline fill="none;"
points="40300,19500
40300,19900
" /> 
</g>
<g style="fill:#000000; fill-opacity:0.0; 
stroke:#000000; stroke-width:60; stroke-opacity:1; 
stroke-linecap:round; stroke-linejoin:round;">
<polyline fill="none;"
points="40300,19000
41000,19000
" /> 
</g>
<g style="fill:#000000; fill-opacity:0.0; 
stroke:#000000; stroke-width:100; stroke-opacity:1; 
stroke-linecap:round; stroke-linejoin:round;">
<polyline fill="none;"
points="40300,18800
40300,19200
" /> 
</g>
<g style="fill:#000000; fill-opacity:0.0; 
stroke:#000000; stroke-width:60; stroke-opacity:1; 
stroke-linecap:round; stroke-linejoin:round;">
<polyline fill="none;"
points="40300,18300
41000,18300
" /> 
</g>
<g style="fill:#000000; fill-opacity:0.0; 
stroke:#000000; stroke-width:100; stroke-opacity:1; 
stroke-linecap:round; stroke-linejoin:round;">
<polyline fill="none;"
points="40300,18100
40300,18500
" /> 
</g>
<g style="fill:#000000; fill-opacity:0.0; 
stroke:#000000; stroke-width:60; stroke-opacity:1; 
stroke-linecap:round; stroke-linejoin:round;">
<polyline fill="none;"
points="41000,19700
41000,20000
" /> 
<polyline fill="none;"
points="41000,19700
41000,19000
" /> 
<polyline fill="none;"
points="41000,18000
41000,18300
" /> 
</g>
<g style="fill:#000000; fill-opacity:0.0; 
stroke:#000000; stroke-width:100; stroke-opacity:1; 
stroke-linecap:round; stroke-linejoin:round;">
<polyline fill="none;"
points="40100,18250
40100,19750
40100,19750
" /> 
</g>
<g style="fill:#000000; fill-opacity:1.0; 
stroke:#000000; stroke-width:60; stroke-opacity:1; 
stroke-linecap:round; stroke-linejoin:round;">
<polyline style="fill-rule:evenodd;"
points="40400,19000
40800,18850
40800,19150
40400,19000
" /> 
</g>
<g style="fill:#000000; fill-opacity:0.0; 
stroke:#000000; stroke-width:60; stroke-opacity:1; 
stroke-linecap:round; stroke-linejoin:round;">
<path d="M40100 19000
L38000 19000
" />
<path d="M39190 19580
L38910 19580
" />
<path d="M39050 19580
L39050 19080
L39000 19150
L38950 19200
L38910 19220
" />
<path d="M41000 18000
L41000 17000
" />
<path d="M41120 17640
L41100 17620
L41080 17570
L41080 17450
L41100 17410
L41120 17380
L41170 17360
L41220 17360
L41290 17380
L41580 17670
L41580 17360
" />
<path d="M41000 20000
L41000 21000
" />
<path d="M41080 20670
L41080 20360
L41270 20530
L41270 20450
L41290 20410
L41310 20380
L41360 20360
L41480 20360
L41530 20380
L41550 20410
L41580 20450
L41580 20600
L41550 20640
L41530 20670
" />
<path d="M42450 18740
L42400 18720
L42360 18670
L42290 18600
L42240 18580
L42190 18580
" />
<path d="M42210 18700
L42170 18670
L42120 18620
L42100 18530
L42100 18360
L42120 18270
L42170 18220
L42210 18200
L42310 18200
L42360 18220
L42400 18270
L42430 18360
L42430 18530
L42400 18620
L42360 18670
L42310 18700
L42210 18700
" />
<path d="M42620 18240
L42640 18220
L42690 18200
L42810 18200
L42850 18220
L42880 18240
L42900 18290
L42900 18340
L42880 18410
L42590 18700
L42900 18700
" />
<path d="M42100 19740
L42050 19720
L42010 19670
L41940 19600
L41890 19580
L41840 19580
" />
<path d="M41860 19700
L41820 19670
L41770 19620
L41750 19530
L41750 19360
L41770 19270
L41820 19220
L41860 19200
L41960 19200
L42010 19220
L42050 19270
L42080 19360
L42080 19530
L42050 19620
L42010 19670
L41960 19700
L41860 19700
" />
<path d="M42170 19740
L42550 19740
" />
<path d="M42670 19700
L42670 19200
L42950 19700
L42950 19200
" />
<path d="M43190 19700
L43190 19200
L43360 19550
L43520 19200
L43520 19700
" />
<path d="M43850 19200
L43950 19200
L44000 19220
L44040 19270
L44070 19360
L44070 19530
L44040 19620
L44000 19670
L43950 19700
L43850 19700
L43810 19670
L43760 19620
L43740 19530
L43740 19360
L43760 19270
L43810 19220
L43850 19200
" />
<path d="M44260 19670
L44330 19700
L44450 19700
L44490 19670
L44520 19650
L44540 19600
L44540 19550
L44520 19510
L44490 19480
L44450 19460
L44350 19430
L44300 19410
L44280 19390
L44260 19340
L44260 19290
L44280 19240
L44300 19220
L44350 19200
L44470 19200
L44540 19220
" />
<path d="M44640 19740
L45020 19740
" />
<path d="M45400 19220
L45350 19200
L45280 19200
L45210 19220
L45160 19270
L45140 19320
L45120 19410
L45120 19480
L45140 19580
L45160 19620
L45210 19670
L45280 19700
L45330 19700
L45400 19670
L45420 19650
L45420 19480
L45330 19480
" />
<path d="M45640 19700
L45640 19200
L45760 19200
L45830 19220
L45880 19270
L45900 19320
L45920 19410
L45920 19480
L45900 19580
L45880 19620
L45830 19670
L45760 19700
L45640 19700
" />
<path d="M46120 19670
L46190 19700
L46310 19700
L46350 19670
L46380 19650
L46400 19600
L46400 19550
L46380 19510
L46350 19480
L46310 19460
L46210 19430
L46160 19410
L46140 19390
L46120 19340
L46120 19290
L46140 19240
L46160 19220
L46210 19200
L46330 19200
L46400 19220
" />
<path d="M33000 15000
L38000 15000
" />
<path d="M31500 19000
L38000 19000
" />
</g> 
</svg>
