G04 #@! TF.FileFunction,Soldermask,Top*
%FSLAX46Y46*%
G04 Gerber Fmt 4.6, Leading zero omitted, Abs format (unit mm)*
G04 Created by KiCad (PCBNEW 4.0.0-rc2-1-stable) date Tuesday, May 10, 2016 'pmt' 02:18:49 pm*
%MOMM*%
G01*
G04 APERTURE LIST*
%ADD10C,0.100000*%
%ADD11R,1.543000X0.908000*%
%ADD12R,2.100000X1.300000*%
%ADD13R,2.432000X2.127200*%
%ADD14O,2.432000X2.127200*%
%ADD15R,2.900000X1.400000*%
%ADD16R,1.300000X2.100000*%
%ADD17C,2.398980*%
%ADD18R,1.400000X2.000000*%
%ADD19R,2.899360X2.200860*%
%ADD20O,2.899360X1.901140*%
%ADD21O,1.901140X2.899360*%
G04 APERTURE END LIST*
D10*
D11*
X137922000Y-107315000D03*
X137922000Y-108585000D03*
X137922000Y-109855000D03*
X137922000Y-111125000D03*
X131572000Y-111125000D03*
X131572000Y-109855000D03*
X131572000Y-108585000D03*
X131572000Y-107315000D03*
D12*
X141097000Y-111813000D03*
X141097000Y-108913000D03*
D13*
X127000000Y-101600000D03*
D14*
X127000000Y-104140000D03*
X127000000Y-106680000D03*
X127000000Y-109220000D03*
D13*
X149860000Y-106680000D03*
D14*
X149860000Y-104140000D03*
X149860000Y-101600000D03*
D15*
X149860000Y-109371000D03*
X149860000Y-112371000D03*
D16*
X149299000Y-114808000D03*
X152199000Y-114808000D03*
D17*
X146050000Y-101005640D03*
X146050000Y-106006900D03*
D18*
X131850000Y-105156000D03*
X134850000Y-105156000D03*
D15*
X140970000Y-104497000D03*
X140970000Y-101497000D03*
D19*
X136618980Y-101600000D03*
X132621020Y-101600000D03*
X131030980Y-113792000D03*
X127033020Y-113792000D03*
D20*
X145161000Y-112903000D03*
X145161000Y-110363000D03*
X145161000Y-115443000D03*
D21*
X138049000Y-116459000D03*
X135509000Y-116459000D03*
X140589000Y-116459000D03*
D16*
X142801000Y-106680000D03*
X139901000Y-106680000D03*
X134694000Y-113284000D03*
X137594000Y-113284000D03*
M02*
