G04 #@! TF.FileFunction,Legend,Top*
%FSLAX46Y46*%
G04 Gerber Fmt 4.6, Leading zero omitted, Abs format (unit mm)*
G04 Created by KiCad (PCBNEW 4.0.1-stable) date 4/14/2016 8:21:18 AM*
%MOMM*%
G01*
G04 APERTURE LIST*
%ADD10C,0.100000*%
%ADD11C,0.150000*%
G04 APERTURE END LIST*
D10*
D11*
X134743000Y-114046000D02*
X134193000Y-114496000D01*
X134193000Y-114496000D02*
X134193000Y-113596000D01*
X134193000Y-113596000D02*
X134743000Y-114046000D01*
X134743000Y-114596000D02*
X134743000Y-113496000D01*
X136292140Y-112295940D02*
X136292140Y-112646460D01*
X136292140Y-115796060D02*
X136292140Y-115445540D01*
X132242560Y-112295940D02*
X132242560Y-112646460D01*
X136743440Y-112295940D02*
X136743440Y-112646460D01*
X136743440Y-115796060D02*
X136743440Y-115445540D01*
X132242560Y-115796060D02*
X132242560Y-115445540D01*
X136743440Y-112295940D02*
X132242560Y-112295940D01*
X136743440Y-115796060D02*
X132242560Y-115796060D01*
X134350000Y-104131000D02*
X132350000Y-104131000D01*
X132350000Y-106181000D02*
X134350000Y-106181000D01*
X140896000Y-103102000D02*
X140896000Y-106702000D01*
X144346000Y-106702000D02*
X144346000Y-103102000D01*
X134870000Y-101600000D02*
X134320000Y-102050000D01*
X134320000Y-102050000D02*
X134320000Y-101150000D01*
X134320000Y-101150000D02*
X134870000Y-101600000D01*
X134870000Y-102150000D02*
X134870000Y-101050000D01*
X136419140Y-99849940D02*
X136419140Y-100200460D01*
X136419140Y-103350060D02*
X136419140Y-102999540D01*
X132369560Y-99849940D02*
X132369560Y-100200460D01*
X136870440Y-99849940D02*
X136870440Y-100200460D01*
X136870440Y-103350060D02*
X136870440Y-102999540D01*
X132369560Y-103350060D02*
X132369560Y-102999540D01*
X136870440Y-99849940D02*
X132369560Y-99849940D01*
X136870440Y-103350060D02*
X132369560Y-103350060D01*
X147857160Y-110093760D02*
X147808900Y-110093760D01*
X145058180Y-110794800D02*
X145058180Y-110093760D01*
X145058180Y-110093760D02*
X145307100Y-110093760D01*
X147857160Y-110093760D02*
X148057820Y-110093760D01*
X148057820Y-110093760D02*
X148057820Y-110794800D01*
X147857160Y-113522760D02*
X147808900Y-113522760D01*
X145058180Y-114223800D02*
X145058180Y-113522760D01*
X145058180Y-113522760D02*
X145307100Y-113522760D01*
X147857160Y-113522760D02*
X148057820Y-113522760D01*
X148057820Y-113522760D02*
X148057820Y-114223800D01*
X137033000Y-106680000D02*
X137033000Y-111760000D01*
X137033000Y-111760000D02*
X132461000Y-111760000D01*
X132461000Y-111760000D02*
X132461000Y-106680000D01*
X132461000Y-106680000D02*
X137033000Y-106680000D01*
X135509000Y-106680000D02*
X135509000Y-107188000D01*
X135509000Y-107188000D02*
X134239000Y-107188000D01*
X134239000Y-107188000D02*
X134239000Y-106680000D01*
X140859000Y-111066000D02*
X142859000Y-111066000D01*
X142859000Y-113216000D02*
X140859000Y-113216000D01*
X125730000Y-102870000D02*
X125730000Y-110490000D01*
X128270000Y-102870000D02*
X128270000Y-110490000D01*
X128550000Y-100050000D02*
X128550000Y-101600000D01*
X125730000Y-110490000D02*
X128270000Y-110490000D01*
X128270000Y-102870000D02*
X125730000Y-102870000D01*
X125450000Y-101600000D02*
X125450000Y-100050000D01*
X125450000Y-100050000D02*
X128550000Y-100050000D01*
X148590000Y-105410000D02*
X148590000Y-100330000D01*
X148590000Y-100330000D02*
X146050000Y-100330000D01*
X146050000Y-100330000D02*
X146050000Y-105410000D01*
X145770000Y-108230000D02*
X145770000Y-106680000D01*
X146050000Y-105410000D02*
X148590000Y-105410000D01*
X148870000Y-106680000D02*
X148870000Y-108230000D01*
X148870000Y-108230000D02*
X145770000Y-108230000D01*
X128293905Y-114752381D02*
X128293905Y-113752381D01*
X128532000Y-113752381D01*
X128674858Y-113800000D01*
X128770096Y-113895238D01*
X128817715Y-113990476D01*
X128865334Y-114180952D01*
X128865334Y-114323810D01*
X128817715Y-114514286D01*
X128770096Y-114609524D01*
X128674858Y-114704762D01*
X128532000Y-114752381D01*
X128293905Y-114752381D01*
X129246286Y-113847619D02*
X129293905Y-113800000D01*
X129389143Y-113752381D01*
X129627239Y-113752381D01*
X129722477Y-113800000D01*
X129770096Y-113847619D01*
X129817715Y-113942857D01*
X129817715Y-114038095D01*
X129770096Y-114180952D01*
X129198667Y-114752381D01*
X129817715Y-114752381D01*
X137481095Y-111598381D02*
X137481095Y-110598381D01*
X138052524Y-111598381D02*
X137623952Y-111026952D01*
X138052524Y-110598381D02*
X137481095Y-111169810D01*
X131204905Y-111362667D02*
X131681096Y-111362667D01*
X131109667Y-111648381D02*
X131443000Y-110648381D01*
X131776334Y-111648381D01*
X129119334Y-104878143D02*
X129071715Y-104925762D01*
X128928858Y-104973381D01*
X128833620Y-104973381D01*
X128690762Y-104925762D01*
X128595524Y-104830524D01*
X128547905Y-104735286D01*
X128500286Y-104544810D01*
X128500286Y-104401952D01*
X128547905Y-104211476D01*
X128595524Y-104116238D01*
X128690762Y-104021000D01*
X128833620Y-103973381D01*
X128928858Y-103973381D01*
X129071715Y-104021000D01*
X129119334Y-104068619D01*
X130071715Y-104973381D02*
X129500286Y-104973381D01*
X129786000Y-104973381D02*
X129786000Y-103973381D01*
X129690762Y-104116238D01*
X129595524Y-104211476D01*
X129500286Y-104259095D01*
X142962334Y-100306143D02*
X142914715Y-100353762D01*
X142771858Y-100401381D01*
X142676620Y-100401381D01*
X142533762Y-100353762D01*
X142438524Y-100258524D01*
X142390905Y-100163286D01*
X142343286Y-99972810D01*
X142343286Y-99829952D01*
X142390905Y-99639476D01*
X142438524Y-99544238D01*
X142533762Y-99449000D01*
X142676620Y-99401381D01*
X142771858Y-99401381D01*
X142914715Y-99449000D01*
X142962334Y-99496619D01*
X143343286Y-99496619D02*
X143390905Y-99449000D01*
X143486143Y-99401381D01*
X143724239Y-99401381D01*
X143819477Y-99449000D01*
X143867096Y-99496619D01*
X143914715Y-99591857D01*
X143914715Y-99687095D01*
X143867096Y-99829952D01*
X143295667Y-100401381D01*
X143914715Y-100401381D01*
X137818905Y-104211381D02*
X137818905Y-103211381D01*
X138057000Y-103211381D01*
X138199858Y-103259000D01*
X138295096Y-103354238D01*
X138342715Y-103449476D01*
X138390334Y-103639952D01*
X138390334Y-103782810D01*
X138342715Y-103973286D01*
X138295096Y-104068524D01*
X138199858Y-104163762D01*
X138057000Y-104211381D01*
X137818905Y-104211381D01*
X139342715Y-104211381D02*
X138771286Y-104211381D01*
X139057000Y-104211381D02*
X139057000Y-103211381D01*
X138961762Y-103354238D01*
X138866524Y-103449476D01*
X138771286Y-103497095D01*
X137914095Y-100401381D02*
X137914095Y-99401381D01*
X138485524Y-100401381D02*
X138056952Y-99829952D01*
X138485524Y-99401381D02*
X137914095Y-99972810D01*
X130571905Y-100115667D02*
X131048096Y-100115667D01*
X130476667Y-100401381D02*
X130810000Y-99401381D01*
X131143334Y-100401381D01*
X148113762Y-110021619D02*
X148018524Y-109974000D01*
X147923286Y-109878762D01*
X147780429Y-109735905D01*
X147685190Y-109688286D01*
X147589952Y-109688286D01*
X147637571Y-109926381D02*
X147542333Y-109878762D01*
X147447095Y-109783524D01*
X147399476Y-109593048D01*
X147399476Y-109259714D01*
X147447095Y-109069238D01*
X147542333Y-108974000D01*
X147637571Y-108926381D01*
X147828048Y-108926381D01*
X147923286Y-108974000D01*
X148018524Y-109069238D01*
X148066143Y-109259714D01*
X148066143Y-109593048D01*
X148018524Y-109783524D01*
X147923286Y-109878762D01*
X147828048Y-109926381D01*
X147637571Y-109926381D01*
X149018524Y-109926381D02*
X148447095Y-109926381D01*
X148732809Y-109926381D02*
X148732809Y-108926381D01*
X148637571Y-109069238D01*
X148542333Y-109164476D01*
X148447095Y-109212095D01*
X143795762Y-116117619D02*
X143700524Y-116070000D01*
X143605286Y-115974762D01*
X143462429Y-115831905D01*
X143367190Y-115784286D01*
X143271952Y-115784286D01*
X143319571Y-116022381D02*
X143224333Y-115974762D01*
X143129095Y-115879524D01*
X143081476Y-115689048D01*
X143081476Y-115355714D01*
X143129095Y-115165238D01*
X143224333Y-115070000D01*
X143319571Y-115022381D01*
X143510048Y-115022381D01*
X143605286Y-115070000D01*
X143700524Y-115165238D01*
X143748143Y-115355714D01*
X143748143Y-115689048D01*
X143700524Y-115879524D01*
X143605286Y-115974762D01*
X143510048Y-116022381D01*
X143319571Y-116022381D01*
X144129095Y-115117619D02*
X144176714Y-115070000D01*
X144271952Y-115022381D01*
X144510048Y-115022381D01*
X144605286Y-115070000D01*
X144652905Y-115117619D01*
X144700524Y-115212857D01*
X144700524Y-115308095D01*
X144652905Y-115450952D01*
X144081476Y-116022381D01*
X144700524Y-116022381D01*
X137414095Y-105624381D02*
X137414095Y-106433905D01*
X137461714Y-106529143D01*
X137509333Y-106576762D01*
X137604571Y-106624381D01*
X137795048Y-106624381D01*
X137890286Y-106576762D01*
X137937905Y-106529143D01*
X137985524Y-106433905D01*
X137985524Y-105624381D01*
X138985524Y-106624381D02*
X138414095Y-106624381D01*
X138699809Y-106624381D02*
X138699809Y-105624381D01*
X138604571Y-105767238D01*
X138509333Y-105862476D01*
X138414095Y-105910095D01*
X142200334Y-114498381D02*
X141867000Y-114022190D01*
X141628905Y-114498381D02*
X141628905Y-113498381D01*
X142009858Y-113498381D01*
X142105096Y-113546000D01*
X142152715Y-113593619D01*
X142200334Y-113688857D01*
X142200334Y-113831714D01*
X142152715Y-113926952D01*
X142105096Y-113974571D01*
X142009858Y-114022190D01*
X141628905Y-114022190D01*
X143152715Y-114498381D02*
X142581286Y-114498381D01*
X142867000Y-114498381D02*
X142867000Y-113498381D01*
X142771762Y-113641238D01*
X142676524Y-113736476D01*
X142581286Y-113784095D01*
X126769905Y-112212381D02*
X126769905Y-111212381D01*
X127150858Y-111212381D01*
X127246096Y-111260000D01*
X127293715Y-111307619D01*
X127341334Y-111402857D01*
X127341334Y-111545714D01*
X127293715Y-111640952D01*
X127246096Y-111688571D01*
X127150858Y-111736190D01*
X126769905Y-111736190D01*
X128293715Y-112212381D02*
X127722286Y-112212381D01*
X128008000Y-112212381D02*
X128008000Y-111212381D01*
X127912762Y-111355238D01*
X127817524Y-111450476D01*
X127722286Y-111498095D01*
X145740381Y-101449095D02*
X144740381Y-101449095D01*
X144740381Y-101068142D01*
X144788000Y-100972904D01*
X144835619Y-100925285D01*
X144930857Y-100877666D01*
X145073714Y-100877666D01*
X145168952Y-100925285D01*
X145216571Y-100972904D01*
X145264190Y-101068142D01*
X145264190Y-101449095D01*
X144835619Y-100496714D02*
X144788000Y-100449095D01*
X144740381Y-100353857D01*
X144740381Y-100115761D01*
X144788000Y-100020523D01*
X144835619Y-99972904D01*
X144930857Y-99925285D01*
X145026095Y-99925285D01*
X145168952Y-99972904D01*
X145740381Y-100544333D01*
X145740381Y-99925285D01*
M02*
