G04 #@! TF.FileFunction,Copper,L1,Top,Signal*
%FSLAX46Y46*%
G04 Gerber Fmt 4.6, Leading zero omitted, Abs format (unit mm)*
G04 Created by KiCad (PCBNEW 4.0.0-rc2-1-stable) date Thursday, April 14, 2016 'amt' 08:51:10 am*
%MOMM*%
G01*
G04 APERTURE LIST*
%ADD10C,0.100000*%
%ADD11R,3.500120X1.800860*%
%ADD12R,2.000000X1.600000*%
%ADD13R,3.000000X2.200000*%
%ADD14R,0.800100X0.800100*%
%ADD15R,1.143000X0.508000*%
%ADD16R,0.900000X1.700000*%
%ADD17R,2.032000X1.727200*%
%ADD18O,2.032000X1.727200*%
%ADD19C,0.400000*%
G04 APERTURE END LIST*
D10*
D11*
X136992360Y-114046000D03*
X131993640Y-114046000D03*
D12*
X131350000Y-105156000D03*
X135350000Y-105156000D03*
D13*
X142621000Y-107802000D03*
X142621000Y-102002000D03*
D11*
X137119360Y-101600000D03*
X132120640Y-101600000D03*
D14*
X145608000Y-111744760D03*
X147508000Y-111744760D03*
X146558000Y-109745780D03*
X145608000Y-115173760D03*
X147508000Y-115173760D03*
X146558000Y-113174780D03*
D15*
X137922000Y-107315000D03*
X137922000Y-108585000D03*
X137922000Y-109855000D03*
X137922000Y-111125000D03*
X131572000Y-111125000D03*
X131572000Y-109855000D03*
X131572000Y-108585000D03*
X131572000Y-107315000D03*
D16*
X143690000Y-112141000D03*
X140790000Y-112141000D03*
D17*
X127000000Y-101600000D03*
D18*
X127000000Y-104140000D03*
X127000000Y-106680000D03*
X127000000Y-109220000D03*
D17*
X147320000Y-106680000D03*
D18*
X147320000Y-104140000D03*
X147320000Y-101600000D03*
D19*
X147320000Y-101600000D02*
X147320000Y-101727000D01*
X147320000Y-101727000D02*
X149860000Y-104267000D01*
X149860000Y-112821760D02*
X147508000Y-115173760D01*
X149860000Y-104267000D02*
X149860000Y-112821760D01*
X147320000Y-101600000D02*
X147701000Y-101600000D01*
X134620000Y-116205000D02*
X146476760Y-116205000D01*
X132461000Y-114046000D02*
X134620000Y-116205000D01*
X146476760Y-116205000D02*
X147508000Y-115173760D01*
X147320000Y-101600000D02*
X147574000Y-101600000D01*
X131993640Y-114046000D02*
X132461000Y-114046000D01*
X131350000Y-105156000D02*
X128016000Y-105156000D01*
X128016000Y-105156000D02*
X127000000Y-104140000D01*
X131993640Y-114046000D02*
X131993640Y-111546640D01*
X131993640Y-111546640D02*
X131572000Y-111125000D01*
X127000000Y-111760000D02*
X130937000Y-111760000D01*
X130937000Y-111760000D02*
X131572000Y-111125000D01*
X127000000Y-111760000D02*
X125730000Y-111760000D01*
X125349000Y-105791000D02*
X127000000Y-104140000D01*
X125349000Y-111379000D02*
X125349000Y-105791000D01*
X125730000Y-111760000D02*
X125349000Y-111379000D01*
X140790000Y-112141000D02*
X140790000Y-111199000D01*
X140790000Y-111199000D02*
X139954000Y-110363000D01*
X139954000Y-110363000D02*
X140060000Y-110363000D01*
X140060000Y-110363000D02*
X142621000Y-107802000D01*
X137922000Y-109855000D02*
X139446000Y-109855000D01*
X139446000Y-109855000D02*
X139954000Y-110363000D01*
X137922000Y-109855000D02*
X136906000Y-109855000D01*
X136652000Y-110109000D02*
X136652000Y-113705640D01*
X136906000Y-109855000D02*
X136652000Y-110109000D01*
X136652000Y-113705640D02*
X136992360Y-114046000D01*
X137119360Y-101600000D02*
X142219000Y-101600000D01*
X142219000Y-101600000D02*
X142621000Y-102002000D01*
X137119360Y-101600000D02*
X137119360Y-106512360D01*
X137119360Y-106512360D02*
X137922000Y-107315000D01*
X135350000Y-105156000D02*
X134874000Y-105156000D01*
X134874000Y-105156000D02*
X132120640Y-102402640D01*
X132120640Y-102402640D02*
X132120640Y-101600000D01*
X131572000Y-109855000D02*
X132588000Y-109855000D01*
X135350000Y-107093000D02*
X135350000Y-105156000D01*
X132588000Y-109855000D02*
X135350000Y-107093000D01*
X127000000Y-101600000D02*
X132120640Y-101600000D01*
X127000000Y-106680000D02*
X130937000Y-106680000D01*
X130937000Y-106680000D02*
X131572000Y-107315000D01*
X127000000Y-109220000D02*
X129159000Y-109220000D01*
X129794000Y-108585000D02*
X131572000Y-108585000D01*
X129159000Y-109220000D02*
X129794000Y-108585000D01*
X146558000Y-109745780D02*
X146558000Y-107442000D01*
X146558000Y-107442000D02*
X147320000Y-106680000D01*
X137922000Y-108585000D02*
X138684000Y-108585000D01*
X145161000Y-111297760D02*
X145608000Y-111744760D01*
X145161000Y-106045000D02*
X145161000Y-111297760D01*
X144780000Y-105664000D02*
X145161000Y-106045000D01*
X140462000Y-105664000D02*
X144780000Y-105664000D01*
X139573000Y-106553000D02*
X140462000Y-105664000D01*
X139573000Y-107696000D02*
X139573000Y-106553000D01*
X138684000Y-108585000D02*
X139573000Y-107696000D01*
X137922000Y-108585000D02*
X138303000Y-108585000D01*
X137922000Y-111125000D02*
X138557000Y-111125000D01*
X141335760Y-115173760D02*
X145608000Y-115173760D01*
X139573000Y-113411000D02*
X141335760Y-115173760D01*
X139573000Y-112141000D02*
X139573000Y-113411000D01*
X138557000Y-111125000D02*
X139573000Y-112141000D01*
X143690000Y-112141000D02*
X143690000Y-112321000D01*
X143690000Y-112321000D02*
X144543780Y-113174780D01*
X144543780Y-113174780D02*
X146558000Y-113174780D01*
X147320000Y-104140000D02*
X148082000Y-104140000D01*
X148082000Y-104140000D02*
X148971000Y-105029000D01*
X148971000Y-105029000D02*
X148971000Y-110281760D01*
X148971000Y-110281760D02*
X147508000Y-111744760D01*
X147508000Y-111744760D02*
X147508000Y-112224780D01*
X147508000Y-112224780D02*
X146558000Y-113174780D01*
M02*
