G04 #@! TF.FileFunction,Copper,L1,Top,Signal*
%FSLAX46Y46*%
G04 Gerber Fmt 4.6, Leading zero omitted, Abs format (unit mm)*
G04 Created by KiCad (PCBNEW 4.0.1-stable) date 4/13/2016 9:20:08 PM*
%MOMM*%
G01*
G04 APERTURE LIST*
%ADD10C,0.100000*%
%ADD11R,3.500120X1.800860*%
%ADD12R,2.000000X1.600000*%
%ADD13R,3.000000X2.200000*%
%ADD14R,0.800100X0.800100*%
%ADD15R,1.143000X0.508000*%
%ADD16R,0.900000X1.700000*%
%ADD17R,2.032000X1.727200*%
%ADD18O,2.032000X1.727200*%
%ADD19C,0.250000*%
G04 APERTURE END LIST*
D10*
D11*
X138262360Y-115316000D03*
X133263640Y-115316000D03*
D12*
X132620000Y-106426000D03*
X136620000Y-106426000D03*
D13*
X143256000Y-109834000D03*
X143256000Y-104034000D03*
D11*
X138389360Y-102870000D03*
X133390640Y-102870000D03*
D14*
X146751000Y-111998760D03*
X148651000Y-111998760D03*
X147701000Y-109999780D03*
X146751000Y-115808760D03*
X148651000Y-115808760D03*
X147701000Y-113809780D03*
D15*
X139192000Y-108585000D03*
X139192000Y-109855000D03*
X139192000Y-111125000D03*
X139192000Y-112395000D03*
X132842000Y-112395000D03*
X132842000Y-111125000D03*
X132842000Y-109855000D03*
X132842000Y-108585000D03*
D16*
X144579000Y-113411000D03*
X141679000Y-113411000D03*
D17*
X128270000Y-102870000D03*
D18*
X128270000Y-105410000D03*
X128270000Y-107950000D03*
X128270000Y-110490000D03*
D17*
X147701000Y-106680000D03*
D18*
X147701000Y-104140000D03*
X147701000Y-101600000D03*
D19*
X133263640Y-115316000D02*
X133731000Y-115316000D01*
X133731000Y-115316000D02*
X135382000Y-116967000D01*
X147492760Y-116967000D02*
X148651000Y-115808760D01*
X135382000Y-116967000D02*
X147492760Y-116967000D01*
X147701000Y-101600000D02*
X148082000Y-101600000D01*
X148082000Y-101600000D02*
X149987000Y-103505000D01*
X149987000Y-103505000D02*
X149987000Y-114472760D01*
X149987000Y-114472760D02*
X148651000Y-115808760D01*
X148651000Y-115808760D02*
X148605240Y-115808760D01*
X132620000Y-106426000D02*
X129286000Y-106426000D01*
X129286000Y-106426000D02*
X128270000Y-105410000D01*
X133263640Y-115316000D02*
X133263640Y-112816640D01*
X133263640Y-112816640D02*
X132842000Y-112395000D01*
X128270000Y-113030000D02*
X132207000Y-113030000D01*
X132207000Y-113030000D02*
X132842000Y-112395000D01*
X128270000Y-113030000D02*
X127000000Y-113030000D01*
X125730000Y-107950000D02*
X128270000Y-105410000D01*
X125730000Y-111760000D02*
X125730000Y-107950000D01*
X127000000Y-113030000D02*
X125730000Y-111760000D01*
X139192000Y-111125000D02*
X138176000Y-111125000D01*
X137922000Y-111379000D02*
X137922000Y-114975640D01*
X138176000Y-111125000D02*
X137922000Y-111379000D01*
X137922000Y-114975640D02*
X138262360Y-115316000D01*
X141679000Y-113411000D02*
X141679000Y-111125000D01*
X141679000Y-111125000D02*
X141732000Y-111125000D01*
X139192000Y-111125000D02*
X141732000Y-111125000D01*
X141732000Y-111125000D02*
X141965000Y-111125000D01*
X141965000Y-111125000D02*
X143256000Y-109834000D01*
X138389360Y-102870000D02*
X142092000Y-102870000D01*
X142092000Y-102870000D02*
X143256000Y-104034000D01*
X138389360Y-102870000D02*
X138389360Y-107782360D01*
X138389360Y-107782360D02*
X139192000Y-108585000D01*
X136620000Y-106426000D02*
X136144000Y-106426000D01*
X136144000Y-106426000D02*
X133390640Y-103672640D01*
X133390640Y-103672640D02*
X133390640Y-102870000D01*
X132842000Y-111125000D02*
X133858000Y-111125000D01*
X136620000Y-108363000D02*
X136620000Y-106426000D01*
X133858000Y-111125000D02*
X136620000Y-108363000D01*
X128270000Y-102870000D02*
X133390640Y-102870000D01*
X128270000Y-107950000D02*
X132207000Y-107950000D01*
X132207000Y-107950000D02*
X132842000Y-108585000D01*
X128270000Y-110490000D02*
X130429000Y-110490000D01*
X131064000Y-109855000D02*
X132842000Y-109855000D01*
X130429000Y-110490000D02*
X131064000Y-109855000D01*
X147701000Y-106680000D02*
X147701000Y-109999780D01*
X147701000Y-109999780D02*
X147591780Y-109999780D01*
X139192000Y-109855000D02*
X139573000Y-109855000D01*
X139573000Y-109855000D02*
X141478000Y-107950000D01*
X141478000Y-107950000D02*
X145034000Y-107950000D01*
X145034000Y-107950000D02*
X145923000Y-108839000D01*
X145923000Y-108839000D02*
X145923000Y-111170760D01*
X145923000Y-111170760D02*
X146751000Y-111998760D01*
X139192000Y-112395000D02*
X139192000Y-112776000D01*
X141462760Y-115808760D02*
X146751000Y-115808760D01*
X140716000Y-115062000D02*
X141462760Y-115808760D01*
X140716000Y-114300000D02*
X140716000Y-115062000D01*
X139192000Y-112776000D02*
X140716000Y-114300000D01*
X144579000Y-113411000D02*
X147302220Y-113411000D01*
X147302220Y-113411000D02*
X147701000Y-113809780D01*
X147701000Y-104140000D02*
X148336000Y-104140000D01*
X148336000Y-104140000D02*
X149352000Y-105156000D01*
X149352000Y-105156000D02*
X149352000Y-111297760D01*
X149352000Y-111297760D02*
X148651000Y-111998760D01*
X148971000Y-111678760D02*
X148651000Y-111998760D01*
X148651000Y-111998760D02*
X148651000Y-112859780D01*
X148651000Y-112859780D02*
X147701000Y-113809780D01*
M02*
