G04 #@! TF.FileFunction,Copper,L1,Top,Signal*
%FSLAX46Y46*%
G04 Gerber Fmt 4.6, Leading zero omitted, Abs format (unit mm)*
G04 Created by KiCad (PCBNEW 4.0.0-rc2-1-stable) date Tuesday, May 10, 2016 'pmt' 02:18:49 pm*
%MOMM*%
G01*
G04 APERTURE LIST*
%ADD10C,0.100000*%
%ADD11R,1.143000X0.508000*%
%ADD12R,1.700000X0.900000*%
%ADD13R,2.032000X1.727200*%
%ADD14O,2.032000X1.727200*%
%ADD15R,2.500000X1.000000*%
%ADD16R,0.900000X1.700000*%
%ADD17C,1.998980*%
%ADD18R,1.000000X1.600000*%
%ADD19R,2.499360X1.800860*%
%ADD20O,2.499360X1.501140*%
%ADD21O,1.501140X2.499360*%
%ADD22C,0.400000*%
%ADD23C,0.254000*%
G04 APERTURE END LIST*
D10*
D11*
X137922000Y-107315000D03*
X137922000Y-108585000D03*
X137922000Y-109855000D03*
X137922000Y-111125000D03*
X131572000Y-111125000D03*
X131572000Y-109855000D03*
X131572000Y-108585000D03*
X131572000Y-107315000D03*
D12*
X141097000Y-111813000D03*
X141097000Y-108913000D03*
D13*
X127000000Y-101600000D03*
D14*
X127000000Y-104140000D03*
X127000000Y-106680000D03*
X127000000Y-109220000D03*
D13*
X149860000Y-106680000D03*
D14*
X149860000Y-104140000D03*
X149860000Y-101600000D03*
D15*
X149860000Y-109371000D03*
X149860000Y-112371000D03*
D16*
X149299000Y-114808000D03*
X152199000Y-114808000D03*
D17*
X146050000Y-101005640D03*
X146050000Y-106006900D03*
D18*
X131850000Y-105156000D03*
X134850000Y-105156000D03*
D15*
X140970000Y-104497000D03*
X140970000Y-101497000D03*
D19*
X136618980Y-101600000D03*
X132621020Y-101600000D03*
X131030980Y-113792000D03*
X127033020Y-113792000D03*
D20*
X145161000Y-112903000D03*
X145161000Y-110363000D03*
X145161000Y-115443000D03*
D21*
X138049000Y-116459000D03*
X135509000Y-116459000D03*
X140589000Y-116459000D03*
D16*
X142801000Y-106680000D03*
X139901000Y-106680000D03*
X134694000Y-113284000D03*
X137594000Y-113284000D03*
D22*
X143383000Y-99441000D02*
X143383000Y-103251000D01*
X147320000Y-103759000D02*
X143891000Y-103759000D01*
X143891000Y-103759000D02*
X143383000Y-103251000D01*
X147320000Y-103759000D02*
X149479000Y-101600000D01*
X140716000Y-118491000D02*
X149733000Y-118491000D01*
X152199000Y-116025000D02*
X152199000Y-114808000D01*
X149733000Y-118491000D02*
X152199000Y-116025000D01*
X127033020Y-113792000D02*
X127889000Y-113792000D01*
X127889000Y-113792000D02*
X132588000Y-118491000D01*
X140589000Y-118364000D02*
X140589000Y-116459000D01*
X140716000Y-118491000D02*
X140589000Y-118364000D01*
X132588000Y-118491000D02*
X140716000Y-118491000D01*
X131572000Y-111125000D02*
X129700020Y-111125000D01*
X129700020Y-111125000D02*
X127033020Y-113792000D01*
X125222000Y-104140000D02*
X125222000Y-111980980D01*
X125222000Y-111980980D02*
X127033020Y-113792000D01*
X149860000Y-101600000D02*
X149479000Y-101600000D01*
X152199000Y-114808000D02*
X152199000Y-115517000D01*
X152654000Y-100711000D02*
X152654000Y-114353000D01*
X152654000Y-100711000D02*
X151130000Y-99187000D01*
X151130000Y-99187000D02*
X143637000Y-99187000D01*
X143383000Y-99441000D02*
X143637000Y-99187000D01*
X152654000Y-114353000D02*
X152199000Y-114808000D01*
X152199000Y-115189000D02*
X152146000Y-115189000D01*
X127000000Y-104140000D02*
X130334000Y-104140000D01*
X130334000Y-104140000D02*
X131350000Y-105156000D01*
X127000000Y-104140000D02*
X125222000Y-104140000D01*
X125222000Y-100330000D02*
X125222000Y-104140000D01*
X126111000Y-99441000D02*
X125222000Y-100330000D01*
X143383000Y-99441000D02*
X126111000Y-99441000D01*
X143383000Y-99441000D02*
X143383000Y-99441000D01*
X131030980Y-113792000D02*
X131318000Y-113792000D01*
X131318000Y-113792000D02*
X135255000Y-109855000D01*
X135255000Y-109855000D02*
X137922000Y-109855000D01*
X140970000Y-104497000D02*
X140970000Y-104775000D01*
X140970000Y-104775000D02*
X141478000Y-105283000D01*
X141478000Y-105283000D02*
X141478000Y-108532000D01*
X141478000Y-108532000D02*
X141097000Y-108913000D01*
X137922000Y-109855000D02*
X140155000Y-109855000D01*
X140155000Y-109855000D02*
X141097000Y-108913000D01*
X131993640Y-114046000D02*
X131993640Y-114086640D01*
X131572000Y-113624360D02*
X131993640Y-114046000D01*
X136618980Y-101600000D02*
X140867000Y-101600000D01*
X140867000Y-101600000D02*
X140970000Y-101497000D01*
X137119360Y-101600000D02*
X137119360Y-106512360D01*
X137119360Y-106512360D02*
X137922000Y-107315000D01*
X135350000Y-105156000D02*
X134874000Y-105156000D01*
X134874000Y-105156000D02*
X132120640Y-102402640D01*
X132120640Y-102402640D02*
X132120640Y-101600000D01*
X131572000Y-109855000D02*
X132588000Y-109855000D01*
X135350000Y-107093000D02*
X135350000Y-105156000D01*
X132588000Y-109855000D02*
X135350000Y-107093000D01*
X127000000Y-101600000D02*
X132120640Y-101600000D01*
X127000000Y-106680000D02*
X130937000Y-106680000D01*
X130937000Y-106680000D02*
X131572000Y-107315000D01*
X127000000Y-109220000D02*
X129159000Y-109220000D01*
X129794000Y-108585000D02*
X131572000Y-108585000D01*
X129159000Y-109220000D02*
X129794000Y-108585000D01*
X149860000Y-106680000D02*
X148844000Y-106680000D01*
X148844000Y-106680000D02*
X147193000Y-108331000D01*
X147193000Y-110871000D02*
X145161000Y-112903000D01*
X147193000Y-108331000D02*
X147193000Y-110871000D01*
X149606000Y-106680000D02*
X149860000Y-106680000D01*
X149479000Y-106680000D02*
X149860000Y-106680000D01*
X142801000Y-106680000D02*
X142801000Y-108003000D01*
X142801000Y-108003000D02*
X145161000Y-110363000D01*
X134694000Y-113284000D02*
X134694000Y-115644000D01*
X134694000Y-115644000D02*
X135509000Y-116459000D01*
X147487640Y-100076000D02*
X146979640Y-100076000D01*
X150583998Y-100076000D02*
X147487640Y-100076000D01*
X151765000Y-101257002D02*
X150583998Y-100076000D01*
X151765000Y-111125000D02*
X151765000Y-101257002D01*
X150519000Y-112371000D02*
X151765000Y-111125000D01*
X146979640Y-100076000D02*
X146050000Y-101005640D01*
X149299000Y-112932000D02*
X149860000Y-112371000D01*
X149860000Y-112371000D02*
X150519000Y-112371000D01*
X146050000Y-101513640D02*
X146136360Y-101513640D01*
X149299000Y-114808000D02*
X149299000Y-112932000D01*
X138049000Y-116459000D02*
X138049000Y-115697000D01*
X138049000Y-115697000D02*
X141097000Y-112649000D01*
X141097000Y-112649000D02*
X141097000Y-111813000D01*
X141097000Y-111813000D02*
X141531000Y-111813000D01*
X141531000Y-111813000D02*
X145161000Y-115443000D01*
X144145000Y-115443000D02*
X145161000Y-115443000D01*
X149860000Y-109371000D02*
X149860000Y-109728000D01*
X149860000Y-109728000D02*
X147447000Y-112141000D01*
X147447000Y-112141000D02*
X147447000Y-114554000D01*
X147447000Y-114554000D02*
X146558000Y-115443000D01*
X146558000Y-115443000D02*
X145161000Y-115443000D01*
X144653000Y-115570000D02*
X145669000Y-115570000D01*
X146050000Y-106006900D02*
X147104100Y-106006900D01*
X147104100Y-106006900D02*
X148971000Y-104140000D01*
X148971000Y-104140000D02*
X149860000Y-104140000D01*
X137922000Y-108585000D02*
X139065000Y-108585000D01*
X139319000Y-107262000D02*
X139901000Y-106680000D01*
X139319000Y-108331000D02*
X139319000Y-107262000D01*
X139065000Y-108585000D02*
X139319000Y-108331000D01*
X137922000Y-108585000D02*
X138303000Y-108585000D01*
X137922000Y-111125000D02*
X137922000Y-112956000D01*
X137922000Y-112956000D02*
X137594000Y-113284000D01*
X137922000Y-111125000D02*
X138303000Y-111125000D01*
D23*
G36*
X147701000Y-102349866D02*
X147018866Y-103032000D01*
X144192133Y-103032000D01*
X144110000Y-102949866D01*
X144110000Y-99914000D01*
X147701000Y-99914000D01*
X147701000Y-102349866D01*
X147701000Y-102349866D01*
G37*
X147701000Y-102349866D02*
X147018866Y-103032000D01*
X144192133Y-103032000D01*
X144110000Y-102949866D01*
X144110000Y-99914000D01*
X147701000Y-99914000D01*
X147701000Y-102349866D01*
G36*
X147955000Y-106540867D02*
X146678933Y-107816933D01*
X146674879Y-107823000D01*
X143891000Y-107823000D01*
X143891000Y-104486000D01*
X147319995Y-104486000D01*
X147320000Y-104486001D01*
X147552052Y-104439842D01*
X147598211Y-104430660D01*
X147834067Y-104273067D01*
X147840134Y-104267000D01*
X147955000Y-104267000D01*
X147955000Y-106540867D01*
X147955000Y-106540867D01*
G37*
X147955000Y-106540867D02*
X146678933Y-107816933D01*
X146674879Y-107823000D01*
X143891000Y-107823000D01*
X143891000Y-104486000D01*
X147319995Y-104486000D01*
X147320000Y-104486001D01*
X147552052Y-104439842D01*
X147598211Y-104430660D01*
X147834067Y-104273067D01*
X147840134Y-104267000D01*
X147955000Y-104267000D01*
X147955000Y-106540867D01*
M02*
