G04 #@! TF.FileFunction,Legend,Top*
%FSLAX46Y46*%
G04 Gerber Fmt 4.6, Leading zero omitted, Abs format (unit mm)*
G04 Created by KiCad (PCBNEW 4.0.1-stable) date 4/13/2016 9:20:08 PM*
%MOMM*%
G01*
G04 APERTURE LIST*
%ADD10C,0.100000*%
%ADD11C,0.150000*%
G04 APERTURE END LIST*
D10*
D11*
X136013000Y-115316000D02*
X135463000Y-115766000D01*
X135463000Y-115766000D02*
X135463000Y-114866000D01*
X135463000Y-114866000D02*
X136013000Y-115316000D01*
X136013000Y-115866000D02*
X136013000Y-114766000D01*
X137562140Y-113565940D02*
X137562140Y-113916460D01*
X137562140Y-117066060D02*
X137562140Y-116715540D01*
X133512560Y-113565940D02*
X133512560Y-113916460D01*
X138013440Y-113565940D02*
X138013440Y-113916460D01*
X138013440Y-117066060D02*
X138013440Y-116715540D01*
X133512560Y-117066060D02*
X133512560Y-116715540D01*
X138013440Y-113565940D02*
X133512560Y-113565940D01*
X138013440Y-117066060D02*
X133512560Y-117066060D01*
X135620000Y-105401000D02*
X133620000Y-105401000D01*
X133620000Y-107451000D02*
X135620000Y-107451000D01*
X141531000Y-105134000D02*
X141531000Y-108734000D01*
X144981000Y-108734000D02*
X144981000Y-105134000D01*
X136140000Y-102870000D02*
X135590000Y-103320000D01*
X135590000Y-103320000D02*
X135590000Y-102420000D01*
X135590000Y-102420000D02*
X136140000Y-102870000D01*
X136140000Y-103420000D02*
X136140000Y-102320000D01*
X137689140Y-101119940D02*
X137689140Y-101470460D01*
X137689140Y-104620060D02*
X137689140Y-104269540D01*
X133639560Y-101119940D02*
X133639560Y-101470460D01*
X138140440Y-101119940D02*
X138140440Y-101470460D01*
X138140440Y-104620060D02*
X138140440Y-104269540D01*
X133639560Y-104620060D02*
X133639560Y-104269540D01*
X138140440Y-101119940D02*
X133639560Y-101119940D01*
X138140440Y-104620060D02*
X133639560Y-104620060D01*
X149000160Y-110347760D02*
X148951900Y-110347760D01*
X146201180Y-111048800D02*
X146201180Y-110347760D01*
X146201180Y-110347760D02*
X146450100Y-110347760D01*
X149000160Y-110347760D02*
X149200820Y-110347760D01*
X149200820Y-110347760D02*
X149200820Y-111048800D01*
X149000160Y-114157760D02*
X148951900Y-114157760D01*
X146201180Y-114858800D02*
X146201180Y-114157760D01*
X146201180Y-114157760D02*
X146450100Y-114157760D01*
X149000160Y-114157760D02*
X149200820Y-114157760D01*
X149200820Y-114157760D02*
X149200820Y-114858800D01*
X138303000Y-107950000D02*
X138303000Y-113030000D01*
X138303000Y-113030000D02*
X133731000Y-113030000D01*
X133731000Y-113030000D02*
X133731000Y-107950000D01*
X133731000Y-107950000D02*
X138303000Y-107950000D01*
X136779000Y-107950000D02*
X136779000Y-108458000D01*
X136779000Y-108458000D02*
X135509000Y-108458000D01*
X135509000Y-108458000D02*
X135509000Y-107950000D01*
X142129000Y-112336000D02*
X144129000Y-112336000D01*
X144129000Y-114486000D02*
X142129000Y-114486000D01*
X127000000Y-104140000D02*
X127000000Y-111760000D01*
X129540000Y-104140000D02*
X129540000Y-111760000D01*
X129820000Y-101320000D02*
X129820000Y-102870000D01*
X127000000Y-111760000D02*
X129540000Y-111760000D01*
X129540000Y-104140000D02*
X127000000Y-104140000D01*
X126720000Y-102870000D02*
X126720000Y-101320000D01*
X126720000Y-101320000D02*
X129820000Y-101320000D01*
X148971000Y-105410000D02*
X148971000Y-100330000D01*
X148971000Y-100330000D02*
X146431000Y-100330000D01*
X146431000Y-100330000D02*
X146431000Y-105410000D01*
X146151000Y-108230000D02*
X146151000Y-106680000D01*
X146431000Y-105410000D02*
X148971000Y-105410000D01*
X149251000Y-106680000D02*
X149251000Y-108230000D01*
X149251000Y-108230000D02*
X146151000Y-108230000D01*
X129563905Y-116022381D02*
X129563905Y-115022381D01*
X129802000Y-115022381D01*
X129944858Y-115070000D01*
X130040096Y-115165238D01*
X130087715Y-115260476D01*
X130135334Y-115450952D01*
X130135334Y-115593810D01*
X130087715Y-115784286D01*
X130040096Y-115879524D01*
X129944858Y-115974762D01*
X129802000Y-116022381D01*
X129563905Y-116022381D01*
X130516286Y-115117619D02*
X130563905Y-115070000D01*
X130659143Y-115022381D01*
X130897239Y-115022381D01*
X130992477Y-115070000D01*
X131040096Y-115117619D01*
X131087715Y-115212857D01*
X131087715Y-115308095D01*
X131040096Y-115450952D01*
X130468667Y-116022381D01*
X131087715Y-116022381D01*
X138751095Y-112868381D02*
X138751095Y-111868381D01*
X139322524Y-112868381D02*
X138893952Y-112296952D01*
X139322524Y-111868381D02*
X138751095Y-112439810D01*
X132474905Y-112632667D02*
X132951096Y-112632667D01*
X132379667Y-112918381D02*
X132713000Y-111918381D01*
X133046334Y-112918381D01*
X130389334Y-106148143D02*
X130341715Y-106195762D01*
X130198858Y-106243381D01*
X130103620Y-106243381D01*
X129960762Y-106195762D01*
X129865524Y-106100524D01*
X129817905Y-106005286D01*
X129770286Y-105814810D01*
X129770286Y-105671952D01*
X129817905Y-105481476D01*
X129865524Y-105386238D01*
X129960762Y-105291000D01*
X130103620Y-105243381D01*
X130198858Y-105243381D01*
X130341715Y-105291000D01*
X130389334Y-105338619D01*
X131341715Y-106243381D02*
X130770286Y-106243381D01*
X131056000Y-106243381D02*
X131056000Y-105243381D01*
X130960762Y-105386238D01*
X130865524Y-105481476D01*
X130770286Y-105529095D01*
X143597334Y-102338143D02*
X143549715Y-102385762D01*
X143406858Y-102433381D01*
X143311620Y-102433381D01*
X143168762Y-102385762D01*
X143073524Y-102290524D01*
X143025905Y-102195286D01*
X142978286Y-102004810D01*
X142978286Y-101861952D01*
X143025905Y-101671476D01*
X143073524Y-101576238D01*
X143168762Y-101481000D01*
X143311620Y-101433381D01*
X143406858Y-101433381D01*
X143549715Y-101481000D01*
X143597334Y-101528619D01*
X143978286Y-101528619D02*
X144025905Y-101481000D01*
X144121143Y-101433381D01*
X144359239Y-101433381D01*
X144454477Y-101481000D01*
X144502096Y-101528619D01*
X144549715Y-101623857D01*
X144549715Y-101719095D01*
X144502096Y-101861952D01*
X143930667Y-102433381D01*
X144549715Y-102433381D01*
X135278905Y-100909381D02*
X135278905Y-99909381D01*
X135517000Y-99909381D01*
X135659858Y-99957000D01*
X135755096Y-100052238D01*
X135802715Y-100147476D01*
X135850334Y-100337952D01*
X135850334Y-100480810D01*
X135802715Y-100671286D01*
X135755096Y-100766524D01*
X135659858Y-100861762D01*
X135517000Y-100909381D01*
X135278905Y-100909381D01*
X136802715Y-100909381D02*
X136231286Y-100909381D01*
X136517000Y-100909381D02*
X136517000Y-99909381D01*
X136421762Y-100052238D01*
X136326524Y-100147476D01*
X136231286Y-100195095D01*
X138878095Y-100422381D02*
X138878095Y-99422381D01*
X139449524Y-100422381D02*
X139020952Y-99850952D01*
X139449524Y-99422381D02*
X138878095Y-99993810D01*
X132601905Y-100186667D02*
X133078096Y-100186667D01*
X132506667Y-100472381D02*
X132840000Y-99472381D01*
X133173334Y-100472381D01*
X149256762Y-110275619D02*
X149161524Y-110228000D01*
X149066286Y-110132762D01*
X148923429Y-109989905D01*
X148828190Y-109942286D01*
X148732952Y-109942286D01*
X148780571Y-110180381D02*
X148685333Y-110132762D01*
X148590095Y-110037524D01*
X148542476Y-109847048D01*
X148542476Y-109513714D01*
X148590095Y-109323238D01*
X148685333Y-109228000D01*
X148780571Y-109180381D01*
X148971048Y-109180381D01*
X149066286Y-109228000D01*
X149161524Y-109323238D01*
X149209143Y-109513714D01*
X149209143Y-109847048D01*
X149161524Y-110037524D01*
X149066286Y-110132762D01*
X148971048Y-110180381D01*
X148780571Y-110180381D01*
X150161524Y-110180381D02*
X149590095Y-110180381D01*
X149875809Y-110180381D02*
X149875809Y-109180381D01*
X149780571Y-109323238D01*
X149685333Y-109418476D01*
X149590095Y-109466095D01*
X148240762Y-117641619D02*
X148145524Y-117594000D01*
X148050286Y-117498762D01*
X147907429Y-117355905D01*
X147812190Y-117308286D01*
X147716952Y-117308286D01*
X147764571Y-117546381D02*
X147669333Y-117498762D01*
X147574095Y-117403524D01*
X147526476Y-117213048D01*
X147526476Y-116879714D01*
X147574095Y-116689238D01*
X147669333Y-116594000D01*
X147764571Y-116546381D01*
X147955048Y-116546381D01*
X148050286Y-116594000D01*
X148145524Y-116689238D01*
X148193143Y-116879714D01*
X148193143Y-117213048D01*
X148145524Y-117403524D01*
X148050286Y-117498762D01*
X147955048Y-117546381D01*
X147764571Y-117546381D01*
X148574095Y-116641619D02*
X148621714Y-116594000D01*
X148716952Y-116546381D01*
X148955048Y-116546381D01*
X149050286Y-116594000D01*
X149097905Y-116641619D01*
X149145524Y-116736857D01*
X149145524Y-116832095D01*
X149097905Y-116974952D01*
X148526476Y-117546381D01*
X149145524Y-117546381D01*
X138684095Y-106894381D02*
X138684095Y-107703905D01*
X138731714Y-107799143D01*
X138779333Y-107846762D01*
X138874571Y-107894381D01*
X139065048Y-107894381D01*
X139160286Y-107846762D01*
X139207905Y-107799143D01*
X139255524Y-107703905D01*
X139255524Y-106894381D01*
X140255524Y-107894381D02*
X139684095Y-107894381D01*
X139969809Y-107894381D02*
X139969809Y-106894381D01*
X139874571Y-107037238D01*
X139779333Y-107132476D01*
X139684095Y-107180095D01*
X143470334Y-115768381D02*
X143137000Y-115292190D01*
X142898905Y-115768381D02*
X142898905Y-114768381D01*
X143279858Y-114768381D01*
X143375096Y-114816000D01*
X143422715Y-114863619D01*
X143470334Y-114958857D01*
X143470334Y-115101714D01*
X143422715Y-115196952D01*
X143375096Y-115244571D01*
X143279858Y-115292190D01*
X142898905Y-115292190D01*
X144422715Y-115768381D02*
X143851286Y-115768381D01*
X144137000Y-115768381D02*
X144137000Y-114768381D01*
X144041762Y-114911238D01*
X143946524Y-115006476D01*
X143851286Y-115054095D01*
X127023905Y-100909381D02*
X127023905Y-99909381D01*
X127404858Y-99909381D01*
X127500096Y-99957000D01*
X127547715Y-100004619D01*
X127595334Y-100099857D01*
X127595334Y-100242714D01*
X127547715Y-100337952D01*
X127500096Y-100385571D01*
X127404858Y-100433190D01*
X127023905Y-100433190D01*
X128547715Y-100909381D02*
X127976286Y-100909381D01*
X128262000Y-100909381D02*
X128262000Y-99909381D01*
X128166762Y-100052238D01*
X128071524Y-100147476D01*
X127976286Y-100195095D01*
X150312381Y-101322095D02*
X149312381Y-101322095D01*
X149312381Y-100941142D01*
X149360000Y-100845904D01*
X149407619Y-100798285D01*
X149502857Y-100750666D01*
X149645714Y-100750666D01*
X149740952Y-100798285D01*
X149788571Y-100845904D01*
X149836190Y-100941142D01*
X149836190Y-101322095D01*
X149407619Y-100369714D02*
X149360000Y-100322095D01*
X149312381Y-100226857D01*
X149312381Y-99988761D01*
X149360000Y-99893523D01*
X149407619Y-99845904D01*
X149502857Y-99798285D01*
X149598095Y-99798285D01*
X149740952Y-99845904D01*
X150312381Y-100417333D01*
X150312381Y-99798285D01*
M02*
