G04 #@! TF.FileFunction,Copper,L1,Top,Signal*
%FSLAX46Y46*%
G04 Gerber Fmt 4.6, Leading zero omitted, Abs format (unit mm)*
G04 Created by KiCad (PCBNEW 4.0.1-stable) date 4/25/2016 6:07:59 PM*
%MOMM*%
G01*
G04 APERTURE LIST*
%ADD10C,0.100000*%
%ADD11R,3.500120X1.800860*%
%ADD12R,2.000000X1.600000*%
%ADD13R,3.000000X2.200000*%
%ADD14R,0.800100X0.800100*%
%ADD15R,1.143000X0.508000*%
%ADD16R,1.700000X0.900000*%
%ADD17R,2.032000X1.727200*%
%ADD18O,2.032000X1.727200*%
%ADD19R,2.500000X1.000000*%
%ADD20R,0.900000X1.700000*%
%ADD21C,1.998980*%
%ADD22C,0.400000*%
G04 APERTURE END LIST*
D10*
D11*
X136992360Y-114046000D03*
X131993640Y-114046000D03*
D12*
X131350000Y-105156000D03*
X135350000Y-105156000D03*
D13*
X141732000Y-107802000D03*
X141732000Y-102002000D03*
D11*
X137119360Y-101600000D03*
X132120640Y-101600000D03*
D14*
X145608000Y-111744760D03*
X147508000Y-111744760D03*
X146558000Y-109745780D03*
X145608000Y-115173760D03*
X147508000Y-115173760D03*
X146558000Y-113174780D03*
D15*
X137922000Y-107315000D03*
X137922000Y-108585000D03*
X137922000Y-109855000D03*
X137922000Y-111125000D03*
X131572000Y-111125000D03*
X131572000Y-109855000D03*
X131572000Y-108585000D03*
X131572000Y-107315000D03*
D16*
X142113000Y-113337000D03*
X142113000Y-110437000D03*
D17*
X127000000Y-101600000D03*
D18*
X127000000Y-104140000D03*
X127000000Y-106680000D03*
X127000000Y-109220000D03*
D17*
X149860000Y-106680000D03*
D18*
X149860000Y-104140000D03*
X149860000Y-101600000D03*
D19*
X150368000Y-112371000D03*
X150368000Y-109371000D03*
D20*
X152199000Y-114935000D03*
X149299000Y-114935000D03*
D21*
X146050000Y-101513640D03*
X146050000Y-106514900D03*
D22*
X131993640Y-114046000D02*
X132461000Y-114046000D01*
X141478000Y-109855000D02*
X141478000Y-108056000D01*
X141478000Y-108056000D02*
X141732000Y-107802000D01*
X137922000Y-109855000D02*
X141478000Y-109855000D01*
X141478000Y-109855000D02*
X141531000Y-109855000D01*
X141531000Y-109855000D02*
X142113000Y-110437000D01*
X137922000Y-109855000D02*
X136906000Y-109855000D01*
X136652000Y-110109000D02*
X136652000Y-113705640D01*
X136906000Y-109855000D02*
X136652000Y-110109000D01*
X136652000Y-113705640D02*
X136992360Y-114046000D01*
X137119360Y-101600000D02*
X141330000Y-101600000D01*
X141330000Y-101600000D02*
X141732000Y-102002000D01*
X137119360Y-101600000D02*
X137119360Y-106512360D01*
X137119360Y-106512360D02*
X137922000Y-107315000D01*
X135350000Y-105156000D02*
X134874000Y-105156000D01*
X134874000Y-105156000D02*
X132120640Y-102402640D01*
X132120640Y-102402640D02*
X132120640Y-101600000D01*
X131572000Y-109855000D02*
X132588000Y-109855000D01*
X135350000Y-107093000D02*
X135350000Y-105156000D01*
X132588000Y-109855000D02*
X135350000Y-107093000D01*
X127000000Y-101600000D02*
X132120640Y-101600000D01*
X127000000Y-106680000D02*
X130937000Y-106680000D01*
X130937000Y-106680000D02*
X131572000Y-107315000D01*
X127000000Y-109220000D02*
X129159000Y-109220000D01*
X129794000Y-108585000D02*
X131572000Y-108585000D01*
X129159000Y-109220000D02*
X129794000Y-108585000D01*
X146558000Y-109745780D02*
X146558000Y-108458000D01*
X148336000Y-106680000D02*
X149860000Y-106680000D01*
X146558000Y-108458000D02*
X148336000Y-106680000D01*
X139954000Y-105664000D02*
X143637000Y-105664000D01*
X139065000Y-108585000D02*
X139446000Y-108204000D01*
X139446000Y-108204000D02*
X139446000Y-106172000D01*
X139446000Y-106172000D02*
X139954000Y-105664000D01*
X137922000Y-108585000D02*
X139065000Y-108585000D01*
X144272000Y-110408760D02*
X145608000Y-111744760D01*
X144272000Y-106299000D02*
X144272000Y-110408760D01*
X143637000Y-105664000D02*
X144272000Y-106299000D01*
X145415000Y-111551760D02*
X145608000Y-111744760D01*
X137922000Y-108585000D02*
X138303000Y-108585000D01*
X137922000Y-111125000D02*
X138303000Y-111125000D01*
X138303000Y-111125000D02*
X139573000Y-112395000D01*
X139573000Y-112395000D02*
X139573000Y-113538000D01*
X139573000Y-113538000D02*
X141208760Y-115173760D01*
X141208760Y-115173760D02*
X145608000Y-115173760D01*
X150368000Y-109371000D02*
X152400000Y-109371000D01*
X152400000Y-109371000D02*
X152400000Y-109347000D01*
X152400000Y-114734000D02*
X152400000Y-109347000D01*
X152400000Y-109347000D02*
X152400000Y-101092000D01*
X150876000Y-99568000D02*
X152400000Y-101092000D01*
X148082000Y-99568000D02*
X150876000Y-99568000D01*
X148082000Y-99568000D02*
X146136360Y-101513640D01*
X152400000Y-114734000D02*
X152199000Y-114935000D01*
X146050000Y-101513640D02*
X146136360Y-101513640D01*
X147508000Y-111744760D02*
X149741760Y-111744760D01*
X149741760Y-111744760D02*
X150368000Y-112371000D01*
X142113000Y-113337000D02*
X146395780Y-113337000D01*
X146395780Y-113337000D02*
X146558000Y-113174780D01*
X146558000Y-113174780D02*
X147175220Y-113174780D01*
X147508000Y-112842000D02*
X147508000Y-111744760D01*
X147175220Y-113174780D02*
X147508000Y-112842000D01*
X146050000Y-106514900D02*
X146050000Y-105410000D01*
X147320000Y-104140000D02*
X149860000Y-104140000D01*
X146050000Y-105410000D02*
X147320000Y-104140000D01*
D10*
G36*
X146570483Y-100160279D02*
X146339586Y-100064402D01*
X145762944Y-100063899D01*
X145230003Y-100284106D01*
X144821899Y-100691498D01*
X144600762Y-101224054D01*
X144600259Y-101800696D01*
X144820466Y-102333637D01*
X145227858Y-102741741D01*
X145760414Y-102962878D01*
X146337056Y-102963381D01*
X146869997Y-102743174D01*
X147278101Y-102335782D01*
X147499238Y-101803226D01*
X147499741Y-101226584D01*
X147453812Y-101115427D01*
X148351239Y-100218000D01*
X149409998Y-100218000D01*
X149409998Y-100365784D01*
X149198768Y-100289753D01*
X148736091Y-100584211D01*
X148437389Y-100961636D01*
X148500401Y-101168200D01*
X149410000Y-101168200D01*
X149410000Y-101130000D01*
X150310000Y-101130000D01*
X150310000Y-101168200D01*
X151219599Y-101168200D01*
X151282611Y-100961636D01*
X151025405Y-100636644D01*
X151750000Y-101361239D01*
X151750000Y-108438915D01*
X151618000Y-108412184D01*
X149118000Y-108412184D01*
X148951240Y-108443562D01*
X148798081Y-108542117D01*
X148695332Y-108692495D01*
X148659184Y-108871000D01*
X148659184Y-109871000D01*
X148690562Y-110037760D01*
X148789117Y-110190919D01*
X148939495Y-110293668D01*
X149118000Y-110329816D01*
X151618000Y-110329816D01*
X151750000Y-110304979D01*
X151750000Y-111438915D01*
X151618000Y-111412184D01*
X150328422Y-111412184D01*
X150201379Y-111285141D01*
X149990505Y-111144238D01*
X149949236Y-111136029D01*
X149741760Y-111094760D01*
X148281957Y-111094760D01*
X148236933Y-111024791D01*
X148086555Y-110922042D01*
X147908050Y-110885894D01*
X147107950Y-110885894D01*
X146941190Y-110917272D01*
X146788031Y-111015827D01*
X146685282Y-111166205D01*
X146649134Y-111344710D01*
X146649134Y-112144810D01*
X146680512Y-112311570D01*
X146683307Y-112315914D01*
X146432217Y-112315914D01*
X146466866Y-112144810D01*
X146466866Y-111344710D01*
X146435488Y-111177950D01*
X146336933Y-111024791D01*
X146186555Y-110922042D01*
X146008050Y-110885894D01*
X145668373Y-110885894D01*
X144922000Y-110139522D01*
X144922000Y-107436608D01*
X145227858Y-107743001D01*
X145760414Y-107964138D01*
X146132300Y-107964462D01*
X146098381Y-107998381D01*
X145957478Y-108209255D01*
X145957478Y-108209256D01*
X145908000Y-108458000D01*
X145908000Y-108971823D01*
X145838031Y-109016847D01*
X145735282Y-109167225D01*
X145699134Y-109345730D01*
X145699134Y-110145830D01*
X145730512Y-110312590D01*
X145829067Y-110465749D01*
X145979445Y-110568498D01*
X146157950Y-110604646D01*
X146958050Y-110604646D01*
X147124810Y-110573268D01*
X147277969Y-110474713D01*
X147380718Y-110324335D01*
X147416866Y-110145830D01*
X147416866Y-109345730D01*
X147385488Y-109178970D01*
X147286933Y-109025811D01*
X147208000Y-108971878D01*
X147208000Y-108727238D01*
X148386206Y-107549033D01*
X148416562Y-107710360D01*
X148515117Y-107863519D01*
X148665495Y-107966268D01*
X148844000Y-108002416D01*
X150876000Y-108002416D01*
X151042760Y-107971038D01*
X151195919Y-107872483D01*
X151298668Y-107722105D01*
X151334816Y-107543600D01*
X151334816Y-105816400D01*
X151303438Y-105649640D01*
X151204883Y-105496481D01*
X151054505Y-105393732D01*
X150876000Y-105357584D01*
X150523825Y-105357584D01*
X150543814Y-105353608D01*
X150969976Y-105068855D01*
X151254729Y-104642693D01*
X151354721Y-104140000D01*
X151254729Y-103637307D01*
X150969976Y-103211145D01*
X150543814Y-102926392D01*
X150310002Y-102879884D01*
X150310002Y-102834216D01*
X150521232Y-102910247D01*
X150983909Y-102615789D01*
X151282611Y-102238364D01*
X151219599Y-102031800D01*
X150310000Y-102031800D01*
X150310000Y-102070000D01*
X149410000Y-102070000D01*
X149410000Y-102031800D01*
X148500401Y-102031800D01*
X148437389Y-102238364D01*
X148736091Y-102615789D01*
X149198768Y-102910247D01*
X149409998Y-102834216D01*
X149409998Y-102879884D01*
X149176186Y-102926392D01*
X148750024Y-103211145D01*
X148563699Y-103490000D01*
X147320000Y-103490000D01*
X147121731Y-103529438D01*
X147071255Y-103539478D01*
X146860380Y-103680381D01*
X145590381Y-104950381D01*
X145449478Y-105161255D01*
X145449478Y-105161256D01*
X145442234Y-105197674D01*
X145230003Y-105285366D01*
X144821899Y-105692758D01*
X144749749Y-105866513D01*
X144731620Y-105839381D01*
X144096619Y-105204381D01*
X143885745Y-105063478D01*
X143844476Y-105055269D01*
X143637000Y-105014000D01*
X139954000Y-105014000D01*
X139705256Y-105063478D01*
X139697209Y-105068855D01*
X139494380Y-105204381D01*
X138986381Y-105712381D01*
X138845478Y-105923255D01*
X138845478Y-105923256D01*
X138796000Y-106172000D01*
X138796000Y-106723054D01*
X138672005Y-106638332D01*
X138493500Y-106602184D01*
X138128423Y-106602184D01*
X137769360Y-106243122D01*
X137769360Y-102959246D01*
X138869420Y-102959246D01*
X139036180Y-102927868D01*
X139189339Y-102829313D01*
X139292088Y-102678935D01*
X139328236Y-102500430D01*
X139328236Y-102250000D01*
X139773184Y-102250000D01*
X139773184Y-103102000D01*
X139804562Y-103268760D01*
X139903117Y-103421919D01*
X140053495Y-103524668D01*
X140232000Y-103560816D01*
X143232000Y-103560816D01*
X143398760Y-103529438D01*
X143551919Y-103430883D01*
X143654668Y-103280505D01*
X143690816Y-103102000D01*
X143690816Y-100902000D01*
X143659438Y-100735240D01*
X143560883Y-100582081D01*
X143410505Y-100479332D01*
X143232000Y-100443184D01*
X140232000Y-100443184D01*
X140065240Y-100474562D01*
X139912081Y-100573117D01*
X139809332Y-100723495D01*
X139773184Y-100902000D01*
X139773184Y-100950000D01*
X139328236Y-100950000D01*
X139328236Y-100699570D01*
X139296858Y-100532810D01*
X139198303Y-100379651D01*
X139047925Y-100276902D01*
X138869420Y-100240754D01*
X135369300Y-100240754D01*
X135202540Y-100272132D01*
X135049381Y-100370687D01*
X134946632Y-100521065D01*
X134910484Y-100699570D01*
X134910484Y-102500430D01*
X134941862Y-102667190D01*
X135040417Y-102820349D01*
X135190795Y-102923098D01*
X135369300Y-102959246D01*
X136469360Y-102959246D01*
X136469360Y-103921355D01*
X136350000Y-103897184D01*
X134534422Y-103897184D01*
X133596484Y-102959246D01*
X133870700Y-102959246D01*
X134037460Y-102927868D01*
X134190619Y-102829313D01*
X134293368Y-102678935D01*
X134329516Y-102500430D01*
X134329516Y-100699570D01*
X134298138Y-100532810D01*
X134199583Y-100379651D01*
X134049205Y-100276902D01*
X133870700Y-100240754D01*
X130370580Y-100240754D01*
X130203820Y-100272132D01*
X130050661Y-100370687D01*
X129947912Y-100521065D01*
X129911764Y-100699570D01*
X129911764Y-100950000D01*
X128474816Y-100950000D01*
X128474816Y-100736400D01*
X128443438Y-100569640D01*
X128344883Y-100416481D01*
X128194505Y-100313732D01*
X128016000Y-100277584D01*
X125984000Y-100277584D01*
X125817240Y-100308962D01*
X125664081Y-100407517D01*
X125561332Y-100557895D01*
X125525184Y-100736400D01*
X125525184Y-102463600D01*
X125556562Y-102630360D01*
X125655117Y-102783519D01*
X125805495Y-102886268D01*
X125984000Y-102922416D01*
X126193168Y-102922416D01*
X125876091Y-103124211D01*
X125577389Y-103501636D01*
X125640401Y-103708200D01*
X126550000Y-103708200D01*
X126550000Y-103670000D01*
X127450000Y-103670000D01*
X127450000Y-103708200D01*
X128359599Y-103708200D01*
X128422611Y-103501636D01*
X128123909Y-103124211D01*
X127806832Y-102922416D01*
X128016000Y-102922416D01*
X128182760Y-102891038D01*
X128335919Y-102792483D01*
X128438668Y-102642105D01*
X128474816Y-102463600D01*
X128474816Y-102250000D01*
X129911764Y-102250000D01*
X129911764Y-102500430D01*
X129943142Y-102667190D01*
X130041697Y-102820349D01*
X130192075Y-102923098D01*
X130370580Y-102959246D01*
X131758008Y-102959246D01*
X133891184Y-105092422D01*
X133891184Y-105956000D01*
X133922562Y-106122760D01*
X134021117Y-106275919D01*
X134171495Y-106378668D01*
X134350000Y-106414816D01*
X134700000Y-106414816D01*
X134700000Y-106823761D01*
X132581381Y-108942381D01*
X132602316Y-108839000D01*
X132602316Y-108331000D01*
X132570938Y-108164240D01*
X132472383Y-108011081D01*
X132382716Y-107949814D01*
X132463419Y-107897883D01*
X132566168Y-107747505D01*
X132602316Y-107569000D01*
X132602316Y-107061000D01*
X132570938Y-106894240D01*
X132472383Y-106741081D01*
X132322005Y-106638332D01*
X132143500Y-106602184D01*
X131778423Y-106602184D01*
X131690239Y-106514000D01*
X131800002Y-106514000D01*
X131800002Y-106374502D01*
X131939500Y-106514000D01*
X132460993Y-106514000D01*
X132666082Y-106429050D01*
X132823049Y-106272082D01*
X132908000Y-106066993D01*
X132908000Y-105695500D01*
X132768500Y-105556000D01*
X131800000Y-105556000D01*
X131800000Y-105626000D01*
X130900000Y-105626000D01*
X130900000Y-105556000D01*
X129931500Y-105556000D01*
X129792000Y-105695500D01*
X129792000Y-106030000D01*
X128296301Y-106030000D01*
X128109976Y-105751145D01*
X127683814Y-105466392D01*
X127450002Y-105419884D01*
X127450002Y-105374216D01*
X127661232Y-105450247D01*
X128123909Y-105155789D01*
X128422611Y-104778364D01*
X128359599Y-104571800D01*
X127450000Y-104571800D01*
X127450000Y-104610000D01*
X126550000Y-104610000D01*
X126550000Y-104571800D01*
X125640401Y-104571800D01*
X125577389Y-104778364D01*
X125876091Y-105155789D01*
X126338768Y-105450247D01*
X126549998Y-105374216D01*
X126549998Y-105419884D01*
X126316186Y-105466392D01*
X125890024Y-105751145D01*
X125605271Y-106177307D01*
X125505279Y-106680000D01*
X125605271Y-107182693D01*
X125890024Y-107608855D01*
X126316186Y-107893608D01*
X126599687Y-107950000D01*
X126316186Y-108006392D01*
X125890024Y-108291145D01*
X125605271Y-108717307D01*
X125505279Y-109220000D01*
X125605271Y-109722693D01*
X125890024Y-110148855D01*
X126316186Y-110433608D01*
X126818879Y-110533600D01*
X127181121Y-110533600D01*
X127683814Y-110433608D01*
X128109976Y-110148855D01*
X128296301Y-109870000D01*
X129159000Y-109870000D01*
X129366476Y-109828731D01*
X129407745Y-109820522D01*
X129618619Y-109679619D01*
X130063239Y-109235000D01*
X130738263Y-109235000D01*
X130680581Y-109272117D01*
X130577832Y-109422495D01*
X130541684Y-109601000D01*
X130541684Y-110109000D01*
X130573062Y-110275760D01*
X130664504Y-110417865D01*
X130527450Y-110554918D01*
X130442500Y-110760007D01*
X130442500Y-110858500D01*
X130582000Y-110998000D01*
X131286250Y-110998000D01*
X131286250Y-110871000D01*
X131857750Y-110871000D01*
X131857750Y-110998000D01*
X132562000Y-110998000D01*
X132701500Y-110858500D01*
X132701500Y-110760007D01*
X132616550Y-110554918D01*
X132566632Y-110505000D01*
X132588000Y-110505000D01*
X132795476Y-110463731D01*
X132836745Y-110455522D01*
X133047619Y-110314619D01*
X135809620Y-107552619D01*
X135950522Y-107341745D01*
X136000000Y-107093000D01*
X136000000Y-106414816D01*
X136350000Y-106414816D01*
X136469360Y-106392357D01*
X136469360Y-106512360D01*
X136507082Y-106702000D01*
X136518838Y-106761105D01*
X136659741Y-106971979D01*
X136891684Y-107203922D01*
X136891684Y-107569000D01*
X136923062Y-107735760D01*
X137021617Y-107888919D01*
X137111284Y-107950186D01*
X137030581Y-108002117D01*
X136927832Y-108152495D01*
X136891684Y-108331000D01*
X136891684Y-108839000D01*
X136923062Y-109005760D01*
X137021617Y-109158919D01*
X137089059Y-109205000D01*
X136906000Y-109205000D01*
X136698524Y-109246269D01*
X136657255Y-109254478D01*
X136446380Y-109395381D01*
X136192381Y-109649381D01*
X136051478Y-109860255D01*
X136051478Y-109860256D01*
X136002000Y-110109000D01*
X136002000Y-112686754D01*
X135242300Y-112686754D01*
X135075540Y-112718132D01*
X134922381Y-112816687D01*
X134819632Y-112967065D01*
X134783484Y-113145570D01*
X134783484Y-114946430D01*
X134814862Y-115113190D01*
X134913417Y-115266349D01*
X135063795Y-115369098D01*
X135242300Y-115405246D01*
X138742420Y-115405246D01*
X138909180Y-115373868D01*
X139062339Y-115275313D01*
X139165088Y-115124935D01*
X139201236Y-114946430D01*
X139201236Y-114085474D01*
X140749141Y-115633379D01*
X140960015Y-115774282D01*
X141001284Y-115782491D01*
X141208760Y-115823760D01*
X144834043Y-115823760D01*
X144879067Y-115893729D01*
X145029445Y-115996478D01*
X145207950Y-116032626D01*
X146008050Y-116032626D01*
X146174810Y-116001248D01*
X146327969Y-115902693D01*
X146430718Y-115752315D01*
X146466866Y-115573810D01*
X146466866Y-115513285D01*
X146549950Y-115513285D01*
X146549950Y-115684803D01*
X146634901Y-115889892D01*
X146791868Y-116046860D01*
X146996957Y-116131810D01*
X147168475Y-116131810D01*
X147307975Y-115992310D01*
X147307975Y-115373785D01*
X146689450Y-115373785D01*
X146549950Y-115513285D01*
X146466866Y-115513285D01*
X146466866Y-114773710D01*
X146445982Y-114662717D01*
X146549950Y-114662717D01*
X146549950Y-114834235D01*
X146689450Y-114973735D01*
X147307975Y-114973735D01*
X147307975Y-114355210D01*
X147168475Y-114215710D01*
X146996957Y-114215710D01*
X146791868Y-114300660D01*
X146634901Y-114457628D01*
X146549950Y-114662717D01*
X146445982Y-114662717D01*
X146435488Y-114606950D01*
X146336933Y-114453791D01*
X146186555Y-114351042D01*
X146008050Y-114314894D01*
X145207950Y-114314894D01*
X145041190Y-114346272D01*
X144888031Y-114444827D01*
X144834098Y-114523760D01*
X141477998Y-114523760D01*
X141184070Y-114229832D01*
X141263000Y-114245816D01*
X142963000Y-114245816D01*
X143129760Y-114214438D01*
X143282919Y-114115883D01*
X143370981Y-113987000D01*
X145964081Y-113987000D01*
X145979445Y-113997498D01*
X146157950Y-114033646D01*
X146958050Y-114033646D01*
X147124810Y-114002268D01*
X147277969Y-113903713D01*
X147356546Y-113788712D01*
X147382696Y-113783511D01*
X147423965Y-113775302D01*
X147634839Y-113634399D01*
X147967619Y-113301619D01*
X148108522Y-113090745D01*
X148122395Y-113020999D01*
X148158000Y-112842000D01*
X148158000Y-112518717D01*
X148227969Y-112473693D01*
X148281902Y-112394760D01*
X148659184Y-112394760D01*
X148659184Y-112871000D01*
X148690562Y-113037760D01*
X148789117Y-113190919D01*
X148939495Y-113293668D01*
X149118000Y-113329816D01*
X151618000Y-113329816D01*
X151750000Y-113304979D01*
X151750000Y-113626184D01*
X151749000Y-113626184D01*
X151582240Y-113657562D01*
X151429081Y-113756117D01*
X151326332Y-113906495D01*
X151290184Y-114085000D01*
X151290184Y-115785000D01*
X151321562Y-115951760D01*
X151420117Y-116104919D01*
X151541710Y-116188000D01*
X150135132Y-116188000D01*
X150222049Y-116101082D01*
X150307000Y-115895993D01*
X150307000Y-115499500D01*
X150167500Y-115360000D01*
X149524000Y-115360000D01*
X149524000Y-115405000D01*
X149074000Y-115405000D01*
X149074000Y-115360000D01*
X148849000Y-115360000D01*
X148849000Y-114510000D01*
X149074000Y-114510000D01*
X149074000Y-113666500D01*
X149524000Y-113666500D01*
X149524000Y-114510000D01*
X150167500Y-114510000D01*
X150307000Y-114370500D01*
X150307000Y-113974007D01*
X150222049Y-113768918D01*
X150065082Y-113611950D01*
X149859993Y-113527000D01*
X149663500Y-113527000D01*
X149524000Y-113666500D01*
X149074000Y-113666500D01*
X148934500Y-113527000D01*
X148738007Y-113527000D01*
X148532918Y-113611950D01*
X148375951Y-113768918D01*
X148291000Y-113974007D01*
X148291000Y-114367528D01*
X148224132Y-114300660D01*
X148019043Y-114215710D01*
X147847525Y-114215710D01*
X147708025Y-114355210D01*
X147708025Y-114973735D01*
X148291000Y-114973735D01*
X148291000Y-115373785D01*
X147708025Y-115373785D01*
X147708025Y-115992310D01*
X147847525Y-116131810D01*
X148019043Y-116131810D01*
X148224132Y-116046860D01*
X148315603Y-115955389D01*
X148375951Y-116101082D01*
X148462868Y-116188000D01*
X125366000Y-116188000D01*
X125366000Y-114635500D01*
X129685580Y-114635500D01*
X129685580Y-115057423D01*
X129770531Y-115262512D01*
X129927498Y-115419480D01*
X130132587Y-115504430D01*
X131404140Y-115504430D01*
X131543640Y-115364930D01*
X131543640Y-114496000D01*
X132443640Y-114496000D01*
X132443640Y-115364930D01*
X132583140Y-115504430D01*
X133854693Y-115504430D01*
X134059782Y-115419480D01*
X134216749Y-115262512D01*
X134301700Y-115057423D01*
X134301700Y-114635500D01*
X134162200Y-114496000D01*
X132443640Y-114496000D01*
X131543640Y-114496000D01*
X129825080Y-114496000D01*
X129685580Y-114635500D01*
X125366000Y-114635500D01*
X125366000Y-113034577D01*
X129685580Y-113034577D01*
X129685580Y-113456500D01*
X129825080Y-113596000D01*
X131543640Y-113596000D01*
X131543640Y-112727070D01*
X132443640Y-112727070D01*
X132443640Y-113596000D01*
X134162200Y-113596000D01*
X134301700Y-113456500D01*
X134301700Y-113034577D01*
X134216749Y-112829488D01*
X134059782Y-112672520D01*
X133854693Y-112587570D01*
X132583140Y-112587570D01*
X132443640Y-112727070D01*
X131543640Y-112727070D01*
X131404140Y-112587570D01*
X130132587Y-112587570D01*
X129927498Y-112672520D01*
X129770531Y-112829488D01*
X129685580Y-113034577D01*
X125366000Y-113034577D01*
X125366000Y-111391500D01*
X130442500Y-111391500D01*
X130442500Y-111489993D01*
X130527450Y-111695082D01*
X130684418Y-111852049D01*
X130889507Y-111937000D01*
X131146750Y-111937000D01*
X131286250Y-111797500D01*
X131286250Y-111252000D01*
X131857750Y-111252000D01*
X131857750Y-111797500D01*
X131997250Y-111937000D01*
X132254493Y-111937000D01*
X132459582Y-111852049D01*
X132616550Y-111695082D01*
X132701500Y-111489993D01*
X132701500Y-111391500D01*
X132562000Y-111252000D01*
X131857750Y-111252000D01*
X131286250Y-111252000D01*
X130582000Y-111252000D01*
X130442500Y-111391500D01*
X125366000Y-111391500D01*
X125366000Y-104245007D01*
X129792000Y-104245007D01*
X129792000Y-104616500D01*
X129931500Y-104756000D01*
X130900000Y-104756000D01*
X130900000Y-103937500D01*
X131800000Y-103937500D01*
X131800000Y-104756000D01*
X132768500Y-104756000D01*
X132908000Y-104616500D01*
X132908000Y-104245007D01*
X132823049Y-104039918D01*
X132666082Y-103882950D01*
X132460993Y-103798000D01*
X131939500Y-103798000D01*
X131800000Y-103937500D01*
X130900000Y-103937500D01*
X130760500Y-103798000D01*
X130239007Y-103798000D01*
X130033918Y-103882950D01*
X129876951Y-104039918D01*
X129792000Y-104245007D01*
X125366000Y-104245007D01*
X125366000Y-99458000D01*
X147272761Y-99458000D01*
X146570483Y-100160279D01*
X146570483Y-100160279D01*
G37*
X146570483Y-100160279D02*
X146339586Y-100064402D01*
X145762944Y-100063899D01*
X145230003Y-100284106D01*
X144821899Y-100691498D01*
X144600762Y-101224054D01*
X144600259Y-101800696D01*
X144820466Y-102333637D01*
X145227858Y-102741741D01*
X145760414Y-102962878D01*
X146337056Y-102963381D01*
X146869997Y-102743174D01*
X147278101Y-102335782D01*
X147499238Y-101803226D01*
X147499741Y-101226584D01*
X147453812Y-101115427D01*
X148351239Y-100218000D01*
X149409998Y-100218000D01*
X149409998Y-100365784D01*
X149198768Y-100289753D01*
X148736091Y-100584211D01*
X148437389Y-100961636D01*
X148500401Y-101168200D01*
X149410000Y-101168200D01*
X149410000Y-101130000D01*
X150310000Y-101130000D01*
X150310000Y-101168200D01*
X151219599Y-101168200D01*
X151282611Y-100961636D01*
X151025405Y-100636644D01*
X151750000Y-101361239D01*
X151750000Y-108438915D01*
X151618000Y-108412184D01*
X149118000Y-108412184D01*
X148951240Y-108443562D01*
X148798081Y-108542117D01*
X148695332Y-108692495D01*
X148659184Y-108871000D01*
X148659184Y-109871000D01*
X148690562Y-110037760D01*
X148789117Y-110190919D01*
X148939495Y-110293668D01*
X149118000Y-110329816D01*
X151618000Y-110329816D01*
X151750000Y-110304979D01*
X151750000Y-111438915D01*
X151618000Y-111412184D01*
X150328422Y-111412184D01*
X150201379Y-111285141D01*
X149990505Y-111144238D01*
X149949236Y-111136029D01*
X149741760Y-111094760D01*
X148281957Y-111094760D01*
X148236933Y-111024791D01*
X148086555Y-110922042D01*
X147908050Y-110885894D01*
X147107950Y-110885894D01*
X146941190Y-110917272D01*
X146788031Y-111015827D01*
X146685282Y-111166205D01*
X146649134Y-111344710D01*
X146649134Y-112144810D01*
X146680512Y-112311570D01*
X146683307Y-112315914D01*
X146432217Y-112315914D01*
X146466866Y-112144810D01*
X146466866Y-111344710D01*
X146435488Y-111177950D01*
X146336933Y-111024791D01*
X146186555Y-110922042D01*
X146008050Y-110885894D01*
X145668373Y-110885894D01*
X144922000Y-110139522D01*
X144922000Y-107436608D01*
X145227858Y-107743001D01*
X145760414Y-107964138D01*
X146132300Y-107964462D01*
X146098381Y-107998381D01*
X145957478Y-108209255D01*
X145957478Y-108209256D01*
X145908000Y-108458000D01*
X145908000Y-108971823D01*
X145838031Y-109016847D01*
X145735282Y-109167225D01*
X145699134Y-109345730D01*
X145699134Y-110145830D01*
X145730512Y-110312590D01*
X145829067Y-110465749D01*
X145979445Y-110568498D01*
X146157950Y-110604646D01*
X146958050Y-110604646D01*
X147124810Y-110573268D01*
X147277969Y-110474713D01*
X147380718Y-110324335D01*
X147416866Y-110145830D01*
X147416866Y-109345730D01*
X147385488Y-109178970D01*
X147286933Y-109025811D01*
X147208000Y-108971878D01*
X147208000Y-108727238D01*
X148386206Y-107549033D01*
X148416562Y-107710360D01*
X148515117Y-107863519D01*
X148665495Y-107966268D01*
X148844000Y-108002416D01*
X150876000Y-108002416D01*
X151042760Y-107971038D01*
X151195919Y-107872483D01*
X151298668Y-107722105D01*
X151334816Y-107543600D01*
X151334816Y-105816400D01*
X151303438Y-105649640D01*
X151204883Y-105496481D01*
X151054505Y-105393732D01*
X150876000Y-105357584D01*
X150523825Y-105357584D01*
X150543814Y-105353608D01*
X150969976Y-105068855D01*
X151254729Y-104642693D01*
X151354721Y-104140000D01*
X151254729Y-103637307D01*
X150969976Y-103211145D01*
X150543814Y-102926392D01*
X150310002Y-102879884D01*
X150310002Y-102834216D01*
X150521232Y-102910247D01*
X150983909Y-102615789D01*
X151282611Y-102238364D01*
X151219599Y-102031800D01*
X150310000Y-102031800D01*
X150310000Y-102070000D01*
X149410000Y-102070000D01*
X149410000Y-102031800D01*
X148500401Y-102031800D01*
X148437389Y-102238364D01*
X148736091Y-102615789D01*
X149198768Y-102910247D01*
X149409998Y-102834216D01*
X149409998Y-102879884D01*
X149176186Y-102926392D01*
X148750024Y-103211145D01*
X148563699Y-103490000D01*
X147320000Y-103490000D01*
X147121731Y-103529438D01*
X147071255Y-103539478D01*
X146860380Y-103680381D01*
X145590381Y-104950381D01*
X145449478Y-105161255D01*
X145449478Y-105161256D01*
X145442234Y-105197674D01*
X145230003Y-105285366D01*
X144821899Y-105692758D01*
X144749749Y-105866513D01*
X144731620Y-105839381D01*
X144096619Y-105204381D01*
X143885745Y-105063478D01*
X143844476Y-105055269D01*
X143637000Y-105014000D01*
X139954000Y-105014000D01*
X139705256Y-105063478D01*
X139697209Y-105068855D01*
X139494380Y-105204381D01*
X138986381Y-105712381D01*
X138845478Y-105923255D01*
X138845478Y-105923256D01*
X138796000Y-106172000D01*
X138796000Y-106723054D01*
X138672005Y-106638332D01*
X138493500Y-106602184D01*
X138128423Y-106602184D01*
X137769360Y-106243122D01*
X137769360Y-102959246D01*
X138869420Y-102959246D01*
X139036180Y-102927868D01*
X139189339Y-102829313D01*
X139292088Y-102678935D01*
X139328236Y-102500430D01*
X139328236Y-102250000D01*
X139773184Y-102250000D01*
X139773184Y-103102000D01*
X139804562Y-103268760D01*
X139903117Y-103421919D01*
X140053495Y-103524668D01*
X140232000Y-103560816D01*
X143232000Y-103560816D01*
X143398760Y-103529438D01*
X143551919Y-103430883D01*
X143654668Y-103280505D01*
X143690816Y-103102000D01*
X143690816Y-100902000D01*
X143659438Y-100735240D01*
X143560883Y-100582081D01*
X143410505Y-100479332D01*
X143232000Y-100443184D01*
X140232000Y-100443184D01*
X140065240Y-100474562D01*
X139912081Y-100573117D01*
X139809332Y-100723495D01*
X139773184Y-100902000D01*
X139773184Y-100950000D01*
X139328236Y-100950000D01*
X139328236Y-100699570D01*
X139296858Y-100532810D01*
X139198303Y-100379651D01*
X139047925Y-100276902D01*
X138869420Y-100240754D01*
X135369300Y-100240754D01*
X135202540Y-100272132D01*
X135049381Y-100370687D01*
X134946632Y-100521065D01*
X134910484Y-100699570D01*
X134910484Y-102500430D01*
X134941862Y-102667190D01*
X135040417Y-102820349D01*
X135190795Y-102923098D01*
X135369300Y-102959246D01*
X136469360Y-102959246D01*
X136469360Y-103921355D01*
X136350000Y-103897184D01*
X134534422Y-103897184D01*
X133596484Y-102959246D01*
X133870700Y-102959246D01*
X134037460Y-102927868D01*
X134190619Y-102829313D01*
X134293368Y-102678935D01*
X134329516Y-102500430D01*
X134329516Y-100699570D01*
X134298138Y-100532810D01*
X134199583Y-100379651D01*
X134049205Y-100276902D01*
X133870700Y-100240754D01*
X130370580Y-100240754D01*
X130203820Y-100272132D01*
X130050661Y-100370687D01*
X129947912Y-100521065D01*
X129911764Y-100699570D01*
X129911764Y-100950000D01*
X128474816Y-100950000D01*
X128474816Y-100736400D01*
X128443438Y-100569640D01*
X128344883Y-100416481D01*
X128194505Y-100313732D01*
X128016000Y-100277584D01*
X125984000Y-100277584D01*
X125817240Y-100308962D01*
X125664081Y-100407517D01*
X125561332Y-100557895D01*
X125525184Y-100736400D01*
X125525184Y-102463600D01*
X125556562Y-102630360D01*
X125655117Y-102783519D01*
X125805495Y-102886268D01*
X125984000Y-102922416D01*
X126193168Y-102922416D01*
X125876091Y-103124211D01*
X125577389Y-103501636D01*
X125640401Y-103708200D01*
X126550000Y-103708200D01*
X126550000Y-103670000D01*
X127450000Y-103670000D01*
X127450000Y-103708200D01*
X128359599Y-103708200D01*
X128422611Y-103501636D01*
X128123909Y-103124211D01*
X127806832Y-102922416D01*
X128016000Y-102922416D01*
X128182760Y-102891038D01*
X128335919Y-102792483D01*
X128438668Y-102642105D01*
X128474816Y-102463600D01*
X128474816Y-102250000D01*
X129911764Y-102250000D01*
X129911764Y-102500430D01*
X129943142Y-102667190D01*
X130041697Y-102820349D01*
X130192075Y-102923098D01*
X130370580Y-102959246D01*
X131758008Y-102959246D01*
X133891184Y-105092422D01*
X133891184Y-105956000D01*
X133922562Y-106122760D01*
X134021117Y-106275919D01*
X134171495Y-106378668D01*
X134350000Y-106414816D01*
X134700000Y-106414816D01*
X134700000Y-106823761D01*
X132581381Y-108942381D01*
X132602316Y-108839000D01*
X132602316Y-108331000D01*
X132570938Y-108164240D01*
X132472383Y-108011081D01*
X132382716Y-107949814D01*
X132463419Y-107897883D01*
X132566168Y-107747505D01*
X132602316Y-107569000D01*
X132602316Y-107061000D01*
X132570938Y-106894240D01*
X132472383Y-106741081D01*
X132322005Y-106638332D01*
X132143500Y-106602184D01*
X131778423Y-106602184D01*
X131690239Y-106514000D01*
X131800002Y-106514000D01*
X131800002Y-106374502D01*
X131939500Y-106514000D01*
X132460993Y-106514000D01*
X132666082Y-106429050D01*
X132823049Y-106272082D01*
X132908000Y-106066993D01*
X132908000Y-105695500D01*
X132768500Y-105556000D01*
X131800000Y-105556000D01*
X131800000Y-105626000D01*
X130900000Y-105626000D01*
X130900000Y-105556000D01*
X129931500Y-105556000D01*
X129792000Y-105695500D01*
X129792000Y-106030000D01*
X128296301Y-106030000D01*
X128109976Y-105751145D01*
X127683814Y-105466392D01*
X127450002Y-105419884D01*
X127450002Y-105374216D01*
X127661232Y-105450247D01*
X128123909Y-105155789D01*
X128422611Y-104778364D01*
X128359599Y-104571800D01*
X127450000Y-104571800D01*
X127450000Y-104610000D01*
X126550000Y-104610000D01*
X126550000Y-104571800D01*
X125640401Y-104571800D01*
X125577389Y-104778364D01*
X125876091Y-105155789D01*
X126338768Y-105450247D01*
X126549998Y-105374216D01*
X126549998Y-105419884D01*
X126316186Y-105466392D01*
X125890024Y-105751145D01*
X125605271Y-106177307D01*
X125505279Y-106680000D01*
X125605271Y-107182693D01*
X125890024Y-107608855D01*
X126316186Y-107893608D01*
X126599687Y-107950000D01*
X126316186Y-108006392D01*
X125890024Y-108291145D01*
X125605271Y-108717307D01*
X125505279Y-109220000D01*
X125605271Y-109722693D01*
X125890024Y-110148855D01*
X126316186Y-110433608D01*
X126818879Y-110533600D01*
X127181121Y-110533600D01*
X127683814Y-110433608D01*
X128109976Y-110148855D01*
X128296301Y-109870000D01*
X129159000Y-109870000D01*
X129366476Y-109828731D01*
X129407745Y-109820522D01*
X129618619Y-109679619D01*
X130063239Y-109235000D01*
X130738263Y-109235000D01*
X130680581Y-109272117D01*
X130577832Y-109422495D01*
X130541684Y-109601000D01*
X130541684Y-110109000D01*
X130573062Y-110275760D01*
X130664504Y-110417865D01*
X130527450Y-110554918D01*
X130442500Y-110760007D01*
X130442500Y-110858500D01*
X130582000Y-110998000D01*
X131286250Y-110998000D01*
X131286250Y-110871000D01*
X131857750Y-110871000D01*
X131857750Y-110998000D01*
X132562000Y-110998000D01*
X132701500Y-110858500D01*
X132701500Y-110760007D01*
X132616550Y-110554918D01*
X132566632Y-110505000D01*
X132588000Y-110505000D01*
X132795476Y-110463731D01*
X132836745Y-110455522D01*
X133047619Y-110314619D01*
X135809620Y-107552619D01*
X135950522Y-107341745D01*
X136000000Y-107093000D01*
X136000000Y-106414816D01*
X136350000Y-106414816D01*
X136469360Y-106392357D01*
X136469360Y-106512360D01*
X136507082Y-106702000D01*
X136518838Y-106761105D01*
X136659741Y-106971979D01*
X136891684Y-107203922D01*
X136891684Y-107569000D01*
X136923062Y-107735760D01*
X137021617Y-107888919D01*
X137111284Y-107950186D01*
X137030581Y-108002117D01*
X136927832Y-108152495D01*
X136891684Y-108331000D01*
X136891684Y-108839000D01*
X136923062Y-109005760D01*
X137021617Y-109158919D01*
X137089059Y-109205000D01*
X136906000Y-109205000D01*
X136698524Y-109246269D01*
X136657255Y-109254478D01*
X136446380Y-109395381D01*
X136192381Y-109649381D01*
X136051478Y-109860255D01*
X136051478Y-109860256D01*
X136002000Y-110109000D01*
X136002000Y-112686754D01*
X135242300Y-112686754D01*
X135075540Y-112718132D01*
X134922381Y-112816687D01*
X134819632Y-112967065D01*
X134783484Y-113145570D01*
X134783484Y-114946430D01*
X134814862Y-115113190D01*
X134913417Y-115266349D01*
X135063795Y-115369098D01*
X135242300Y-115405246D01*
X138742420Y-115405246D01*
X138909180Y-115373868D01*
X139062339Y-115275313D01*
X139165088Y-115124935D01*
X139201236Y-114946430D01*
X139201236Y-114085474D01*
X140749141Y-115633379D01*
X140960015Y-115774282D01*
X141001284Y-115782491D01*
X141208760Y-115823760D01*
X144834043Y-115823760D01*
X144879067Y-115893729D01*
X145029445Y-115996478D01*
X145207950Y-116032626D01*
X146008050Y-116032626D01*
X146174810Y-116001248D01*
X146327969Y-115902693D01*
X146430718Y-115752315D01*
X146466866Y-115573810D01*
X146466866Y-115513285D01*
X146549950Y-115513285D01*
X146549950Y-115684803D01*
X146634901Y-115889892D01*
X146791868Y-116046860D01*
X146996957Y-116131810D01*
X147168475Y-116131810D01*
X147307975Y-115992310D01*
X147307975Y-115373785D01*
X146689450Y-115373785D01*
X146549950Y-115513285D01*
X146466866Y-115513285D01*
X146466866Y-114773710D01*
X146445982Y-114662717D01*
X146549950Y-114662717D01*
X146549950Y-114834235D01*
X146689450Y-114973735D01*
X147307975Y-114973735D01*
X147307975Y-114355210D01*
X147168475Y-114215710D01*
X146996957Y-114215710D01*
X146791868Y-114300660D01*
X146634901Y-114457628D01*
X146549950Y-114662717D01*
X146445982Y-114662717D01*
X146435488Y-114606950D01*
X146336933Y-114453791D01*
X146186555Y-114351042D01*
X146008050Y-114314894D01*
X145207950Y-114314894D01*
X145041190Y-114346272D01*
X144888031Y-114444827D01*
X144834098Y-114523760D01*
X141477998Y-114523760D01*
X141184070Y-114229832D01*
X141263000Y-114245816D01*
X142963000Y-114245816D01*
X143129760Y-114214438D01*
X143282919Y-114115883D01*
X143370981Y-113987000D01*
X145964081Y-113987000D01*
X145979445Y-113997498D01*
X146157950Y-114033646D01*
X146958050Y-114033646D01*
X147124810Y-114002268D01*
X147277969Y-113903713D01*
X147356546Y-113788712D01*
X147382696Y-113783511D01*
X147423965Y-113775302D01*
X147634839Y-113634399D01*
X147967619Y-113301619D01*
X148108522Y-113090745D01*
X148122395Y-113020999D01*
X148158000Y-112842000D01*
X148158000Y-112518717D01*
X148227969Y-112473693D01*
X148281902Y-112394760D01*
X148659184Y-112394760D01*
X148659184Y-112871000D01*
X148690562Y-113037760D01*
X148789117Y-113190919D01*
X148939495Y-113293668D01*
X149118000Y-113329816D01*
X151618000Y-113329816D01*
X151750000Y-113304979D01*
X151750000Y-113626184D01*
X151749000Y-113626184D01*
X151582240Y-113657562D01*
X151429081Y-113756117D01*
X151326332Y-113906495D01*
X151290184Y-114085000D01*
X151290184Y-115785000D01*
X151321562Y-115951760D01*
X151420117Y-116104919D01*
X151541710Y-116188000D01*
X150135132Y-116188000D01*
X150222049Y-116101082D01*
X150307000Y-115895993D01*
X150307000Y-115499500D01*
X150167500Y-115360000D01*
X149524000Y-115360000D01*
X149524000Y-115405000D01*
X149074000Y-115405000D01*
X149074000Y-115360000D01*
X148849000Y-115360000D01*
X148849000Y-114510000D01*
X149074000Y-114510000D01*
X149074000Y-113666500D01*
X149524000Y-113666500D01*
X149524000Y-114510000D01*
X150167500Y-114510000D01*
X150307000Y-114370500D01*
X150307000Y-113974007D01*
X150222049Y-113768918D01*
X150065082Y-113611950D01*
X149859993Y-113527000D01*
X149663500Y-113527000D01*
X149524000Y-113666500D01*
X149074000Y-113666500D01*
X148934500Y-113527000D01*
X148738007Y-113527000D01*
X148532918Y-113611950D01*
X148375951Y-113768918D01*
X148291000Y-113974007D01*
X148291000Y-114367528D01*
X148224132Y-114300660D01*
X148019043Y-114215710D01*
X147847525Y-114215710D01*
X147708025Y-114355210D01*
X147708025Y-114973735D01*
X148291000Y-114973735D01*
X148291000Y-115373785D01*
X147708025Y-115373785D01*
X147708025Y-115992310D01*
X147847525Y-116131810D01*
X148019043Y-116131810D01*
X148224132Y-116046860D01*
X148315603Y-115955389D01*
X148375951Y-116101082D01*
X148462868Y-116188000D01*
X125366000Y-116188000D01*
X125366000Y-114635500D01*
X129685580Y-114635500D01*
X129685580Y-115057423D01*
X129770531Y-115262512D01*
X129927498Y-115419480D01*
X130132587Y-115504430D01*
X131404140Y-115504430D01*
X131543640Y-115364930D01*
X131543640Y-114496000D01*
X132443640Y-114496000D01*
X132443640Y-115364930D01*
X132583140Y-115504430D01*
X133854693Y-115504430D01*
X134059782Y-115419480D01*
X134216749Y-115262512D01*
X134301700Y-115057423D01*
X134301700Y-114635500D01*
X134162200Y-114496000D01*
X132443640Y-114496000D01*
X131543640Y-114496000D01*
X129825080Y-114496000D01*
X129685580Y-114635500D01*
X125366000Y-114635500D01*
X125366000Y-113034577D01*
X129685580Y-113034577D01*
X129685580Y-113456500D01*
X129825080Y-113596000D01*
X131543640Y-113596000D01*
X131543640Y-112727070D01*
X132443640Y-112727070D01*
X132443640Y-113596000D01*
X134162200Y-113596000D01*
X134301700Y-113456500D01*
X134301700Y-113034577D01*
X134216749Y-112829488D01*
X134059782Y-112672520D01*
X133854693Y-112587570D01*
X132583140Y-112587570D01*
X132443640Y-112727070D01*
X131543640Y-112727070D01*
X131404140Y-112587570D01*
X130132587Y-112587570D01*
X129927498Y-112672520D01*
X129770531Y-112829488D01*
X129685580Y-113034577D01*
X125366000Y-113034577D01*
X125366000Y-111391500D01*
X130442500Y-111391500D01*
X130442500Y-111489993D01*
X130527450Y-111695082D01*
X130684418Y-111852049D01*
X130889507Y-111937000D01*
X131146750Y-111937000D01*
X131286250Y-111797500D01*
X131286250Y-111252000D01*
X131857750Y-111252000D01*
X131857750Y-111797500D01*
X131997250Y-111937000D01*
X132254493Y-111937000D01*
X132459582Y-111852049D01*
X132616550Y-111695082D01*
X132701500Y-111489993D01*
X132701500Y-111391500D01*
X132562000Y-111252000D01*
X131857750Y-111252000D01*
X131286250Y-111252000D01*
X130582000Y-111252000D01*
X130442500Y-111391500D01*
X125366000Y-111391500D01*
X125366000Y-104245007D01*
X129792000Y-104245007D01*
X129792000Y-104616500D01*
X129931500Y-104756000D01*
X130900000Y-104756000D01*
X130900000Y-103937500D01*
X131800000Y-103937500D01*
X131800000Y-104756000D01*
X132768500Y-104756000D01*
X132908000Y-104616500D01*
X132908000Y-104245007D01*
X132823049Y-104039918D01*
X132666082Y-103882950D01*
X132460993Y-103798000D01*
X131939500Y-103798000D01*
X131800000Y-103937500D01*
X130900000Y-103937500D01*
X130760500Y-103798000D01*
X130239007Y-103798000D01*
X130033918Y-103882950D01*
X129876951Y-104039918D01*
X129792000Y-104245007D01*
X125366000Y-104245007D01*
X125366000Y-99458000D01*
X147272761Y-99458000D01*
X146570483Y-100160279D01*
M02*
